<?xml version="1.0" encoding="UTF-8"?>
<svg id="svg1109" xmlns="http://www.w3.org/2000/svg" viewBox="0 0 844.53 237.64">
  <defs>
    <style>
      .cls-1 {
        fill: #5ea7dc;
      }

      .cls-1, .cls-2 {
        stroke-width: 0px;
      }

      .cls-2 {
        fill: #424a52;
      }
    </style>
  </defs>
  <rect id="rect619-3-54" class="cls-2" x="407.93" y="25.27" width="4.61" height="17.28"/>
  <rect id="rect627-7-5" class="cls-2" x="407.87" y="17.91" width="4.77" height="4.91"/>
  <g id="g7982">
    <g id="g615-8-2">
      <path id="path607-7-0" class="cls-2" d="M323.14,40.57c-1.92,1.79-3.92,2.57-6.46,2.57-5.11,0-8.89-3.88-8.89-9.14s3.7-9.33,8.92-9.33c2.5,0,4.57.9,6.71,2.87l-3.08,2.87c-1.02-1.05-2.1-1.53-3.45-1.53-2.54,0-4.42,2.13-4.42,4.96s1.92,5.08,4.61,5.08c1.2,0,2.07-.37,3.26-1.45l2.79,3.1Z"/>
      <path id="path609-9-5" class="cls-2" d="M339.57,25.27v10.93c0,2.54-.51,3.96-1.89,5.15-1.34,1.16-3.23,1.79-5.44,1.79s-4.32-.67-5.62-1.9c-1.2-1.12-1.78-2.76-1.78-5.04v-10.93h4.61v10.63c0,1.94,1.13,3.25,2.79,3.25s2.72-1.12,2.72-2.95v-10.93h4.61,0Z"/>
      <path id="path611-7-6" class="cls-2" d="M346.31,34.04c0,3.1,1.85,5.26,4.5,5.26s4.57-2.17,4.57-5.26-1.92-5.37-4.46-5.37-4.61,2.39-4.61,5.37M346.38,42.55h-4.61v-24.5h4.61v9.31c1.6-1.9,3.15-2.69,5.44-2.69,4.93,0,8.45,3.88,8.45,9.33s-3.34,9.14-8.23,9.14c-2.54,0-4.17-.82-5.66-2.84v2.24h0Z"/>
      <path id="path613-8-7" class="cls-2" d="M375.14,32.32c-.4-2.28-2-3.66-4.28-3.66s-3.7,1.3-4.13,3.66h8.41ZM366.73,35.05c.4,2.39,2.1,3.88,4.39,3.88,1.7,0,3.15-.86,3.88-2.24l4.24,1.2c-1.67,3.36-4.61,5.26-8.16,5.26-5.33,0-9.14-3.88-9.14-9.26s3.66-9.22,8.85-9.22,9.1,3.88,9.1,9.44l-.04.93h-13.13Z"/>
    </g>
    <polygon id="polygon617-6-9" class="cls-2" points="406.4 25.27 400.93 42.55 396.14 42.55 393.2 31.95 390.19 42.55 385.3 42.55 379.89 25.27 384.57 25.27 387.94 35.79 390.88 25.27 395.31 25.27 398.32 35.79 401.73 25.27 406.4 25.27"/>
    <g id="g625-4-88">
      <path id="path621-2-4" class="cls-2" d="M423.56,30.27v-.3c0-1.05-.91-1.79-2.14-1.79-1.13,0-1.85.63-1.85,1.57,0,.45.18.9.47,1.12.51.41.54.41,2.87,1.16,3.77,1.2,5.26,2.72,5.26,5.52,0,3.36-2.61,5.6-6.53,5.6s-6.42-2.09-6.6-5.67h4.42c.22,1.49.87,2.16,2.21,2.16,1.09,0,1.85-.67,1.85-1.64,0-1.05-.65-1.53-3.12-2.31-3.63-1.12-5.26-2.8-5.26-5.52,0-3.28,2.57-5.49,6.49-5.49s6.17,2.09,6.27,5.6h-4.35Z"/>
      <path id="path623-3-9" class="cls-2" d="M442.3,32.32c-.4-2.28-2-3.66-4.28-3.66s-3.7,1.3-4.13,3.66h8.41ZM433.89,35.05c.4,2.39,2.1,3.88,4.39,3.88,1.7,0,3.15-.86,3.88-2.24l4.24,1.2c-1.67,3.36-4.61,5.26-8.16,5.26-5.33,0-9.14-3.88-9.14-9.26s3.66-9.22,8.85-9.22,9.1,3.88,9.1,9.44l-.04.93h-13.13Z"/>
    </g>
  </g>
  <path class="cls-1" d="M236.83,102.39h-.98s-28.23.01-28.23.01l-97.36,110.66.92-143.97-68.8,74.68L.03,143.61l.07-18.33,34.23.08L128.92,22.28l-.19,141.89,71.32-80.22h35.79s.96,0,.96,0c-.03-22.59-.06-45.18-.1-67.76l-1.14-2.83c-2.12-5.27-6.76-9.89-12.05-12.03l-2.8-1.13L119.16.06C19.26-.07,17.57-.06,14.46.88,8.56,2.67,3.63,7.2,1.26,13.03L.17,15.69.04,116.94C-.07,207.04,0,218.51.67,221.13c1.89,7.4,7.9,13.27,15.48,15.11h0c1.88.46,24.72,1.36,101.56,1.4,108.43.04,102.51-.56,108.07-3.38,5.01-2.54,9.4-8.43,10.65-14.31.43-2.01.53-27.46.42-103.22,0-4.78-.01-9.56-.02-14.35Z"/>
  <g>
    <path class="cls-1" d="M344.51,59.9v10.63c8.69-10.39,19.32-14.97,34.78-14.97,10.62,0,21,2.67,29.94,7.73,18.84,10.87,28.74,29.22,28.74,53.37,0,36.47-22.22,59.41-57.47,59.41-15.22,0-27.04-4.59-35.98-14v58.92h-36.71V59.9h36.71ZM344.51,117.13c0,18.11,10.39,29.95,26.32,29.95s28.01-12.56,28.01-29.71c0-18.11-11.35-31.39-26.8-31.39s-27.52,12.8-27.52,31.15Z"/>
    <path class="cls-1" d="M555.85,59.9v70.28c0,17.15-3.86,26.8-13.28,34.54-9.42,7.48-22.22,11.35-38.15,11.35s-30.91-4.35-39.85-12.32c-8.45-7.24-12.32-18.11-12.32-33.56V59.9h36.71v67.62c0,11.59,5.56,18.11,15.46,18.11,9.17,0,14.73-5.79,14.73-15.46V59.9h36.7Z"/>
    <path class="cls-1" d="M572.07,171.71V10.64h36.71v161.07h-36.71Z"/>
    <path class="cls-1" d="M677.38,92.98v-2.17c0-5.07-4.59-8.93-10.63-8.93-5.07,0-8.69,3.15-8.69,7.49,0,4.59,3.39,7.24,12.8,9.9,31.39,8.93,42.75,19.32,42.75,38.88,0,22.7-18.12,37.91-45.41,37.91s-44.43-14.24-45.15-37.67h34.77c1.45,8.21,4.11,11.35,10.39,11.35,4.83,0,8.45-3.37,8.45-7.97,0-5.07-3.63-7.72-18.6-12.55-24.39-7.73-35.01-19.08-35.01-36.71,0-22.22,18.11-36.95,45.15-36.95s42.98,14.01,43.23,37.43h-34.06Z"/>
    <path class="cls-1" d="M759.76,123.65c2.67,12.56,12.32,20.04,25.6,20.04,9.9,0,18.11-4.35,21.98-12.31l33.81,8.69c-5.55,11.11-9.66,16.18-18.11,22.7-11.35,8.93-23.91,13.28-38.39,13.28-36.47,0-62.79-25.36-62.79-60.86s24.63-59.65,60.86-59.65,61.82,25.36,61.82,63.51v4.59h-84.77ZM807.1,104.09c-2.41-11.59-11.11-18.11-24.15-18.11s-21.02,6.52-23.43,18.11h47.58Z"/>
  </g>
</svg>