<?xml version="1.0" encoding="UTF-8"?> <svg xmlns="http://www.w3.org/2000/svg" id="Layer_1" viewBox="0 0 687.74 283.48"><defs><style>.cls-1{fill:#fff;}</style></defs><polygon class="cls-1" points="11.83 81.9 11.83 119.07 68.44 151.09 95.32 130.5 11.83 81.9"></polygon><polygon class="cls-1" points="11.83 126.88 11.83 224.47 40.42 148.78 11.83 126.88"></polygon><polygon class="cls-1" points="100.27 135.27 100.27 173.58 11.83 224.47 100.27 135.27"></polygon><polygon class="cls-1" points="434.75 126.34 397.25 104.69 397.13 125.24 196.7 124.38 196.57 169.89 397 170.74 397 191.29 434.62 169.86 472.12 148.21 434.75 126.34"></polygon><path class="cls-1" d="M674.46,87.85c-2.02,0-4-1.04-5.1-2.9l-37.02-62.33h-73.32c-3.28,0-5.93-2.65-5.93-5.93s2.66-5.93,5.93-5.93h76.7c2.09,0,4.03,1.1,5.1,2.9l38.75,65.23c1.67,2.82.75,6.45-2.07,8.13-.95.56-1.99.83-3.02.83Z"></path><path class="cls-1" d="M635.71,153.18h-76.7c-3.28,0-5.93-2.65-5.93-5.93s2.66-5.93,5.93-5.93h73.32l37.02-62.33c1.67-2.82,5.31-3.74,8.13-2.07,2.82,1.67,3.74,5.31,2.07,8.13l-38.75,65.23c-1.07,1.8-3.01,2.9-5.1,2.9Z"></path><path class="cls-1" d="M594.53,87.77h-46.2c-3.28,0-5.93-2.65-5.93-5.93s2.66-5.93,5.93-5.93h46.2c3.28,0,5.93,2.65,5.93,5.93s-2.66,5.93-5.93,5.93Z"></path><path class="cls-1" d="M613.73,55.41h-46.2c-3.28,0-5.93-2.65-5.93-5.93s2.66-5.93,5.93-5.93h46.2c3.28,0,5.93,2.65,5.93,5.93s-2.66,5.93-5.93,5.93Z"></path><path class="cls-1" d="M613.73,122.02h-46.2c-3.28,0-5.93-2.65-5.93-5.93s2.66-5.93,5.93-5.93h46.2c3.28,0,5.93,2.65,5.93,5.93s-2.66,5.93-5.93,5.93Z"></path><circle class="cls-1" cx="539.28" cy="48.96" r="6.33"></circle><circle class="cls-1" cx="519.97" cy="81.84" r="6.33"></circle><circle class="cls-1" cx="539.28" cy="114.98" r="6.33"></circle><path class="cls-1" d="M567.2,205.48v-2.76h2.85v-15.42h-2.85v-2.76h9.12v2.76h-2.88v15.42h2.88v2.76h-9.12Z"></path><path class="cls-1" d="M580.58,184.54h9.27c1.74,0,3.1.49,4.09,1.47.99.98,1.49,2.29,1.49,3.93,0,.78-.11,1.45-.33,2-.22.55-.5,1-.84,1.35-.34.35-.73.61-1.17.78-.44.17-.87.28-1.29.31v.18c.42.02.88.12,1.39.3s.99.46,1.42.86c.44.39.81.89,1.11,1.5s.45,1.35.45,2.23-.14,1.63-.41,2.37c-.27.74-.64,1.38-1.12,1.92s-1.05.97-1.71,1.28c-.66.31-1.38.46-2.16.46h-10.2v-20.94ZM583.97,193.39h5.25c.84,0,1.49-.21,1.95-.65.46-.43.69-1.04.69-1.84v-.96c0-.8-.23-1.42-.69-1.84-.46-.43-1.11-.65-1.95-.65h-5.25v5.94ZM583.97,202.57h5.82c.88,0,1.57-.23,2.07-.69s.75-1.12.75-1.98v-1.02c0-.86-.25-1.52-.75-1.98s-1.19-.69-2.07-.69h-5.82v6.36Z"></path><path class="cls-1" d="M616.37,189.46h-.15l-1.65,3.39-4.59,8.37-4.59-8.37-1.65-3.39h-.15v16.02h-3.24v-20.94h4.02l5.61,10.65h.18l5.61-10.65h3.84v20.94h-3.24v-16.02Z"></path><path class="cls-1" d="M536.39,241.48v-20.94h9c1.94,0,3.44.57,4.5,1.71,1.06,1.14,1.59,2.67,1.59,4.59s-.53,3.45-1.59,4.59c-1.06,1.14-2.56,1.71-4.5,1.71h-5.61v8.34h-3.39ZM539.78,230.14h5.4c.86,0,1.53-.22,2.01-.67s.72-1.08.72-1.92v-1.43c0-.83-.24-1.47-.72-1.92-.48-.45-1.15-.67-2.01-.67h-5.4v6.6Z"></path><path class="cls-1" d="M558.29,241.48c-1.12,0-1.96-.29-2.5-.86-.55-.57-.83-1.36-.83-2.38v-18.96h3.27v19.53h2.16v2.67h-2.1Z"></path><path class="cls-1" d="M574.94,241.48c-.86,0-1.52-.25-1.98-.74-.46-.49-.74-1.11-.84-1.88h-.15c-.3.98-.85,1.72-1.65,2.22-.8.5-1.77.75-2.91.75-1.62,0-2.87-.42-3.74-1.26-.87-.84-1.3-1.97-1.3-3.39,0-1.56.56-2.73,1.7-3.51,1.13-.78,2.78-1.17,4.96-1.17h2.82v-1.32c0-.96-.26-1.7-.78-2.22s-1.33-.78-2.43-.78c-.92,0-1.67.2-2.25.6-.58.4-1.07.91-1.47,1.53l-1.95-1.77c.52-.88,1.25-1.61,2.19-2.18.94-.57,2.17-.85,3.69-.85,2.02,0,3.57.47,4.65,1.41s1.62,2.29,1.62,4.05v7.83h1.65v2.67h-1.83ZM568.34,239.35c1.02,0,1.86-.23,2.52-.67.66-.45.99-1.05.99-1.82v-2.25h-2.76c-2.26,0-3.39.7-3.39,2.1v.54c0,.7.23,1.23.71,1.58.47.35,1.11.53,1.93.53Z"></path><path class="cls-1" d="M579.98,241.48v-15.6h3.27v2.58h.15c.34-.84.86-1.54,1.54-2.1.69-.56,1.63-.84,2.83-.84,1.6,0,2.84.52,3.74,1.58.89,1.05,1.33,2.54,1.33,4.48v9.9h-3.27v-9.48c0-2.44-.98-3.66-2.94-3.66-.42,0-.84.05-1.25.16-.41.11-.78.28-1.09.5-.32.22-.58.5-.77.84s-.29.74-.29,1.2v10.44h-3.27Z"></path><path class="cls-1" d="M597.38,241.48v-15.6h3.27v2.58h.15c.34-.84.86-1.54,1.54-2.1.69-.56,1.63-.84,2.83-.84,1.6,0,2.84.52,3.74,1.58.89,1.05,1.33,2.54,1.33,4.48v9.9h-3.27v-9.48c0-2.44-.98-3.66-2.94-3.66-.42,0-.84.05-1.25.16-.41.11-.78.28-1.09.5-.32.22-.58.5-.77.84s-.29.74-.29,1.2v10.44h-3.27Z"></path><path class="cls-1" d="M616.43,223.09c-.68,0-1.17-.16-1.49-.48-.31-.32-.46-.73-.46-1.23v-.51c0-.5.16-.91.46-1.23.31-.32.81-.48,1.49-.48s1.17.16,1.47.48c.3.32.45.73.45,1.23v.51c0,.5-.15.91-.45,1.23-.3.32-.79.48-1.47.48ZM614.78,225.88h3.27v15.6h-3.27v-15.6Z"></path><path class="cls-1" d="M622.73,241.48v-15.6h3.27v2.58h.15c.34-.84.85-1.54,1.54-2.1.69-.56,1.63-.84,2.83-.84,1.6,0,2.84.52,3.73,1.58.89,1.05,1.33,2.54,1.33,4.48v9.9h-3.27v-9.48c0-2.44-.98-3.66-2.94-3.66-.42,0-.83.05-1.25.16-.41.11-.77.28-1.09.5-.32.22-.58.5-.76.84-.19.34-.29.74-.29,1.2v10.44h-3.27Z"></path><path class="cls-1" d="M653.81,242.95c0,1.62-.62,2.84-1.86,3.66s-3.26,1.23-6.06,1.23c-1.28,0-2.37-.09-3.25-.25-.89-.17-1.62-.42-2.19-.74-.57-.32-.99-.71-1.25-1.17-.26-.46-.39-.99-.39-1.59,0-.86.23-1.53.71-2.01.47-.48,1.12-.81,1.96-.99v-.33c-1.18-.38-1.77-1.18-1.77-2.4,0-.8.27-1.42.81-1.84s1.19-.74,1.95-.92v-.12c-.92-.44-1.63-1.05-2.12-1.84-.49-.79-.74-1.71-.74-2.78,0-1.6.54-2.89,1.61-3.87,1.07-.98,2.6-1.47,4.6-1.47,1.1,0,2.04.16,2.82.48v-.42c0-.7.17-1.25.5-1.63s.84-.58,1.54-.58h2.4v2.64h-3.18v.63c.7.46,1.24,1.06,1.62,1.79.38.73.57,1.54.57,2.45,0,1.58-.54,2.86-1.62,3.83s-2.62,1.46-4.62,1.46c-.76,0-1.44-.08-2.04-.24-.4.14-.75.33-1.05.58s-.45.58-.45.97c0,.42.19.72.57.9.38.18.92.27,1.62.27h3.84c1.92,0,3.31.38,4.17,1.15.86.77,1.29,1.83,1.29,3.17ZM650.75,243.31c0-.54-.21-.97-.61-1.29-.41-.32-1.16-.48-2.24-.48h-5.28c-.72.42-1.08,1.02-1.08,1.8,0,.64.25,1.15.77,1.54.51.39,1.38.58,2.59.58h2.04c2.54,0,3.81-.72,3.81-2.16ZM645.86,233.77c.96,0,1.71-.21,2.24-.65.53-.43.79-1.09.79-1.99v-.6c0-.9-.27-1.56-.79-2-.53-.43-1.28-.64-2.24-.64s-1.71.21-2.24.64c-.53.43-.79,1.09-.79,2v.6c0,.9.26,1.56.79,1.99.53.43,1.28.65,2.24.65Z"></path><path class="cls-1" d="M546.27,277.48l-1.89-5.67h-7.83l-1.83,5.67h-3.45l7.14-20.94h4.26l7.14,20.94h-3.54ZM540.54,259.66h-.15l-3.03,9.24h6.18l-3-9.24Z"></path><path class="cls-1" d="M552.81,277.48v-15.6h3.27v2.58h.15c.34-.84.86-1.54,1.54-2.1.69-.56,1.63-.84,2.83-.84,1.6,0,2.84.52,3.74,1.58.89,1.05,1.33,2.54,1.33,4.48v9.9h-3.27v-9.48c0-2.44-.98-3.66-2.94-3.66-.42,0-.84.05-1.25.16-.41.11-.78.28-1.09.5-.32.22-.58.5-.77.84s-.29.74-.29,1.2v10.44h-3.27Z"></path><path class="cls-1" d="M581.64,277.48c-.86,0-1.52-.25-1.98-.74-.46-.49-.74-1.11-.84-1.88h-.15c-.3.98-.85,1.72-1.65,2.22-.8.5-1.77.75-2.91.75-1.62,0-2.87-.42-3.74-1.26-.87-.84-1.3-1.97-1.3-3.39,0-1.56.56-2.73,1.7-3.51,1.13-.78,2.78-1.17,4.96-1.17h2.82v-1.32c0-.96-.26-1.7-.78-2.22s-1.33-.78-2.43-.78c-.92,0-1.67.2-2.25.6-.58.4-1.07.91-1.47,1.53l-1.95-1.77c.52-.88,1.25-1.61,2.19-2.18.94-.57,2.17-.85,3.69-.85,2.02,0,3.57.47,4.65,1.41s1.62,2.29,1.62,4.05v7.83h1.65v2.67h-1.83ZM575.04,275.35c1.02,0,1.86-.23,2.52-.67.66-.45.99-1.05.99-1.82v-2.25h-2.76c-2.26,0-3.39.7-3.39,2.1v.54c0,.7.23,1.23.71,1.58.47.35,1.11.53,1.93.53Z"></path><path class="cls-1" d="M590.01,277.48c-1.12,0-1.96-.29-2.5-.86-.55-.57-.83-1.36-.83-2.38v-18.96h3.27v19.53h2.16v2.67h-2.1Z"></path><path class="cls-1" d="M604.56,261.88h3.15l-6.57,18.69c-.18.52-.39.96-.62,1.33-.23.37-.5.67-.81.9-.31.23-.68.4-1.12.51-.44.11-.96.17-1.56.17h-1.89v-2.67h2.64l.9-2.64-5.67-16.29h3.27l3.12,9.18.9,3.39h.15l.99-3.39,3.12-9.18Z"></path><path class="cls-1" d="M614.73,277.48c-1.14,0-2-.29-2.58-.88-.58-.59-.87-1.42-.87-2.5v-9.54h-2.43v-2.67h1.32c.54,0,.92-.12,1.12-.36s.32-.63.32-1.17v-2.73h2.94v4.26h3.27v2.67h-3.27v10.26h3.03v2.67h-2.85Z"></path><path class="cls-1" d="M623.01,259.09c-.68,0-1.17-.16-1.49-.48-.31-.32-.46-.73-.46-1.23v-.51c0-.5.16-.91.46-1.23.31-.32.81-.48,1.49-.48s1.17.16,1.47.48c.3.32.45.73.45,1.23v.51c0,.5-.15.91-.45,1.23-.3.32-.79.48-1.47.48ZM621.36,261.88h3.27v15.6h-3.27v-15.6Z"></path><path class="cls-1" d="M635.34,277.84c-1.12,0-2.12-.19-3-.57s-1.62-.92-2.22-1.63c-.6-.71-1.06-1.57-1.38-2.58-.32-1.01-.48-2.13-.48-3.38s.16-2.37.48-3.38c.32-1.01.78-1.87,1.38-2.58.6-.71,1.34-1.25,2.22-1.64.88-.38,1.88-.57,3-.57,1.56,0,2.84.35,3.84,1.05s1.73,1.63,2.19,2.79l-2.7,1.26c-.22-.72-.61-1.29-1.16-1.72s-1.27-.65-2.17-.65c-1.2,0-2.1.37-2.71,1.12-.61.75-.92,1.72-.92,2.92v2.78c0,1.2.3,2.17.92,2.92.61.75,1.51,1.12,2.71,1.12.96,0,1.73-.23,2.29-.71.57-.47,1.03-1.09,1.37-1.88l2.49,1.32c-.52,1.29-1.3,2.27-2.34,2.96-1.04.69-2.31,1.03-3.81,1.03Z"></path><path class="cls-1" d="M649.56,277.84c-1.48,0-2.72-.26-3.72-.78s-1.87-1.24-2.61-2.16l2.1-1.92c.58.7,1.22,1.25,1.93,1.63.71.39,1.54.58,2.48.58s1.67-.18,2.14-.55.71-.88.71-1.54c0-.5-.17-.92-.5-1.28-.33-.35-.91-.57-1.72-.67l-1.44-.18c-1.6-.2-2.86-.67-3.76-1.4-.91-.73-1.37-1.81-1.37-3.25,0-.76.14-1.43.42-2.03.28-.59.67-1.09,1.19-1.5.51-.41,1.12-.72,1.83-.94s1.5-.33,2.36-.33c1.4,0,2.54.22,3.43.66.89.44,1.69,1.05,2.39,1.83l-2.01,1.92c-.4-.48-.92-.9-1.57-1.25-.65-.35-1.4-.53-2.24-.53-.9,0-1.57.18-2,.54-.43.36-.64.83-.64,1.41s.19,1.05.57,1.35c.38.3.99.52,1.83.66l1.44.18c1.72.26,2.97.76,3.76,1.51s1.19,1.75,1.19,3.01c0,.76-.15,1.45-.44,2.06s-.71,1.13-1.25,1.58c-.54.44-1.19.78-1.95,1.02-.76.24-1.61.36-2.55.36Z"></path></svg> 