<?xml version="1.0" encoding="UTF-8"?> <svg xmlns="http://www.w3.org/2000/svg" id="Layer_1" viewBox="0 0 114.34 114.3"><path d="M24.99,44.19c1.57,8.67,7.33,14.27,14.68,14.27s12.99-5.46,14.67-14.25c.26-1.34,1.56-8.14,1.63-9.8.18-4.16-1.32-8.13-4.24-11.18-3.1-3.24-7.5-5.1-12.07-5.1s-9.06,1.9-12.19,5.21c-2.89,3.06-4.35,7-4.12,11.1.1,1.68,1.47,8.94,1.63,9.75ZM30.27,25.98c2.4-2.54,5.83-4,9.39-4s6.91,1.43,9.29,3.92c2.19,2.28,3.31,5.25,3.18,8.35-.05,1.06-.99,6.23-1.57,9.24-1.03,5.38-4.43,11.13-10.9,11.13s-9.97-5.99-10.9-11.13c-.57-3.01-1.51-8.19-1.57-9.27-.17-3.03.92-5.96,3.07-8.24Z"></path><path d="M63.13,67.52l-23.46-3.14-23.33,3.08c-5.82,1.13-12.04,5.14-12.85,11.61l-.76,15.87h74.45l-.92-15.19c-.4-6.27-5.28-10.84-13.13-12.23ZM6.29,91.1l1.01-11.62c.56-4.47,5.46-7.41,9.65-8.23l22.71-3,22.87,3.06c2.84.5,9.48,2.36,9.89,8.68l.67,11.11H6.29Z"></path><path d="M67.87,51.67c1.29,7.04,6.05,11.59,12.12,11.59s10.73-4.43,12.11-11.57c.21-1.07,1.25-6.46,1.31-7.8h0c.15-3.37-1.07-6.59-3.44-9.07-2.56-2.67-6.2-4.21-9.98-4.21s-7.5,1.57-10.08,4.29c-2.35,2.49-3.54,5.69-3.34,9.01.08,1.32,1.11,6.7,1.31,7.75ZM72.7,37.55c1.85-1.96,4.51-3.09,7.29-3.09s5.37,1.1,7.21,3.02c1.64,1.71,2.49,3.93,2.38,6.24-.03.77-.75,4.7-1.25,7.24-.38,1.99-2.12,8.46-8.34,8.46-5.01,0-7.59-4.36-8.34-8.46-.46-2.37-1.2-6.43-1.25-7.26-.13-2.25.69-4.44,2.3-6.15Z"></path><path d="M87.22,94.94h23.04l-.21-14.44c-.4-5.21-4.42-9-10.87-10.15l-18.97-2.28-.46,3.81,18.86,2.27c2.17.39,7.24,1.81,7.61,6.6l.55,10.35h-19.55v3.84Z"></path></svg> 