<?xml version="1.0" encoding="UTF-8"?> <svg xmlns="http://www.w3.org/2000/svg" id="Dashboard" viewBox="0 0 114.34 114.3"><path d="M57.17,15.11V6.86c0-.32.26-.58.58-.58h10.41c.32,0,.58-.26.58-.58v-3.47c0-.32-.26-.58-.58-.58h-26.6c-.32,0-.58.26-.58.58v3.47c0,.32.26.58.58.58h10.41c.32,0,.58.26.58.58v8.25c0,.3-.24.55-.54.57-25.44,1.49-45.71,22.61-45.71,48.41s21.78,48.56,48.56,48.56,48.56-21.78,48.56-48.56S83.15,17.16,57.71,15.67c-.3-.02-.54-.26-.54-.57ZM51.52,107.9c-21.49-1.59-38.84-18.93-40.47-40.41-1.95-25.76,18.47-47.33,43.81-47.33s43.93,19.7,43.93,43.93-21.54,45.72-47.27,43.81Z"></path><path d="M108.04,20.15l-9.15-9.17c-.69-.69-1.77-.8-2.58-.25l-10.6,7.1c-1.07.71-1.22,2.23-.31,3.14l11.43,11.43c.91.91,2.41.76,3.13-.3l8.07-11.96v.02ZM90.84,19.88l4.93-3.18c.81-.52,1.87-.41,2.55.27l2.56,2.56c.68.68.79,1.76.26,2.57l-1.85,2.79c-.71,1.08-2.23,1.23-3.14.32l-5.31-5.31v-.02Z"></path><path d="M49.63,62.65c-2.15,1.78-2.29,5.02-.32,6.98s5.2,1.83,6.98-.32l19.29-23.27c.63-.76.58-1.87-.12-2.56h0c-.69-.69-1.8-.75-2.56-.12l-23.27,19.29Z"></path></svg> 