<?xml version="1.0" encoding="UTF-8"?> <svg xmlns="http://www.w3.org/2000/svg" id="Dashboard" viewBox="0 0 114.34 114.3"><path d="M75.65,21.97h-36.96C18.31,21.97,1.72,38.55,1.72,58.93s16.58,36.96,36.96,36.96h36.96c20.38,0,36.96-16.58,36.96-36.96s-16.58-36.96-36.96-36.96ZM75.65,91.27h-36.96c-17.83,0-32.34-14.51-32.34-32.34S20.85,26.59,38.69,26.59h36.96c17.83,0,32.34,14.51,32.34,32.34s-14.51,32.34-32.34,32.34Z"></path><path d="M75.65,35.83c-12.74,0-23.1,10.36-23.1,23.1s10.36,23.1,23.1,23.1,23.1-10.36,23.1-23.1-10.36-23.1-23.1-23.1ZM75.65,77.41c-10.19,0-18.48-8.29-18.48-18.48s8.29-18.48,18.48-18.48,18.48,8.29,18.48,18.48-8.29,18.48-18.48,18.48Z"></path></svg> 