<?xml version="1.0" encoding="UTF-8"?> <svg xmlns="http://www.w3.org/2000/svg" id="svg1109" viewBox="0 0 71.58 19.47"><defs><style> .cls-1 { fill: #5ea7dc; } .cls-1, .cls-2 { stroke-width: 0px; } .cls-2 { fill: #424a52; } </style></defs><rect id="rect619-3-54" class="cls-2" x="33.42" y="2.07" width=".38" height="1.42"></rect><rect id="rect627-7-5" class="cls-2" x="33.41" y="1.47" width=".39" height=".4"></rect><g id="g7982"><g id="g615-8-2"><path id="path607-7-0" class="cls-2" d="m26.47,3.32c-.16.15-.32.21-.53.21-.42,0-.73-.32-.73-.75s.3-.76.73-.76c.2,0,.37.07.55.24l-.25.24c-.08-.09-.17-.13-.28-.13-.21,0-.36.17-.36.41s.16.42.38.42c.1,0,.17-.03.27-.12l.23.25Z"></path><path id="path609-9-5" class="cls-2" d="m27.82,2.07v.9c0,.21-.04.32-.15.42-.11.09-.26.15-.45.15s-.35-.05-.46-.16c-.1-.09-.15-.23-.15-.41v-.9h.38v.87c0,.16.09.27.23.27s.22-.09.22-.24v-.9h.38,0Z"></path><path id="path611-7-6" class="cls-2" d="m28.37,2.79c0,.25.15.43.37.43s.37-.18.37-.43-.16-.44-.37-.44-.38.2-.38.44m0,.7h-.38V1.48h.38v.76c.13-.16.26-.22.45-.22.4,0,.69.32.69.76s-.27.75-.67.75c-.21,0-.34-.07-.46-.23v.18h0Z"></path><path id="path613-8-7" class="cls-2" d="m30.73,2.65c-.03-.19-.16-.3-.35-.3s-.3.11-.34.3h.69Zm-.69.22c.03.2.17.32.36.32.14,0,.26-.07.32-.18l.35.1c-.14.28-.38.43-.67.43-.44,0-.75-.32-.75-.76s.3-.76.72-.76.75.32.75.77v.08h-1.08Z"></path></g><polygon id="polygon617-6-9" class="cls-2" points="33.29 2.07 32.84 3.49 32.45 3.49 32.21 2.62 31.96 3.49 31.56 3.49 31.12 2.07 31.5 2.07 31.78 2.93 32.02 2.07 32.38 2.07 32.63 2.93 32.91 2.07 33.29 2.07"></polygon><g id="g625-4-88"><path id="path621-2-4" class="cls-2" d="m34.7,2.48v-.02c0-.09-.07-.15-.18-.15-.09,0-.15.05-.15.13,0,.04.01.07.04.09.04.03.04.03.23.09.31.1.43.22.43.45,0,.28-.21.46-.53.46s-.53-.17-.54-.46h.36c.02.12.07.18.18.18.09,0,.15-.05.15-.13,0-.09-.05-.13-.26-.19-.3-.09-.43-.23-.43-.45,0-.27.21-.45.53-.45s.51.17.51.46h-.36Z"></path><path id="path623-3-9" class="cls-2" d="m36.23,2.65c-.03-.19-.16-.3-.35-.3s-.3.11-.34.3h.69Zm-.69.22c.03.2.17.32.36.32.14,0,.26-.07.32-.18l.35.1c-.14.28-.38.43-.67.43-.44,0-.75-.32-.75-.76s.3-.76.72-.76.75.32.75.77v.08h-1.08Z"></path></g></g><path class="cls-1" d="m19.4,8.39h-.08s-2.31,0-2.31,0l-7.98,9.06.08-11.79-5.64,6.12H0s0-1.51,0-1.51h2.8S10.56,1.83,10.56,1.83l-.02,11.62,5.84-6.57h2.93s.08,0,.08,0c0-1.85,0-3.7,0-5.55l-.09-.23c-.17-.43-.55-.81-.99-.99l-.23-.09h-8.32C1.58,0,1.44,0,1.18.07.7.22.3.59.1,1.07l-.09.22v8.29C0,16.96,0,17.9.05,18.11c.15.61.65,1.09,1.27,1.24h0c.15.04,2.03.11,8.32.11,8.88,0,8.4-.05,8.85-.28.41-.21.77-.69.87-1.17.04-.16.04-2.25.03-8.46,0-.39,0-.78,0-1.18Z"></path><g><path class="cls-1" d="m28.22,4.91v.87c.71-.85,1.58-1.23,2.85-1.23.87,0,1.72.22,2.45.63,1.54.89,2.35,2.39,2.35,4.37,0,2.99-1.82,4.87-4.71,4.87-1.25,0-2.22-.38-2.95-1.15v4.83h-3.01V4.91h3.01Zm0,4.69c0,1.48.85,2.45,2.16,2.45s2.29-1.03,2.29-2.43c0-1.48-.93-2.57-2.2-2.57s-2.25,1.05-2.25,2.55Z"></path><path class="cls-1" d="m45.53,4.91v5.76c0,1.4-.32,2.2-1.09,2.83-.77.61-1.82.93-3.13.93s-2.53-.36-3.26-1.01c-.69-.59-1.01-1.48-1.01-2.75v-5.76h3.01v5.54c0,.95.46,1.48,1.27,1.48.75,0,1.21-.47,1.21-1.27v-5.76h3.01Z"></path><path class="cls-1" d="m46.86,14.07V.87h3.01v13.2h-3.01Z"></path><path class="cls-1" d="m55.49,7.62v-.18c0-.42-.38-.73-.87-.73-.42,0-.71.26-.71.61,0,.38.28.59,1.05.81,2.57.73,3.5,1.58,3.5,3.19,0,1.86-1.48,3.11-3.72,3.11s-3.64-1.17-3.7-3.09h2.85c.12.67.34.93.85.93.4,0,.69-.28.69-.65,0-.42-.3-.63-1.52-1.03-2-.63-2.87-1.56-2.87-3.01,0-1.82,1.48-3.03,3.7-3.03s3.52,1.15,3.54,3.07h-2.79Z"></path><path class="cls-1" d="m62.24,10.13c.22,1.03,1.01,1.64,2.1,1.64.81,0,1.48-.36,1.8-1.01l2.77.71c-.45.91-.79,1.33-1.48,1.86-.93.73-1.96,1.09-3.15,1.09-2.99,0-5.14-2.08-5.14-4.99s2.02-4.89,4.99-4.89,5.06,2.08,5.06,5.2v.38h-6.94Zm3.88-1.6c-.2-.95-.91-1.48-1.98-1.48s-1.72.53-1.92,1.48h3.9Z"></path></g></svg> 