<?xml version="1.0" encoding="UTF-8"?> <svg xmlns="http://www.w3.org/2000/svg" id="Layer_1" viewBox="0 0 42.43 42.87"><defs><style>.cls-1{fill:#030403;}.cls-2{fill:#fff;}.cls-3{fill:#45b877;}</style></defs><polygon class="cls-3" points="21.61 24.19 21.61 30.25 26.86 33.28 26.86 27.22 21.61 24.19"></polygon><path d="M26.86,33.49s-.07,0-.1-.03l-5.25-3.03c-.06-.04-.1-.11-.1-.18v-6.06c0-.07.04-.14.1-.18.06-.04.14-.04.21,0l5.25,3.03c.06.04.1.11.1.18v6.06c0,.07-.04.14-.1.18-.03.02-.07.03-.1.03ZM21.82,30.13l4.83,2.79v-5.58l-4.83-2.79v5.58Z"></path><polygon class="cls-2" points="26.86 21.15 21.61 24.19 26.86 27.22 32.11 24.19 26.86 21.15"></polygon><path d="M26.86,27.43s-.07,0-.1-.03l-5.25-3.03c-.06-.04-.1-.11-.1-.18s.04-.14.1-.18l5.25-3.03c.06-.04.14-.04.21,0l5.25,3.03c.06.04.1.11.1.18s-.04.14-.1.18l-5.25,3.03s-.07.03-.1.03ZM22.03,24.19l4.83,2.79,4.83-2.79-4.83-2.79-4.83,2.79Z"></path><polygon class="cls-1" points="32.11 30.25 32.11 24.19 26.86 27.22 26.86 33.28 32.11 30.25"></polygon><path d="M26.86,33.49s-.07,0-.1-.03c-.06-.04-.1-.11-.1-.18v-6.06c0-.07.04-.14.1-.18l5.25-3.03c.06-.04.14-.04.21,0,.06.04.1.11.1.18v6.06c0,.07-.04.14-.1.18l-5.25,3.03s-.07.03-.1.03ZM27.07,27.34v5.58l4.83-2.79v-5.58l-4.83,2.79ZM32.11,30.25h0,0Z"></path><polygon class="cls-3" points="42.22 24.47 42.22 30.53 36.97 33.56 36.97 27.5 42.22 24.47"></polygon><path d="M36.97,33.77s-.07,0-.1-.03c-.06-.04-.1-.11-.1-.18v-6.06c0-.07.04-.14.1-.18l5.25-3.03c.06-.04.14-.04.21,0,.06.04.1.11.1.18v6.06c0,.07-.04.14-.1.18l-5.25,3.03s-.07.03-.1.03ZM37.18,27.62v5.58l4.83-2.79v-5.58l-4.83,2.79Z"></path><polygon class="cls-2" points="36.97 21.44 42.22 24.47 36.97 27.5 31.72 24.47 36.97 21.44"></polygon><path d="M36.97,27.71s-.07,0-.1-.03l-5.25-3.03c-.06-.04-.1-.11-.1-.18s.04-.14.1-.18l5.25-3.03c.06-.04.14-.04.21,0l5.25,3.03c.06.04.1.11.1.18s-.04.14-.1.18l-5.25,3.03s-.07.03-.1.03ZM32.14,24.47l4.83,2.79,4.83-2.79-4.83-2.79-4.83,2.79Z"></path><polygon class="cls-1" points="31.72 30.53 31.72 24.47 36.97 27.5 36.97 33.56 31.72 30.53"></polygon><path d="M36.97,33.77s-.07,0-.1-.03l-5.25-3.03c-.06-.04-.1-.11-.1-.18v-6.06c0-.07.04-.14.1-.18.06-.04.14-.04.21,0l5.25,3.03c.06.04.1.11.1.18v6.06c0,.07-.04.14-.1.18-.03.02-.07.03-.1.03ZM31.93,30.41l4.83,2.79v-5.58l-4.83-2.79v5.58Z"></path><polygon class="cls-3" points="36.97 27.5 36.97 33.56 31.72 36.6 31.72 30.53 36.97 27.5"></polygon><path d="M31.72,36.81s-.07,0-.1-.03c-.06-.04-.1-.11-.1-.18v-6.06c0-.07.04-.14.1-.18l5.25-3.03c.06-.04.14-.04.21,0,.06.04.1.11.1.18v6.06c0,.07-.04.14-.1.18l-5.25,3.03s-.07.03-.1.03ZM31.93,30.65v5.58l4.83-2.79v-5.58l-4.83,2.79Z"></path><polygon class="cls-2" points="31.72 24.47 36.97 27.5 31.72 30.53 26.47 27.5 31.72 24.47"></polygon><path d="M31.72,30.74s-.07,0-.1-.03l-5.25-3.03c-.06-.04-.1-.11-.1-.18s.04-.14.1-.18l5.25-3.03c.06-.04.14-.04.21,0l5.25,3.03c.06.04.1.11.1.18s-.04.14-.1.18l-5.25,3.03s-.07.03-.1.03ZM26.89,27.5l4.83,2.79,4.83-2.79-4.83-2.79-4.83,2.79Z"></path><polygon class="cls-1" points="26.47 33.56 26.47 27.5 31.72 30.53 31.72 36.6 26.47 33.56"></polygon><path d="M31.72,36.81s-.07,0-.1-.03l-5.25-3.03c-.06-.04-.1-.11-.1-.18v-6.06c0-.07.04-.14.1-.18.06-.04.14-.04.21,0l5.25,3.03c.06.04.1.11.1.18v6.06c0,.07-.04.14-.1.18-.03.02-.07.03-.1.03ZM26.68,33.44l4.83,2.79v-5.58l-4.83-2.79v5.58Z"></path><polygon class="cls-3" points="10.71 12.34 10.71 18.4 15.96 21.44 15.96 15.37 10.71 12.34"></polygon><path d="M15.96,21.64s-.07,0-.1-.03l-5.25-3.03c-.06-.04-.1-.11-.1-.18v-6.06c0-.07.04-.14.1-.18.06-.04.14-.04.21,0l5.25,3.03c.06.04.1.11.1.18v6.06c0,.07-.04.14-.1.18-.03.02-.07.03-.1.03ZM10.92,18.28l4.83,2.79v-5.58l-4.83-2.79v5.58Z"></path><polygon class="cls-2" points="15.96 9.31 10.71 12.34 15.96 15.37 21.22 12.34 15.96 9.31"></polygon><path d="M15.96,15.58s-.07,0-.1-.03l-5.25-3.03c-.06-.04-.1-.11-.1-.18s.04-.14.1-.18l5.25-3.03c.06-.04.14-.04.21,0l5.25,3.03c.06.04.1.11.1.18s-.04.14-.1.18l-5.25,3.03s-.07.03-.1.03ZM11.13,12.34l4.83,2.79,4.83-2.79-4.83-2.79-4.83,2.79Z"></path><polygon class="cls-1" points="21.22 18.4 21.22 12.34 15.96 15.37 15.96 21.44 21.22 18.4"></polygon><path d="M15.96,21.64s-.07,0-.1-.03c-.06-.04-.1-.11-.1-.18v-6.06c0-.07.04-.14.1-.18l5.25-3.03c.06-.04.14-.04.21,0,.06.04.1.11.1.18v6.06c0,.07-.04.14-.1.18l-5.25,3.03s-.07.03-.1.03ZM16.17,15.49v5.58l4.83-2.79v-5.58l-4.83,2.79ZM21.22,18.4h0,0Z"></path><polygon class="cls-3" points="26.47 9.31 26.47 15.37 31.72 18.4 31.72 12.34 26.47 9.31"></polygon><path d="M31.72,18.61s-.07,0-.1-.03l-5.25-3.03c-.06-.04-.1-.11-.1-.18v-6.06c0-.07.04-.14.1-.18.06-.04.14-.04.21,0l5.25,3.03c.06.04.1.11.1.18v6.06c0,.07-.04.14-.1.18-.03.02-.07.03-.1.03ZM26.68,15.25l4.83,2.79v-5.58l-4.83-2.79v5.58Z"></path><polygon class="cls-2" points="31.72 6.27 26.47 9.31 31.72 12.34 36.97 9.31 31.72 6.27"></polygon><path d="M31.72,12.55s-.07,0-.1-.03l-5.25-3.03c-.06-.04-.1-.11-.1-.18s.04-.14.1-.18l5.25-3.03c.06-.04.14-.04.21,0l5.25,3.03c.06.04.1.11.1.18s-.04.14-.1.18l-5.25,3.03s-.07.03-.1.03ZM26.89,9.31l4.83,2.79,4.83-2.79-4.83-2.79-4.83,2.79Z"></path><polygon class="cls-1" points="36.97 15.37 36.97 9.31 31.72 12.34 31.72 18.4 36.97 15.37"></polygon><path d="M31.72,18.61s-.07,0-.1-.03c-.06-.04-.1-.11-.1-.18v-6.06c0-.07.04-.14.1-.18l5.25-3.03c.06-.04.14-.04.21,0,.06.04.1.11.1.18v6.06c0,.07-.04.14-.1.18l-5.25,3.03s-.07.03-.1.03ZM31.93,12.46v5.58l4.83-2.79v-5.58l-4.83,2.79ZM36.97,15.37h0,0Z"></path><polygon class="cls-3" points="31.72 18.12 31.72 24.19 36.97 27.22 36.97 21.15 31.72 18.12"></polygon><path d="M36.97,27.43s-.07,0-.1-.03l-5.25-3.03c-.06-.04-.1-.11-.1-.18v-6.06c0-.07.04-.14.1-.18.06-.04.14-.04.21,0l5.25,3.03c.06.04.1.11.1.18v6.06c0,.07-.04.14-.1.18-.03.02-.07.03-.1.03ZM31.93,24.07l4.83,2.79v-5.58l-4.83-2.79v5.58Z"></path><polygon class="cls-2" points="36.97 15.09 31.72 18.12 36.97 21.15 42.22 18.12 36.97 15.09"></polygon><path d="M36.97,21.36s-.07,0-.1-.03l-5.25-3.03c-.06-.04-.1-.11-.1-.18s.04-.14.1-.18l5.25-3.03c.06-.04.14-.04.21,0l5.25,3.03c.06.04.1.11.1.18s-.04.14-.1.18l-5.25,3.03s-.07.03-.1.03ZM32.14,18.12l4.83,2.79,4.83-2.79-4.83-2.79-4.83,2.79Z"></path><polygon class="cls-1" points="42.22 24.19 42.22 18.12 36.97 21.15 36.97 27.22 42.22 24.19"></polygon><path d="M36.97,27.43s-.07,0-.1-.03c-.06-.04-.1-.11-.1-.18v-6.06c0-.07.04-.14.1-.18l5.25-3.03c.06-.04.14-.04.21,0,.06.04.1.11.1.18v6.06c0,.07-.04.14-.1.18l-5.25,3.03s-.07.03-.1.03ZM37.18,21.28v5.58l4.83-2.79v-5.58l-4.83,2.79ZM42.22,24.19h0,0Z"></path><polygon class="cls-3" points="15.96 3.24 15.96 9.31 21.22 12.34 21.22 6.27 15.96 3.24"></polygon><path d="M21.22,12.55s-.07,0-.1-.03l-5.25-3.03c-.06-.04-.1-.11-.1-.18V3.24c0-.07.04-.14.1-.18.06-.04.14-.04.21,0l5.25,3.03c.06.04.1.11.1.18v6.06c0,.07-.04.14-.1.18-.03.02-.07.03-.1.03ZM16.17,9.19l4.83,2.79v-5.58l-4.83-2.79v5.58Z"></path><polygon class="cls-2" points="21.22 .21 15.96 3.24 21.22 6.27 26.47 3.24 21.22 .21"></polygon><path d="M21.22,6.48s-.07,0-.1-.03l-5.25-3.03c-.06-.04-.1-.11-.1-.18s.04-.14.1-.18L21.11.03c.06-.04.14-.04.21,0l5.25,3.03c.06.04.1.11.1.18s-.04.14-.1.18l-5.25,3.03s-.07.03-.1.03ZM16.38,3.24l4.83,2.79,4.83-2.79L21.22.45l-4.83,2.79Z"></path><polygon class="cls-1" points="26.47 9.31 26.47 3.24 21.22 6.27 21.22 12.34 26.47 9.31"></polygon><path d="M21.22,12.55s-.07,0-.1-.03c-.06-.04-.1-.11-.1-.18v-6.06c0-.07.04-.14.1-.18l5.25-3.03c.06-.04.14-.04.21,0,.06.04.1.11.1.18v6.06c0,.07-.04.14-.1.18l-5.25,3.03s-.07.03-.1.03ZM21.42,6.39v5.58l4.83-2.79V3.6l-4.83,2.79ZM26.47,9.31h0,0Z"></path><polygon class="cls-3" points="21.22 12.34 21.22 18.4 26.47 21.44 26.47 15.37 21.22 12.34"></polygon><path d="M26.47,21.64s-.07,0-.1-.03l-5.25-3.03c-.06-.04-.1-.11-.1-.18v-6.06c0-.07.04-.14.1-.18.06-.04.14-.04.21,0l5.25,3.03c.06.04.1.11.1.18v6.06c0,.07-.04.14-.1.18-.03.02-.07.03-.1.03ZM21.42,18.28l4.83,2.79v-5.58l-4.83-2.79v5.58Z"></path><polygon class="cls-2" points="26.47 9.31 21.22 12.34 26.47 15.37 31.72 12.34 26.47 9.31"></polygon><path d="M26.47,15.58s-.07,0-.1-.03l-5.25-3.03c-.06-.04-.1-.11-.1-.18s.04-.14.1-.18l5.25-3.03c.06-.04.14-.04.21,0l5.25,3.03c.06.04.1.11.1.18s-.04.14-.1.18l-5.25,3.03s-.07.03-.1.03ZM21.63,12.34l4.83,2.79,4.83-2.79-4.83-2.79-4.83,2.79Z"></path><polygon class="cls-1" points="31.72 18.4 31.72 12.34 26.47 15.37 26.47 21.44 31.72 18.4"></polygon><path d="M26.47,21.64s-.07,0-.1-.03c-.06-.04-.1-.11-.1-.18v-6.06c0-.07.04-.14.1-.18l5.25-3.03c.06-.04.14-.04.21,0,.06.04.1.11.1.18v6.06c0,.07-.04.14-.1.18l-5.25,3.03s-.07.03-.1.03ZM26.68,15.49v5.58l4.83-2.79v-5.58l-4.83,2.79ZM31.72,18.4h0,0Z"></path><polygon class="cls-3" points="26.47 15.37 26.47 21.44 31.72 24.47 31.72 18.4 26.47 15.37"></polygon><path d="M31.72,24.68s-.07,0-.1-.03l-5.25-3.03c-.06-.04-.1-.11-.1-.18v-6.06c0-.07.04-.14.1-.18.06-.04.14-.04.21,0l5.25,3.03c.06.04.1.11.1.18v6.06c0,.07-.04.14-.1.18-.03.02-.07.03-.1.03ZM26.68,21.31l4.83,2.79v-5.58l-4.83-2.79v5.58Z"></path><polygon class="cls-2" points="31.72 12.34 26.47 15.37 31.72 18.4 36.97 15.37 31.72 12.34"></polygon><path d="M31.72,18.61s-.07,0-.1-.03l-5.25-3.03c-.06-.04-.1-.11-.1-.18s.04-.14.1-.18l5.25-3.03c.06-.04.14-.04.21,0l5.25,3.03c.06.04.1.11.1.18s-.04.14-.1.18l-5.25,3.03s-.07.03-.1.03ZM26.89,15.37l4.83,2.79,4.83-2.79-4.83-2.79-4.83,2.79Z"></path><polygon class="cls-1" points="36.97 21.44 36.97 15.37 31.72 18.4 31.72 24.47 36.97 21.44"></polygon><path d="M31.72,24.68s-.07,0-.1-.03c-.06-.04-.1-.11-.1-.18v-6.06c0-.07.04-.14.1-.18l5.25-3.03c.06-.04.14-.04.21,0,.06.04.1.11.1.18v6.06c0,.07-.04.14-.1.18l-5.25,3.03s-.07.03-.1.03ZM31.93,18.52v5.58l4.83-2.79v-5.58l-4.83,2.79ZM36.97,21.44h0,0Z"></path><polygon class="cls-3" points=".21 24.47 .21 30.53 5.46 33.56 5.46 27.5 .21 24.47"></polygon><path d="M5.46,33.77s-.07,0-.1-.03L.1,30.71c-.06-.04-.1-.11-.1-.18v-6.06c0-.07.04-.14.1-.18.06-.04.14-.04.21,0l5.25,3.03c.06.04.1.11.1.18v6.06c0,.07-.04.14-.1.18-.03.02-.07.03-.1.03ZM.42,30.41l4.83,2.79v-5.58L.42,24.83v5.58Z"></path><polygon class="cls-2" points="5.46 21.44 .21 24.47 5.46 27.5 10.71 24.47 5.46 21.44"></polygon><path d="M5.46,27.71s-.07,0-.1-.03L.1,24.65c-.06-.04-.1-.11-.1-.18s.04-.14.1-.18l5.25-3.03c.06-.04.14-.04.21,0l5.25,3.03c.06.04.1.11.1.18s-.04.14-.1.18l-5.25,3.03s-.07.03-.1.03ZM.63,24.47l4.83,2.79,4.83-2.79-4.83-2.79-4.83,2.79Z"></path><polygon class="cls-1" points="10.71 30.53 10.71 24.47 5.46 27.5 5.46 33.56 10.71 30.53"></polygon><path d="M5.46,33.77s-.07,0-.1-.03c-.06-.04-.1-.11-.1-.18v-6.06c0-.07.04-.14.1-.18l5.25-3.03c.06-.04.14-.04.21,0,.06.04.1.11.1.18v6.06c0,.07-.04.14-.1.18l-5.25,3.03s-.07.03-.1.03ZM5.67,27.62v5.58l4.83-2.79v-5.58l-4.83,2.79ZM10.71,30.53h0,0Z"></path><polygon class="cls-3" points="10.71 30.53 10.71 36.6 15.96 39.63 15.96 33.56 10.71 30.53"></polygon><path d="M15.96,39.84s-.07,0-.1-.03l-5.25-3.03c-.06-.04-.1-.11-.1-.18v-6.06c0-.07.04-.14.1-.18.06-.04.14-.04.21,0l5.25,3.03c.06.04.1.11.1.18v6.06c0,.07-.04.14-.1.18-.03.02-.07.03-.1.03ZM10.92,36.48l4.83,2.79v-5.58l-4.83-2.79v5.58Z"></path><polygon class="cls-2" points="15.96 27.5 10.71 30.53 15.96 33.56 21.22 30.53 15.96 27.5"></polygon><path d="M15.96,33.77s-.07,0-.1-.03l-5.25-3.03c-.06-.04-.1-.11-.1-.18s.04-.14.1-.18l5.25-3.03c.06-.04.14-.04.21,0l5.25,3.03c.06.04.1.11.1.18s-.04.14-.1.18l-5.25,3.03s-.07.03-.1.03ZM11.13,30.53l4.83,2.79,4.83-2.79-4.83-2.79-4.83,2.79Z"></path><polygon class="cls-1" points="21.22 36.6 21.22 30.53 15.96 33.56 15.96 39.63 21.22 36.6"></polygon><path d="M15.96,39.84s-.07,0-.1-.03c-.06-.04-.1-.11-.1-.18v-6.06c0-.07.04-.14.1-.18l5.25-3.03c.06-.04.14-.04.21,0,.06.04.1.11.1.18v6.06c0,.07-.04.14-.1.18l-5.25,3.03s-.07.03-.1.03ZM16.17,33.69v5.58l4.83-2.79v-5.58l-4.83,2.79ZM21.22,36.6h0,0Z"></path><polygon class="cls-3" points="31.72 30.53 31.72 36.6 26.47 39.63 26.47 33.56 31.72 30.53"></polygon><path d="M26.47,39.84s-.07,0-.1-.03c-.06-.04-.1-.11-.1-.18v-6.06c0-.07.04-.14.1-.18l5.25-3.03c.06-.04.14-.04.21,0,.06.04.1.11.1.18v6.06c0,.07-.04.14-.1.18l-5.25,3.03s-.07.03-.1.03ZM26.68,33.69v5.58l4.83-2.79v-5.58l-4.83,2.79Z"></path><polygon class="cls-2" points="26.47 27.5 31.72 30.53 26.47 33.56 21.22 30.53 26.47 27.5"></polygon><path d="M26.47,33.77s-.07,0-.1-.03l-5.25-3.03c-.06-.04-.1-.11-.1-.18s.04-.14.1-.18l5.25-3.03c.06-.04.14-.04.21,0l5.25,3.03c.06.04.1.11.1.18s-.04.14-.1.18l-5.25,3.03s-.07.03-.1.03ZM21.63,30.53l4.83,2.79,4.83-2.79-4.83-2.79-4.83,2.79Z"></path><polygon class="cls-1" points="21.22 36.6 21.22 30.53 26.47 33.56 26.47 39.63 21.22 36.6"></polygon><path d="M26.47,39.84s-.07,0-.1-.03l-5.25-3.03c-.06-.04-.1-.11-.1-.18v-6.06c0-.07.04-.14.1-.18.06-.04.14-.04.21,0l5.25,3.03c.06.04.1.11.1.18v6.06c0,.07-.04.14-.1.18-.03.02-.07.03-.1.03ZM21.42,36.48l4.83,2.79v-5.58l-4.83-2.79v5.58Z"></path><polygon class="cls-3" points="15.96 33.56 15.96 39.63 21.22 42.66 21.22 36.6 15.96 33.56"></polygon><path d="M21.22,42.87s-.07,0-.1-.03l-5.25-3.03c-.06-.04-.1-.11-.1-.18v-6.06c0-.07.04-.14.1-.18.06-.04.14-.04.21,0l5.25,3.03c.06.04.1.11.1.18v6.06c0,.07-.04.14-.1.18-.03.02-.07.03-.1.03ZM16.17,39.51l4.83,2.79v-5.58l-4.83-2.79v5.58Z"></path><polygon class="cls-2" points="21.22 30.53 15.96 33.56 21.22 36.6 26.47 33.56 21.22 30.53"></polygon><path d="M21.22,36.81s-.07,0-.1-.03l-5.25-3.03c-.06-.04-.1-.11-.1-.18s.04-.14.1-.18l5.25-3.03c.06-.04.14-.04.21,0l5.25,3.03c.06.04.1.11.1.18s-.04.14-.1.18l-5.25,3.03s-.07.03-.1.03ZM16.38,33.56l4.83,2.79,4.83-2.79-4.83-2.79-4.83,2.79Z"></path><polygon class="cls-1" points="26.47 39.63 26.47 33.56 21.22 36.6 21.22 42.66 26.47 39.63"></polygon><path d="M21.22,42.87s-.07,0-.1-.03c-.06-.04-.1-.11-.1-.18v-6.06c0-.07.04-.14.1-.18l5.25-3.03c.06-.04.14-.04.21,0,.06.04.1.11.1.18v6.06c0,.07-.04.14-.1.18l-5.25,3.03s-.07.03-.1.03ZM21.42,36.72v5.58l4.83-2.79v-5.58l-4.83,2.79ZM26.47,39.63h0,0Z"></path><polygon class="cls-3" points="5.46 21.44 5.46 27.5 10.71 30.53 10.71 24.47 5.46 21.44"></polygon><path d="M10.71,30.74s-.07,0-.1-.03l-5.25-3.03c-.06-.04-.1-.11-.1-.18v-6.06c0-.07.04-.14.1-.18.06-.04.14-.04.21,0l5.25,3.03c.06.04.1.11.1.18v6.06c0,.07-.04.14-.1.18-.03.02-.07.03-.1.03ZM5.67,27.38l4.83,2.79v-5.58l-4.83-2.79v5.58Z"></path><polygon class="cls-2" points="10.71 18.4 5.46 21.44 10.71 24.47 15.96 21.44 10.71 18.4"></polygon><path d="M10.71,24.68s-.07,0-.1-.03l-5.25-3.03c-.06-.04-.1-.11-.1-.18s.04-.14.1-.18l5.25-3.03c.06-.04.14-.04.21,0l5.25,3.03c.06.04.1.11.1.18s-.04.14-.1.18l-5.25,3.03s-.07.03-.1.03ZM5.88,21.44l4.83,2.79,4.83-2.79-4.83-2.79-4.83,2.79Z"></path><polygon class="cls-1" points="15.96 27.5 15.96 21.44 10.71 24.47 10.71 30.53 15.96 27.5"></polygon><path d="M10.71,30.74s-.07,0-.1-.03c-.06-.04-.1-.11-.1-.18v-6.06c0-.07.04-.14.1-.18l5.25-3.03c.06-.04.14-.04.21,0,.06.04.1.11.1.18v6.06c0,.07-.04.14-.1.18l-5.25,3.03s-.07.03-.1.03ZM10.92,24.59v5.58l4.83-2.79v-5.58l-4.83,2.79ZM15.96,27.5h0,0Z"></path><polygon class="cls-3" points="15.96 21.44 15.96 27.5 21.22 30.53 21.22 24.47 15.96 21.44"></polygon><path d="M21.22,30.74s-.07,0-.1-.03l-5.25-3.03c-.06-.04-.1-.11-.1-.18v-6.06c0-.07.04-.14.1-.18.06-.04.14-.04.21,0l5.25,3.03c.06.04.1.11.1.18v6.06c0,.07-.04.14-.1.18-.03.02-.07.03-.1.03ZM16.17,27.38l4.83,2.79v-5.58l-4.83-2.79v5.58Z"></path><polygon class="cls-2" points="21.22 18.4 15.96 21.44 21.22 24.47 26.47 21.44 21.22 18.4"></polygon><path d="M21.22,24.68s-.07,0-.1-.03l-5.25-3.03c-.06-.04-.1-.11-.1-.18s.04-.14.1-.18l5.25-3.03c.06-.04.14-.04.21,0l5.25,3.03c.06.04.1.11.1.18s-.04.14-.1.18l-5.25,3.03s-.07.03-.1.03ZM16.38,21.44l4.83,2.79,4.83-2.79-4.83-2.79-4.83,2.79Z"></path><polygon class="cls-1" points="26.47 27.5 26.47 21.44 21.22 24.47 21.22 30.53 26.47 27.5"></polygon><path d="M21.22,30.74s-.07,0-.1-.03c-.06-.04-.1-.11-.1-.18v-6.06c0-.07.04-.14.1-.18l5.25-3.03c.06-.04.14-.04.21,0,.06.04.1.11.1.18v6.06c0,.07-.04.14-.1.18l-5.25,3.03s-.07.03-.1.03ZM21.42,24.59v5.58l4.83-2.79v-5.58l-4.83,2.79ZM26.47,27.5h0,0Z"></path><polygon class="cls-3" points="5.46 15.37 5.46 21.44 10.71 24.47 10.71 18.4 5.46 15.37"></polygon><path d="M10.71,24.68s-.07,0-.1-.03l-5.25-3.03c-.06-.04-.1-.11-.1-.18v-6.06c0-.07.04-.14.1-.18.06-.04.14-.04.21,0l5.25,3.03c.06.04.1.11.1.18v6.06c0,.07-.04.14-.1.18-.03.02-.07.03-.1.03ZM5.67,21.31l4.83,2.79v-5.58l-4.83-2.79v5.58Z"></path><polygon class="cls-2" points="10.71 12.34 5.46 15.37 10.71 18.4 15.96 15.37 10.71 12.34"></polygon><path d="M10.71,18.61s-.07,0-.1-.03l-5.25-3.03c-.06-.04-.1-.11-.1-.18s.04-.14.1-.18l5.25-3.03c.06-.04.14-.04.21,0l5.25,3.03c.06.04.1.11.1.18s-.04.14-.1.18l-5.25,3.03s-.07.03-.1.03ZM5.88,15.37l4.83,2.79,4.83-2.79-4.83-2.79-4.83,2.79Z"></path><polygon class="cls-1" points="15.96 21.44 15.96 15.37 10.71 18.4 10.71 24.47 15.96 21.44"></polygon><path d="M10.71,24.68s-.07,0-.1-.03c-.06-.04-.1-.11-.1-.18v-6.06c0-.07.04-.14.1-.18l5.25-3.03c.06-.04.14-.04.21,0,.06.04.1.11.1.18v6.06c0,.07-.04.14-.1.18l-5.25,3.03s-.07.03-.1.03ZM10.92,18.52v5.58l4.83-2.79v-5.58l-4.83,2.79ZM15.96,21.44h0,0Z"></path><polygon class="cls-3" points="10.71 6.27 10.71 12.34 15.96 15.37 15.96 9.31 10.71 6.27"></polygon><path d="M15.96,15.58s-.07,0-.1-.03l-5.25-3.03c-.06-.04-.1-.11-.1-.18v-6.06c0-.07.04-.14.1-.18.06-.04.14-.04.21,0l5.25,3.03c.06.04.1.11.1.18v6.06c0,.07-.04.14-.1.18-.03.02-.07.03-.1.03ZM10.92,12.22l4.83,2.79v-5.58l-4.83-2.79v5.58Z"></path><polygon class="cls-2" points="15.96 3.24 10.71 6.27 15.96 9.31 21.22 6.27 15.96 3.24"></polygon><path d="M15.96,9.52s-.07,0-.1-.03l-5.25-3.03c-.06-.04-.1-.11-.1-.18s.04-.14.1-.18l5.25-3.03c.06-.04.14-.04.21,0l5.25,3.03c.06.04.1.11.1.18s-.04.14-.1.18l-5.25,3.03s-.07.03-.1.03ZM11.13,6.27l4.83,2.79,4.83-2.79-4.83-2.79-4.83,2.79Z"></path><polygon class="cls-1" points="21.22 12.34 21.22 6.27 15.96 9.31 15.96 15.37 21.22 12.34"></polygon><path d="M15.96,15.58s-.07,0-.1-.03c-.06-.04-.1-.11-.1-.18v-6.06c0-.07.04-.14.1-.18l5.25-3.03c.06-.04.14-.04.21,0,.06.04.1.11.1.18v6.06c0,.07-.04.14-.1.18l-5.25,3.03s-.07.03-.1.03ZM16.17,9.43v5.58l4.83-2.79v-5.58l-4.83,2.79ZM21.22,12.34h0,0Z"></path></svg> 