<?xml version="1.0" encoding="UTF-8"?> <svg xmlns="http://www.w3.org/2000/svg" id="Layer_1" viewBox="0 0 40 44.29"><defs><style>.cls-1{fill:#5192ce;}.cls-2{fill:#2f74b6;}.cls-3{fill:#1f5b97;}</style></defs><path class="cls-3" d="M20,33.86l16.8,4.01V6.33l-16.8,4.01v23.53Z"></path><path class="cls-1" d="M36.8,6.33l3.2,1.6v28.34l-3.2,1.6V6.33h0ZM20,33.86l-16.8,4.01V6.33l16.8,4.01v23.53Z"></path><path class="cls-3" d="M3.2,6.33l-3.2,1.6v28.34l3.2,1.6V6.33h0Z"></path><path class="cls-1" d="M24.27,44.29l6.4-3.21V3.21l-6.4-3.21-1.96,21.03,1.96,23.26h0Z"></path><path class="cls-3" d="M15.73,44.29l-6.4-3.21V3.21L15.73,0l1.96,21.03-1.96,23.26h0Z"></path><path class="cls-2" d="M15.73,0h8.62v44.2h-8.62V0h0Z"></path></svg> 