<?xml version="1.0" encoding="UTF-8"?> <svg xmlns="http://www.w3.org/2000/svg" id="Layer_1" viewBox="0 0 37.12 45"><defs><style>.cls-1{fill:#e15543;}.cls-1,.cls-2,.cls-3{fill-rule:evenodd;}.cls-2{fill:#58170f;}.cls-3{fill:#7a1e16;}</style></defs><path class="cls-1" d="M33.94,7.78l-7.78,14.81,7.78,14.81,3.19-1.78V9.56l-3.19-1.78Z"></path><path class="cls-3" d="M33.94,7.78l-15.56,1.78-7.92,13.03,7.92,13.03,15.56,1.78V7.78Z"></path><path class="cls-2" d="M2.53,7.78l-2.53,1.12v27.38l2.53,1.12,15.84-14.81L2.53,7.78Z"></path><path class="cls-1" d="M2.5,7.75l15.9,4.42v21.25l-15.9,4V7.75Z"></path><path class="cls-2" d="M18.41,14.5l-6.75-1.08,6.75-7.67,6.73,7.67-6.73,1.08Z"></path><path class="cls-2" d="M25.14,13.42l-6.74,1.1-6.74-1.1v-7.67"></path><path class="cls-2" d="M18.41,30.58l-6.75,1.25,6.75,6.58,6.73-6.58-6.73-1.25Z"></path><path class="cls-3" d="M18.38,0l-6.75,3.56v9.84l6.77-1.91-.02-11.5Z"></path><path class="cls-3" d="M18.4,16.92l-6.74.73v9.83l6.74.77v-11.33Z"></path><path class="cls-3" d="M18.4,33.5l-6.74-1.69v9.66l6.74,3.53v-11.5Z"></path><path class="cls-1" d="M25.14,31.81l-6.74,1.69v11.5l6.74-3.53v-9.66Z"></path><path class="cls-1" d="M18.4,16.92l6.74.73v9.83l-6.74.77v-11.33Z"></path><path class="cls-1" d="M18.38,0l6.75,3.56v9.84l-6.75-1.88V0Z"></path></svg> 