<?xml version="1.0" encoding="UTF-8"?> <svg xmlns="http://www.w3.org/2000/svg" xmlns:xlink="http://www.w3.org/1999/xlink" id="Layer_1" viewBox="0 0 43.87 41.34"><defs><style>.cls-1{fill:url(#linear-gradient-3);}.cls-2{fill:url(#linear-gradient-2);}.cls-3{fill:url(#linear-gradient);}.cls-4{fill:#2e76bb;}</style><linearGradient id="linear-gradient" x1="19.36" y1="932.1" x2="5.88" y2="892.27" gradientTransform="translate(0 935.17) scale(1 -1)" gradientUnits="userSpaceOnUse"><stop offset="0" stop-color="#124b89"></stop><stop offset="1" stop-color="#1a6ab3"></stop></linearGradient><linearGradient id="linear-gradient-2" x1="23.57" y1="913.54" x2="20.45" y2="912.49" gradientTransform="translate(0 935.17) scale(1 -1)" gradientUnits="userSpaceOnUse"><stop offset="0" stop-color="#000" stop-opacity=".3"></stop><stop offset=".07" stop-color="#000" stop-opacity=".2"></stop><stop offset=".32" stop-color="#000" stop-opacity=".1"></stop><stop offset=".62" stop-color="#000" stop-opacity=".05"></stop><stop offset="1" stop-color="#000" stop-opacity="0"></stop></linearGradient><linearGradient id="linear-gradient-3" x1="21.95" y1="933.3" x2="36.75" y2="893.87" gradientTransform="translate(0 935.17) scale(1 -1)" gradientUnits="userSpaceOnUse"><stop offset="0" stop-color="#47c6ef"></stop><stop offset="1" stop-color="#3a8fcd"></stop></linearGradient></defs><path class="cls-3" d="M14.63,0h12.98l-13.48,39.93c-.14.41-.4.77-.75,1.02-.35.25-.77.39-1.21.39H2.07c-.33,0-.65-.08-.94-.23-.29-.15-.54-.37-.74-.63-.19-.27-.32-.57-.37-.9-.05-.32-.02-.66.09-.97L12.66,1.41c.14-.41.4-.77.75-1.02S14.19,0,14.63,0Z"></path><path class="cls-4" d="M33.49,26.78H12.9c-.19,0-.38.06-.54.17-.16.11-.28.26-.35.44-.07.18-.09.37-.04.56.04.19.14.36.28.49l13.23,12.35c.39.36.89.56,1.42.56h11.66l-5.07-14.56Z"></path><path class="cls-2" d="M14.63,0c-.44,0-.86.14-1.22.39-.35.26-.62.62-.75,1.04L.12,38.58c-.11.31-.15.65-.1.98.04.33.17.64.36.91.19.27.44.49.74.64.29.15.62.23.95.23h10.36c.39-.07.75-.24,1.05-.49.3-.25.52-.58.65-.95l2.5-7.37,8.93,8.33c.37.31.84.48,1.33.48h11.61l-5.09-14.56h-14.85S27.65,0,27.65,0h-13.03Z"></path><path class="cls-1" d="M31.21,1.41c-.14-.41-.4-.77-.75-1.02C30.1.14,29.68,0,29.25,0h-14.47c.43,0,.85.14,1.21.39.35.25.61.61.75,1.02l12.56,37.2c.1.31.13.64.09.97-.05.32-.17.63-.37.9s-.44.48-.74.63c-.29.15-.62.23-.94.23h14.47c.33,0,.65-.08.94-.23.29-.15.54-.37.74-.63.19-.27.32-.57.37-.9.05-.32.02-.66-.09-.97L31.21,1.41Z"></path></svg> 