<?xml version="1.0" encoding="UTF-8"?> <svg xmlns="http://www.w3.org/2000/svg" id="Layer_1" viewBox="0 0 52.24 41.08"><defs><style>.cls-1{fill:#73c41d;}</style></defs><g id="Page-1"><g id="Marketplace"><g id="Logo_BambooHR_Logo"><path id="BambooHR" class="cls-1" d="M38.15,12.64c7.55,0,14.09,6.5,14.09,14.01,0,8.14-6.26,14.44-14.56,14.44-7.51,0-14.05-5.24-14.05-13.69V0h4.34v16.75l.51-.55c1.92-1.84,4.62-3.56,9.66-3.56ZM37.72,37.13c6.18,0,10.09-4.34,10.09-10.09,0-5.28-3.72-10.33-9.98-10.33s-10.17,4.7-10.17,10.45c-.04,5.71,4.58,9.98,10.06,9.98ZM14.95,3.33c3.25,3.4,3.6,5.28,4.73,8.61l1.92,6.26s-1.92-.35-3.48-.59c-1.8-.27-2.62-.55-4.93-1.49-2.31-.94-4.38-3.21-6.42-5.75C4.77,7.86,0,3.87,0,3.87c0,0,1.49.08,2.97.47,1.21.31,4.42,1.33,7.71,3.01.74.39,1.13.63,1.84,1.06,1.1.67,2.23,1.68,3.33,2.78,1.29,1.29,2.43,2.35,3.4,3.52-1.06-1.92-3.8-8.84-9.12-14.56-.51-.59,3.68,2,4.81,3.17Z"></path></g></g></g></svg> 