<?xml version="1.0" encoding="UTF-8"?> <svg xmlns="http://www.w3.org/2000/svg" id="Layer_1" viewBox="0 0 59.98 13.29"><defs><style>.cls-1{fill-rule:evenodd;}</style></defs><path id="certinia-logo" class="cls-1" d="M4.91,12.79c-1.73,0-2.81-1.59-2.81-4.16s1.05-4.11,2.74-4.11c1.05,0,2.01.62,2.33,1.39-.19-.19-.45-.3-.75-.3-.64,0-1.09.47-1.09,1.07s.47,1.09,1.09,1.09c.68,0,1.16-.56,1.16-1.31,0-1.29-1.41-2.33-3.26-2.33C1.78,4.13,0,6.04,0,8.74s1.74,4.54,4.29,4.54c1.54,0,2.74-.68,3.51-1.97l-.24-.17c-.64,1.05-1.61,1.65-2.64,1.65M10.43,8.04c.07-2.16.94-3.6,2.06-3.6s1.73,1.46,1.67,3.6h-3.73ZM12.54,4.13c-2.49,0-4.18,1.86-4.18,4.56s1.78,4.59,4.31,4.59c1.52,0,2.72-.68,3.49-1.97l-.24-.17c-.64,1.05-1.61,1.65-2.68,1.65-1.73,0-2.81-1.54-2.81-4.43h5.76s0,0,.01-.01c.13-2.6-1.32-4.23-3.65-4.23h0ZM22.65,4.13c-1.18,0-2.1,1.09-2.55,2.96v-2.74h-3.39v.32h1.48v8.06h-1.48v.32h5.36v-.32h-1.97v-3.34c0-2.85,1.13-4.99,2.61-4.99.49,0,.84.23,1.01.58-.21-.17-.45-.28-.73-.28-.64,0-1.09.47-1.09,1.07s.47,1.09,1.09,1.09c.68,0,1.16-.56,1.16-1.31,0-.82-.62-1.43-1.5-1.43M28.84,12.77c-.62,0-.94-.49-.94-1.41v-6.69h2.06v-.32h-2.06V1.14c-.54.24-1.39.53-1.91.66v2.55h-1.39v.32h1.39v5.93c0,1.8.71,2.68,2.21,2.68.97,0,1.63-.38,2.16-1.24l-.24-.17c-.32.56-.79.9-1.28.9M33.17,2.44c.67,0,1.22-.54,1.22-1.22s-.54-1.22-1.22-1.22-1.22.54-1.22,1.22.54,1.22,1.22,1.22M35.68,1.41h10.14v-.37h-10.14v.37ZM49.3,4.35h-3.39v.32h1.48v8.06h-2.87v-5.33c0-2.18-.88-3.28-2.55-3.28-1.39,0-2.44.83-2.94,2.33v-2.1h-3.34v.32h1.44v8.06h-3V4.35h-3.39v.32h1.48v8.06h-1.48v.32h9.66v-.32h-1.35v-5.04c0-1.43,1.11-2.98,2.25-2.98.79,0,1.31.53,1.31,1.91v6.11h-1.33v.32h9.49v-.32h-1.46V4.35ZM48.34,2.44c.67,0,1.22-.54,1.22-1.22s-.54-1.22-1.22-1.22-1.22.54-1.22,1.22.54,1.22,1.22,1.22M56.55,10.93c0,.94-.98,1.84-2.01,1.84-.82,0-1.28-.58-1.28-1.67,0-1.5.86-2.27,3.28-2.94v2.78ZM59.74,12.02c-.21.45-.49.69-.81.69s-.51-.24-.51-.67v-4.43c0-2.21-1.29-3.49-3.54-3.49-1.78,0-2.98.82-2.98,2.1,0,.73.49,1.29,1.16,1.29.62,0,1.09-.49,1.09-1.09s-.45-1.07-1.09-1.07c-.32,0-.6.13-.81.36.26-.73,1.12-1.22,2.27-1.22,1.33,0,2.02.66,2.02,1.91v1.44c-3.77.79-5.21,1.73-5.21,3.36,0,1.31.94,2.08,2.49,2.08,1.29,0,2.31-.54,2.7-1.44.09.88.77,1.44,1.74,1.44.77,0,1.31-.36,1.71-1.14l-.24-.13Z"></path></svg> 