<?xml version="1.0" encoding="UTF-8"?> <svg xmlns="http://www.w3.org/2000/svg" xmlns:xlink="http://www.w3.org/1999/xlink" id="Layer_1" viewBox="0 0 34.77 32.34"><defs><style>.cls-1{fill:none;}.cls-2{fill:#185c37;}.cls-3{fill:#21a366;}.cls-4{fill:#33c481;}.cls-5{fill:#fff;}.cls-6{opacity:.2;}.cls-7{opacity:.09;}.cls-8,.cls-9{fill:#107c41;}.cls-9{fill-rule:evenodd;}</style></defs><image width="1101" height="1024" transform="translate(14.68 18.72) scale(0)"></image><path class="cls-3" d="M21.02,2.16h-10.67c-.73,0-1.33.6-1.33,1.33v5.67l12.01,7.01,6,2.53,6-2.53v-7.01l-12.01-7.01Z"></path><path class="cls-9" d="M9.01,9.16h12.01v7.01h-12.01v-7.01Z"></path><path class="cls-4" d="M31.69,2.16h-10.67v7.01h12.01V3.49c0-.73-.6-1.33-1.33-1.33h0Z"></path><path class="cls-2" d="M21.02,16.17h-12.01v12.68c0,.73.6,1.33,1.33,1.33h21.35c.73,0,1.33-.6,1.33-1.33v-5.67l-12.01-7.01Z"></path><path class="cls-9" d="M21.02,16.17h12.01v7.01h-12.01v-7.01Z"></path><path class="cls-7" d="M17.68,7.16h-8.67v19.01h8.67c.73,0,1.33-.6,1.33-1.33V8.5c0-.73-.6-1.33-1.33-1.33h0Z"></path><path class="cls-6" d="M16.68,8.16h-7.67v19.01h7.67c.73,0,1.33-.6,1.33-1.33V9.5c0-.73-.6-1.33-1.33-1.33h0Z"></path><path class="cls-6" d="M16.68,8.16h-7.67v17.01h7.67c.73,0,1.33-.6,1.33-1.33v-14.34c0-.73-.6-1.33-1.33-1.33h0Z"></path><path class="cls-6" d="M15.68,8.16h-6.67v17.01h6.67c.73,0,1.33-.6,1.33-1.33v-14.34c0-.73-.6-1.33-1.33-1.33h0Z"></path><path class="cls-8" d="M2.33,8.16h13.34c.73,0,1.33.6,1.33,1.33v13.34c0,.73-.6,1.33-1.33,1.33H2.33c-.73,0-1.33-.6-1.33-1.33v-13.34c0-.73.6-1.33,1.33-1.33h0Z"></path><path class="cls-5" d="M4.54,21.17l3.24-5.02-2.97-4.99h2.39l1.62,3.19c.15.3.25.53.31.68h.02c.11-.24.22-.48.34-.7l1.73-3.16h2.19l-3.04,4.96,3.12,5.05h-2.33l-1.87-3.5c-.09-.15-.16-.31-.22-.47h-.03c-.05.16-.13.31-.22.45l-1.93,3.52h-2.34Z"></path><path class="cls-1" d="M1,.16h32.02v32.02H1V.16Z"></path></svg> 