<?xml version="1.0" encoding="UTF-8"?> <svg xmlns="http://www.w3.org/2000/svg" id="Layer_1" viewBox="0 0 39.42 35.21"><defs><style>.cls-1{fill:#030403;}.cls-2{stroke:#030403;}.cls-2,.cls-3{fill:#fff;stroke-linecap:round;stroke-linejoin:round;}.cls-4{fill:#0684c7;}.cls-3{stroke:#0684c7;}</style></defs><path class="cls-4" d="M38.94,24.14v.09c-.15,2.7-2.02,5.37-5.58,7.43-7.49,4.32-19.68,4.3-27.22-.06C2.05,29.25.17,26.1.48,23.03l.02-1.59c.02.25.06.51.13.75.09.4.23.8.39,1.18.83,1.91,2.53,3.72,5.12,5.21,7.54,4.35,19.74,4.38,27.22.05,2.54-1.47,4.22-3.26,5.03-5.14.16-.38.29-.77.38-1.16.07-.3.13-.61.15-.9v1.89s0,.11,0,.11v.71Z"></path><path class="cls-1" d="M19.84,35.21c-5.01,0-10.04-1.11-13.87-3.32C1.94,29.56-.18,26.32.16,23l.02-1.56c0-.17.14-.31.31-.32h.01c.17,0,.31.13.32.3.02.22.06.46.12.69.08.36.21.74.37,1.14.83,1.9,2.55,3.65,4.98,5.05,7.45,4.29,19.51,4.32,26.9.05,2.4-1.39,4.09-3.12,4.89-4.98.15-.36.28-.73.36-1.1.07-.3.12-.59.15-.86.02-.17.17-.3.34-.3.17,0,.31.15.31.32l.02,2.7h0v.09c-.17,2.94-2.21,5.67-5.74,7.72-3.76,2.17-8.71,3.26-13.68,3.26ZM.77,23.63c-.02,2.88,1.96,5.65,5.52,7.7,7.44,4.3,19.51,4.33,26.9.06,3.34-1.93,5.27-4.48,5.42-7.17v-.42c-.88,1.93-2.64,3.7-5.09,5.12-7.57,4.37-19.92,4.34-27.55-.05-2.5-1.44-4.29-3.25-5.2-5.24Z"></path><path class="cls-2" d="M38.91,20.16s0-.03,0-.04c-.28-2.62-2.17-5.2-5.64-7.21-7.54-4.35-19.74-4.38-27.22-.05-3.35,1.94-5.19,4.41-5.53,6.95v1.63c0,.25.05.51.12.75.09.4.23.8.39,1.18.83,1.91,2.53,3.72,5.12,5.21,7.54,4.35,19.74,4.38,27.22.05,2.54-1.47,4.22-3.26,5.03-5.14.16-.38.29-.77.38-1.16.07-.3.13-.61.15-.9v-1.28ZM30.54,27.01c-5.94,3.43-15.61,3.41-21.6-.05-5.89-3.39-6.02-8.85-.38-12.29.1-.06.2-.13.3-.18,5.94-3.43,15.62-3.41,21.6.05.12.07.24.14.35.22,5.63,3.46,5.55,8.9-.27,12.26Z"></path><path class="cls-3" d="M30.81,14.75c-.12-.08-.24-.14-.35-.22-5.98-3.46-15.66-3.47-21.6-.05-.1.05-.2.12-.3.18-5.64,3.45-5.51,8.9.38,12.29,5.99,3.46,15.66,3.47,21.6.05,5.82-3.36,5.91-8.79.27-12.26ZM25.75,20.4c-.23-.36-.6-1.04-1.8-1.73-1.23-.71-2.3-.61-2.89-.26-.71.42-.48,1.01.42,2.22,1.24,1.56,1.18,2.61-.38,3.51-1.48.86-3.83,1.01-6.08.08l-1.8,1.03-1.45-.83,1.69-.98c-1.07-.66-1.86-1.48-2.08-2.09l2.12-.67c.29.62.9,1.4,1.98,2.03,1.1.64,2.41.76,3.25.28.79-.45.68-1.1-.15-2.13-1.18-1.46-1.55-2.62.08-3.56,1.5-.87,3.71-.92,5.8-.08l1.72-.99,1.44.83-1.62.94c1.07.66,1.56,1.25,1.85,1.73l-2.08.66Z"></path><path class="cls-1" d="M27.83,19.74l-2.08.66c-.23-.36-.6-1.04-1.8-1.73-1.23-.71-2.3-.61-2.89-.26-.71.42-.48,1.01.42,2.22,1.24,1.56,1.18,2.61-.38,3.51-1.48.86-3.83,1.01-6.08.08l-1.8,1.03-1.45-.83,1.69-.98c-1.07-.66-1.86-1.48-2.08-2.09l2.12-.67c.29.62.9,1.4,1.98,2.03,1.1.64,2.41.76,3.25.28.79-.45.68-1.1-.15-2.13-1.18-1.46-1.55-2.62.08-3.56,1.5-.87,3.71-.92,5.8-.08l1.72-.99,1.44.83-1.62.94c1.07.66,1.56,1.25,1.85,1.73Z"></path><path class="cls-1" d="M13.22,25.58c-.06,0-.11-.01-.16-.04l-1.45-.83c-.1-.06-.16-.17-.16-.28s.06-.22.16-.28l1.24-.72c-.89-.63-1.55-1.36-1.77-1.96-.03-.08-.02-.17.01-.25.04-.08.11-.14.19-.17l2.12-.67c.15-.05.32.03.39.17.19.41.69,1.21,1.85,1.88,1.01.59,2.19.7,2.92.28.32-.19.35-.35.36-.41.05-.26-.16-.68-.61-1.23-.87-1.06-1.19-1.86-1.06-2.57.11-.58.51-1.06,1.23-1.48,1.57-.91,3.83-.96,5.93-.16l1.58-.91c.1-.06.22-.06.32,0l1.44.83c.1.06.16.16.16.28s-.06.22-.16.28l-1.17.68c.69.48,1.19.99,1.51,1.55.05.09.06.19.02.28-.04.09-.11.16-.2.19l-2.08.66c-.14.04-.29-.01-.37-.14l-.04-.07c-.22-.35-.58-.94-1.64-1.55-1.11-.65-2.06-.56-2.57-.26-.2.12-.24.21-.25.27-.06.31.38.95.77,1.48.74.93,1.03,1.69.9,2.38-.12.61-.57,1.14-1.38,1.6-1.64.95-4.06,1.01-6.21.16l-1.66.95s-.11.04-.16.04ZM12.42,24.42l.8.46,1.64-.94c.09-.05.19-.06.28-.02,2.01.84,4.28.81,5.79-.06.64-.37.99-.75,1.06-1.16.09-.48-.16-1.09-.78-1.86-.65-.88-1-1.48-.89-2.01.06-.29.24-.51.56-.7.67-.39,1.87-.52,3.22.26,1.06.61,1.52,1.23,1.78,1.62l1.43-.45c-.34-.44-.84-.86-1.5-1.27-.1-.06-.16-.17-.15-.28s.06-.22.16-.28l1.14-.66-.79-.46-1.56.89c-.09.05-.19.06-.28.02-1.97-.79-4.08-.77-5.51.06-.55.32-.85.66-.92,1.04-.09.5.2,1.15.93,2.04.6.74.83,1.28.74,1.76-.06.34-.29.63-.68.85-.93.53-2.37.42-3.57-.28-1.11-.64-1.69-1.4-1.98-1.92l-1.49.47c.29.46.89,1.06,1.79,1.62.1.06.16.17.15.28s-.06.22-.16.28l-1.2.7Z"></path><path class="cls-4" d="M38.94,21.11v.09c-.15,2.7-2.02,5.37-5.58,7.43-7.49,4.32-19.68,4.3-27.22-.06C2.05,26.22.17,23.08.48,20l.02-1.59c.02.25.06.51.13.75.09.4.23.8.39,1.18.83,1.91,2.53,3.72,5.12,5.21,7.54,4.35,19.74,4.38,27.22.05,2.54-1.47,4.22-3.26,5.03-5.14.16-.38.29-.77.38-1.16.07-.3.13-.61.15-.9v1.89s0,.11,0,.11v.71Z"></path><path class="cls-1" d="M19.84,32.18c-5.01,0-10.04-1.11-13.87-3.32C1.94,26.53-.18,23.29.16,19.97l.02-1.56c0-.17.14-.31.31-.32h.01c.17,0,.31.13.32.3.02.22.06.46.12.69.08.36.21.74.37,1.14.83,1.9,2.55,3.65,4.98,5.05,7.45,4.3,19.51,4.32,26.9.06,2.4-1.39,4.09-3.12,4.89-4.98.15-.36.28-.73.36-1.1.07-.3.12-.59.15-.86.02-.17.17-.29.34-.3.17,0,.31.15.31.32l.02,2.7h0v.09c-.17,2.93-2.21,5.67-5.74,7.71-3.76,2.17-8.71,3.26-13.68,3.26ZM.77,20.6c-.02,2.88,1.96,5.65,5.52,7.7,7.44,4.3,19.51,4.33,26.9.06,3.34-1.93,5.27-4.48,5.42-7.17v-.42c-.88,1.93-2.64,3.7-5.09,5.12-7.57,4.37-19.92,4.34-27.55-.05-2.5-1.44-4.29-3.25-5.2-5.24Z"></path><path class="cls-2" d="M38.91,17.13s0-.03,0-.04c-.28-2.62-2.17-5.2-5.64-7.21-7.54-4.35-19.74-4.38-27.22-.05-3.35,1.94-5.19,4.41-5.53,6.95v1.63c0,.25.05.51.12.75.09.4.23.8.39,1.18.83,1.91,2.53,3.72,5.12,5.21,7.54,4.35,19.74,4.38,27.22.05,2.54-1.47,4.22-3.26,5.03-5.14.16-.38.29-.77.38-1.16.07-.3.13-.61.15-.9v-1.28ZM30.54,23.98c-5.94,3.43-15.61,3.41-21.6-.05-5.89-3.39-6.02-8.85-.38-12.29.1-.06.2-.13.3-.18,5.94-3.43,15.62-3.41,21.6.05.12.07.24.14.35.22,5.63,3.46,5.55,8.9-.27,12.26Z"></path><path class="cls-3" d="M30.81,11.72c-.12-.08-.24-.14-.35-.22-5.98-3.46-15.66-3.47-21.6-.05-.1.05-.2.12-.3.18-5.64,3.45-5.51,8.9.38,12.29,5.99,3.46,15.66,3.47,21.6.05,5.82-3.36,5.91-8.79.27-12.26ZM25.75,17.37c-.23-.36-.6-1.04-1.8-1.73-1.23-.71-2.3-.61-2.89-.26-.71.42-.48,1.01.42,2.22,1.24,1.56,1.18,2.61-.38,3.51-1.48.86-3.83,1.01-6.08.08l-1.8,1.03-1.45-.83,1.69-.98c-1.07-.66-1.86-1.48-2.08-2.09l2.12-.67c.29.62.9,1.4,1.98,2.03,1.1.64,2.41.76,3.25.28.79-.45.68-1.1-.15-2.13-1.18-1.46-1.55-2.62.08-3.56,1.5-.87,3.71-.92,5.8-.08l1.72-.99,1.44.83-1.62.94c1.07.66,1.56,1.25,1.85,1.73l-2.08.66Z"></path><path class="cls-1" d="M27.83,16.71l-2.08.66c-.23-.36-.6-1.04-1.8-1.73-1.23-.71-2.3-.61-2.89-.26-.71.42-.48,1.01.42,2.22,1.24,1.56,1.18,2.61-.38,3.51-1.48.86-3.83,1.01-6.08.08l-1.8,1.03-1.45-.83,1.69-.98c-1.07-.66-1.86-1.48-2.08-2.09l2.12-.67c.29.62.9,1.4,1.98,2.03,1.1.64,2.41.76,3.25.28.79-.45.68-1.1-.15-2.13-1.18-1.46-1.55-2.62.08-3.56,1.5-.87,3.71-.92,5.8-.08l1.72-.99,1.44.83-1.62.94c1.07.66,1.56,1.25,1.85,1.73Z"></path><path class="cls-1" d="M13.22,22.55c-.06,0-.11-.01-.16-.04l-1.45-.83c-.1-.06-.16-.17-.16-.28s.06-.22.16-.28l1.24-.72c-.89-.63-1.55-1.36-1.77-1.96-.03-.08-.02-.17.01-.25.04-.08.11-.14.19-.17l2.12-.67c.15-.05.32.03.39.17.19.41.69,1.21,1.85,1.88,1.01.59,2.18.7,2.92.28.32-.19.35-.35.36-.4.05-.26-.16-.68-.61-1.23-.87-1.06-1.19-1.86-1.06-2.57.11-.58.51-1.06,1.23-1.48,1.57-.91,3.83-.96,5.93-.16l1.58-.91c.1-.06.22-.06.32,0l1.44.83c.1.06.16.16.16.28s-.06.22-.16.28l-1.17.68c.69.49,1.19.99,1.51,1.55.05.08.06.19.02.28s-.11.16-.2.19l-2.08.66c-.14.04-.29-.01-.37-.14l-.04-.07c-.22-.35-.58-.94-1.64-1.55-1.11-.65-2.06-.56-2.57-.26-.2.12-.24.21-.25.27-.06.31.38.95.77,1.48.74.93,1.03,1.69.9,2.38-.12.61-.57,1.14-1.38,1.6-1.64.95-4.06,1.01-6.21.16l-1.66.95s-.11.04-.16.04ZM12.42,21.39l.8.46,1.64-.94c.09-.05.19-.06.29-.02,2.01.84,4.29.81,5.79-.06.64-.37.99-.75,1.06-1.16.09-.48-.16-1.09-.78-1.86-.65-.88-1-1.48-.89-2.01.06-.29.24-.51.56-.7.67-.39,1.87-.52,3.22.26,1.06.61,1.52,1.23,1.78,1.62l1.43-.45c-.34-.44-.84-.86-1.5-1.27-.1-.06-.16-.17-.15-.28,0-.11.06-.22.16-.28l1.14-.66-.79-.46-1.56.89c-.09.05-.19.06-.28.02-1.97-.79-4.08-.77-5.51.06-.55.32-.85.66-.92,1.04-.09.5.2,1.15.93,2.04.6.74.83,1.28.74,1.76-.06.34-.29.63-.68.85-.93.53-2.37.42-3.57-.28-1.11-.64-1.69-1.4-1.98-1.91l-1.49.47c.29.46.89,1.06,1.79,1.62.1.06.16.17.15.28s-.06.22-.16.28l-1.2.7Z"></path><path class="cls-4" d="M38.94,18.03v.09c-.15,2.7-2.02,5.37-5.58,7.43-7.49,4.32-19.68,4.3-27.22-.06C2.05,23.14.17,20,.48,16.92l.02-1.59c.02.25.06.51.13.75.09.4.23.8.39,1.18.83,1.91,2.53,3.72,5.12,5.21,7.54,4.35,19.74,4.38,27.22.05,2.54-1.47,4.22-3.26,5.03-5.14.16-.38.29-.77.38-1.16.07-.3.13-.61.15-.9v1.89s0,.11,0,.11v.71Z"></path><path class="cls-1" d="M19.84,29.1c-5.01,0-10.04-1.11-13.87-3.32C1.94,23.45-.18,20.21.16,16.89l.02-1.56c0-.17.14-.31.31-.32h.01c.17,0,.31.13.32.3.02.22.06.46.12.69.08.36.21.74.37,1.14.83,1.9,2.55,3.65,4.98,5.05,7.45,4.3,19.51,4.32,26.9.06,2.4-1.39,4.09-3.12,4.89-4.98.15-.36.28-.73.36-1.1.07-.3.12-.59.15-.86.02-.17.17-.3.34-.3.17,0,.31.15.31.32l.02,2.7h0v.09c-.17,2.93-2.21,5.67-5.74,7.71-3.76,2.17-8.71,3.26-13.68,3.26ZM.77,17.52c-.02,2.88,1.96,5.65,5.52,7.7,7.44,4.3,19.51,4.33,26.9.06,3.34-1.93,5.27-4.48,5.42-7.17v-.42c-.88,1.93-2.64,3.7-5.09,5.12-7.57,4.37-19.92,4.34-27.55-.05-2.5-1.44-4.29-3.25-5.2-5.24Z"></path><path class="cls-2" d="M38.91,14.05s0-.03,0-.04c-.28-2.62-2.17-5.2-5.64-7.21-7.54-4.35-19.74-4.38-27.22-.05C2.69,8.69.84,11.17.51,13.7v1.63c0,.25.05.51.12.75.09.4.23.8.39,1.18.83,1.91,2.53,3.72,5.12,5.21,7.54,4.35,19.74,4.38,27.22.05,2.54-1.47,4.22-3.26,5.03-5.14.16-.38.29-.77.38-1.16.07-.3.13-.61.15-.9v-1.28ZM30.54,20.9c-5.94,3.43-15.61,3.41-21.6-.05-5.89-3.39-6.02-8.85-.38-12.29.1-.06.2-.13.3-.18,5.94-3.43,15.62-3.41,21.6.05.12.07.24.14.35.22,5.63,3.46,5.55,8.9-.27,12.26Z"></path><path class="cls-3" d="M30.81,8.64c-.12-.08-.24-.14-.35-.22-5.98-3.46-15.66-3.47-21.6-.05-.1.05-.2.12-.3.18-5.64,3.45-5.51,8.9.38,12.29,5.99,3.46,15.66,3.47,21.6.05,5.82-3.36,5.91-8.79.27-12.26ZM25.75,14.29c-.23-.36-.6-1.04-1.8-1.73-1.23-.71-2.3-.61-2.89-.26-.71.42-.48,1.01.42,2.22,1.24,1.56,1.18,2.61-.38,3.51-1.48.86-3.83,1.01-6.08.08l-1.8,1.03-1.45-.83,1.69-.98c-1.07-.66-1.86-1.48-2.08-2.09l2.12-.67c.29.62.9,1.4,1.98,2.03,1.1.64,2.41.76,3.25.28.79-.45.68-1.1-.15-2.13-1.18-1.46-1.55-2.62.08-3.56,1.5-.87,3.71-.92,5.8-.08l1.72-.99,1.44.83-1.62.94c1.07.66,1.56,1.25,1.85,1.73l-2.08.66Z"></path><path class="cls-1" d="M27.83,13.63l-2.08.66c-.23-.36-.6-1.04-1.8-1.73-1.23-.71-2.3-.61-2.89-.26-.71.42-.48,1.01.42,2.22,1.24,1.56,1.18,2.61-.38,3.51-1.48.86-3.83,1.01-6.08.08l-1.8,1.03-1.45-.83,1.69-.98c-1.07-.66-1.86-1.48-2.08-2.09l2.12-.67c.29.62.9,1.4,1.98,2.03,1.1.64,2.41.76,3.25.28.79-.45.68-1.1-.15-2.13-1.18-1.46-1.55-2.62.08-3.56,1.5-.87,3.71-.92,5.8-.08l1.72-.99,1.44.83-1.62.94c1.07.66,1.56,1.25,1.85,1.73Z"></path><path class="cls-1" d="M13.22,19.47c-.06,0-.11-.01-.16-.04l-1.45-.83c-.1-.06-.16-.16-.16-.28s.06-.22.16-.28l1.24-.72c-.89-.63-1.55-1.36-1.77-1.96-.03-.08-.02-.17.01-.25.04-.08.11-.14.19-.17l2.12-.67c.15-.05.32.03.39.17.19.41.69,1.21,1.85,1.88,1.01.59,2.18.7,2.92.28.32-.19.35-.35.36-.41.05-.26-.16-.68-.61-1.23-.87-1.06-1.19-1.86-1.06-2.57.11-.58.51-1.06,1.23-1.48,1.57-.91,3.83-.96,5.93-.16l1.58-.91c.1-.06.22-.06.32,0l1.44.83c.1.06.16.16.16.28s-.06.22-.16.28l-1.17.68c.69.48,1.19.99,1.51,1.55.05.09.06.19.02.28-.04.09-.11.16-.2.19l-2.08.66c-.14.04-.29-.01-.37-.14l-.04-.07c-.22-.35-.58-.94-1.64-1.55-1.11-.65-2.06-.56-2.57-.26-.2.12-.24.21-.25.27-.06.31.38.95.77,1.48.74.93,1.03,1.69.9,2.38-.12.61-.57,1.14-1.38,1.6-1.64.95-4.06,1.01-6.21.16l-1.66.95s-.11.04-.16.04ZM12.42,18.31l.8.46,1.64-.94c.09-.05.19-.06.29-.02,2.01.84,4.28.81,5.79-.06.64-.37.99-.75,1.06-1.16.09-.48-.16-1.09-.78-1.86-.65-.88-1-1.48-.89-2.01.06-.29.24-.51.56-.7.67-.39,1.87-.52,3.22.26,1.06.61,1.52,1.23,1.78,1.62l1.43-.45c-.34-.44-.84-.86-1.5-1.27-.1-.06-.16-.17-.15-.28,0-.11.06-.22.16-.28l1.14-.66-.79-.46-1.56.89c-.09.05-.19.06-.28.02-1.97-.79-4.08-.77-5.51.06-.55.32-.85.66-.92,1.04-.09.5.2,1.15.93,2.04.6.74.83,1.28.74,1.76-.06.34-.29.63-.68.85-.93.53-2.37.42-3.57-.28-1.11-.64-1.69-1.4-1.98-1.91l-1.49.47c.29.46.89,1.06,1.79,1.62.1.06.16.17.15.28s-.06.22-.16.28l-1.2.7Z"></path><path class="cls-4" d="M38.94,15v.09c-.15,2.7-2.02,5.37-5.58,7.43-7.49,4.32-19.68,4.3-27.22-.06C2.05,20.11.17,16.97.48,13.89l.02-1.59c.02.25.06.51.13.75.09.4.23.8.39,1.18.83,1.91,2.53,3.72,5.12,5.21,7.54,4.35,19.74,4.38,27.22.05,2.54-1.47,4.22-3.26,5.03-5.14.16-.38.29-.77.38-1.16.07-.3.13-.61.15-.9v1.89s0,.11,0,.11v.71Z"></path><path class="cls-1" d="M19.84,26.07c-5.01,0-10.04-1.11-13.87-3.32C1.94,20.42-.18,17.18.16,13.86l.02-1.56c0-.17.14-.31.31-.32h.01c.17,0,.31.13.32.3.02.22.06.46.12.69.08.36.21.74.37,1.14.83,1.9,2.55,3.65,4.98,5.05,7.44,4.29,19.51,4.32,26.9.05,2.4-1.39,4.09-3.12,4.89-4.98.15-.36.28-.73.36-1.1.07-.3.12-.59.15-.86.02-.17.17-.31.34-.3.17,0,.31.15.31.32l.02,2.7h0v.09c-.17,2.94-2.21,5.67-5.74,7.72-3.76,2.17-8.71,3.26-13.68,3.26ZM.77,14.49c-.02,2.88,1.96,5.65,5.52,7.7,7.44,4.3,19.51,4.33,26.9.06,3.34-1.93,5.27-4.48,5.42-7.17v-.42c-.88,1.93-2.64,3.7-5.09,5.12-7.57,4.37-19.92,4.34-27.55-.05-2.5-1.44-4.29-3.25-5.2-5.24Z"></path><path class="cls-2" d="M38.91,11.02s0-.03,0-.04c-.28-2.62-2.17-5.2-5.64-7.21C25.72-.57,13.52-.6,6.04,3.73,2.69,5.66.84,8.14.51,10.67v1.63c0,.25.05.51.12.75.09.4.23.8.39,1.18.83,1.91,2.53,3.72,5.12,5.21,7.54,4.35,19.74,4.38,27.22.05,2.54-1.47,4.22-3.26,5.03-5.14.16-.38.29-.77.38-1.16.07-.3.13-.61.15-.9v-1.28ZM30.54,17.87c-5.94,3.43-15.61,3.41-21.6-.05-5.89-3.39-6.02-8.85-.38-12.29.1-.06.2-.13.3-.18,5.94-3.43,15.62-3.41,21.6.05.12.07.24.14.35.22,5.63,3.46,5.55,8.9-.27,12.26Z"></path><path class="cls-3" d="M30.81,5.62c-.12-.08-.24-.14-.35-.22-5.98-3.46-15.66-3.47-21.6-.05-.1.05-.2.12-.3.18-5.64,3.45-5.51,8.9.38,12.29,5.99,3.46,15.66,3.47,21.6.05,5.82-3.36,5.91-8.79.27-12.26ZM25.75,11.26c-.23-.36-.6-1.04-1.8-1.73-1.23-.71-2.3-.61-2.89-.26-.71.42-.48,1.01.42,2.22,1.24,1.56,1.18,2.61-.38,3.51-1.48.86-3.83,1.01-6.08.08l-1.8,1.03-1.45-.83,1.69-.98c-1.07-.66-1.86-1.48-2.08-2.09l2.12-.67c.29.62.9,1.4,1.98,2.03,1.1.64,2.41.76,3.25.28.79-.45.68-1.1-.15-2.13-1.18-1.46-1.55-2.62.08-3.56,1.5-.87,3.71-.92,5.8-.08l1.72-.99,1.44.83-1.62.94c1.07.66,1.56,1.25,1.85,1.73l-2.08.66Z"></path><path class="cls-1" d="M27.83,10.6l-2.08.66c-.23-.36-.6-1.04-1.8-1.73-1.23-.71-2.3-.61-2.89-.26-.71.42-.48,1.01.42,2.22,1.24,1.56,1.18,2.61-.38,3.51-1.48.86-3.83,1.01-6.08.08l-1.8,1.03-1.45-.83,1.69-.98c-1.07-.66-1.86-1.48-2.08-2.09l2.12-.67c.29.62.9,1.4,1.98,2.03,1.1.64,2.41.76,3.25.28.79-.45.68-1.1-.15-2.13-1.18-1.46-1.55-2.62.08-3.56,1.5-.87,3.71-.92,5.8-.08l1.72-.99,1.44.83-1.62.94c1.07.66,1.56,1.25,1.85,1.73Z"></path><path class="cls-1" d="M13.22,16.44c-.06,0-.11-.01-.16-.04l-1.45-.83c-.1-.06-.16-.17-.16-.28s.06-.22.16-.28l1.24-.72c-.89-.63-1.55-1.36-1.77-1.96-.03-.08-.02-.17.01-.25.04-.08.11-.14.19-.17l2.12-.67c.15-.05.32.03.39.17.19.41.69,1.21,1.85,1.88,1.01.59,2.18.7,2.92.28.32-.19.35-.35.36-.4.05-.26-.16-.68-.61-1.23-.87-1.06-1.19-1.86-1.06-2.57.11-.58.51-1.06,1.23-1.48,1.57-.91,3.83-.96,5.93-.16l1.58-.91c.1-.06.22-.06.32,0l1.44.83c.1.06.16.16.16.28s-.06.22-.16.28l-1.17.68c.69.49,1.19.99,1.51,1.55.05.09.06.19.02.28-.04.09-.11.16-.2.19l-2.08.66c-.14.04-.29-.01-.37-.14l-.04-.07c-.22-.35-.58-.94-1.64-1.55-1.11-.65-2.06-.56-2.57-.26-.2.12-.24.21-.25.27-.06.31.38.95.77,1.48.74.93,1.03,1.69.9,2.38-.12.61-.57,1.14-1.38,1.6-1.64.95-4.06,1.01-6.21.16l-1.66.95s-.11.04-.16.04ZM12.42,15.28l.8.46,1.64-.94c.09-.05.19-.06.28-.02,2.01.84,4.28.81,5.79-.06.64-.37.99-.75,1.06-1.16.09-.48-.16-1.09-.78-1.86-.65-.88-1-1.48-.89-2.01.06-.29.24-.51.56-.7.67-.39,1.87-.52,3.22.26,1.06.61,1.52,1.22,1.78,1.62l1.43-.45c-.34-.44-.84-.86-1.5-1.27-.1-.06-.16-.17-.15-.28,0-.11.06-.22.16-.28l1.14-.66-.79-.46-1.56.89c-.09.05-.19.06-.28.02-1.97-.79-4.08-.77-5.51.06-.55.32-.85.66-.92,1.04-.09.5.2,1.15.93,2.04.6.74.83,1.28.74,1.76-.06.34-.29.63-.68.85-.93.53-2.37.42-3.57-.28-1.11-.64-1.69-1.4-1.98-1.91l-1.49.47c.29.46.89,1.06,1.79,1.62.1.06.16.17.15.28s-.06.22-.16.28l-1.2.7Z"></path></svg> 