<?xml version="1.0" encoding="UTF-8"?> <svg xmlns="http://www.w3.org/2000/svg" id="Layer_1" viewBox="0 0 30 41.24"><defs><style>.cls-1{fill:#fff;}.cls-1,.cls-2,.cls-3{fill-rule:evenodd;}.cls-2{fill:#1a8040;}.cls-3{fill:#34a751;}</style></defs><path class="cls-2" d="M19.69,0l10.31,10.31-5.15.94-5.15-.94-.94-5.15.94-5.15Z"></path><path class="cls-3" d="M19.69,10.31V0H2.81C1.26,0,0,1.26,0,2.81v35.62c0,1.55,1.26,2.81,2.82,2.81h24.36c1.56,0,2.82-1.26,2.82-2.81V10.31h-10.31Z"></path><path class="cls-1" d="M5.63,15.93v13.6h18.74v-13.6H5.63ZM13.83,27.18h-5.85v-3.27h5.85v3.27ZM13.83,21.56h-5.85v-3.29h5.85v3.29ZM22.02,27.18h-5.85v-3.27h5.85v3.27ZM22.02,21.56h-5.85v-3.29h5.85v3.29Z"></path></svg> 