<?xml version="1.0" encoding="UTF-8"?> <svg xmlns="http://www.w3.org/2000/svg" xmlns:xlink="http://www.w3.org/1999/xlink" id="Layer_1" viewBox="0 0 46.81 41.92"><defs><style>.cls-1{isolation:isolate;opacity:.07;}.cls-2{fill:url(#linear-gradient);}.cls-3{fill:#fff;}</style><linearGradient id="linear-gradient" x1="23.4" y1="935.75" x2="23.4" y2="894.15" gradientTransform="translate(0 935.75) scale(1 -1)" gradientUnits="userSpaceOnUse"><stop offset="0" stop-color="#567ebe"></stop><stop offset="1" stop-color="#547dbe"></stop></linearGradient></defs><path class="cls-2" d="M10.16,39.56L.56,22.93c-.37-.64-.56-1.36-.56-2.1s.19-1.46.56-2.1L10.16,2.1c.37-.64.9-1.17,1.54-1.54C12.34.19,13.07,0,13.8,0h19.2c.74,0,1.46.19,2.1.56.64.37,1.17.9,1.54,1.54l9.6,16.63c.37.64.56,1.36.56,2.1s-.19,1.46-.56,2.1l-9.6,16.63c-.37.64-.9,1.17-1.54,1.54-.64.37-1.36.56-2.1.56H13.8c-.74,0-1.46-.19-2.1-.56-.64-.37-1.17-.9-1.54-1.54h0Z"></path><path class="cls-1" d="M43.6,29.05l-14.12-14.12-6.08-1.63-5.46,2.03-2.11,5.49,1.7,6.12,14.97,14.97,3.18-.14,7.92-12.73Z"></path><path class="cls-3" d="M23.4,12.35c-4.68,0-8.48,3.8-8.48,8.48s3.8,8.48,8.48,8.48,8.48-3.8,8.48-8.48-3.8-8.48-8.48-8.48ZM23.4,27.27c-3.55,0-6.44-2.88-6.44-6.44s2.88-6.44,6.44-6.44,6.44,2.88,6.44,6.44-2.88,6.44-6.44,6.44"></path><path class="cls-3" d="M19.38,20.5v2.64c.39.67.94,1.23,1.6,1.64v-4.27h-1.6ZM22.55,18.28v7.1c.27.05.55.08.84.08.26,0,.52-.03.77-.07v-7.11h-1.6ZM25.88,21.6v3.13c.67-.43,1.22-1.02,1.6-1.72v-1.41h-1.6ZM29.51,26.06l-.88.88c-.07.07-.12.18-.12.28s.04.21.12.28l3.33,3.33c.07.07.18.12.28.12s.21-.04.28-.12l.88-.88c.07-.07.12-.18.12-.28s-.04-.21-.12-.28l-3.33-3.33c-.07-.07-.18-.12-.28-.12s-.21.04-.28.12Z"></path></svg> 