<?xml version="1.0" encoding="UTF-8"?> <svg xmlns="http://www.w3.org/2000/svg" xmlns:xlink="http://www.w3.org/1999/xlink" id="Layer_1" viewBox="0 0 45 40.39"><defs><style>.cls-1{fill:url(#linear-gradient);}.cls-2{fill:#fff;}.cls-3{opacity:.07;}</style><linearGradient id="linear-gradient" x1="22.5" y1="-475.22" x2="22.5" y2="-515.21" gradientTransform="translate(0 -475.22) scale(1 -1)" gradientUnits="userSpaceOnUse"><stop offset="0" stop-color="#567ebe"></stop><stop offset="1" stop-color="#547dbe"></stop></linearGradient></defs><path class="cls-1" d="M9.77,38.04L.54,22.05c-.72-1.25-.72-2.79,0-4.04L9.77,2.02c.72-1.25,2.05-2.02,3.5-2.02h18.47c1.45,0,2.78.78,3.5,2.02l9.23,15.99c.72,1.25.72,2.79,0,4.04l-9.23,15.99c-.72,1.25-2.05,2.02-3.5,2.02H13.27c-1.45,0-2.78-.78-3.5-2.02Z"></path><g class="cls-3"><path d="M41.81,27.06l-11.76-11.76-12.72,1.16-2.48,2.46,2.1,2.09-2.08,3.68,15.69,15.69h3.81l7.42-13.33Z"></path></g><path class="cls-2" d="M29.77,15.2h-14.56c-.24,0-.42.19-.42.42v3.01c0,.24.19.42.42.42h14.56c.24,0,.42-.19.42-.42v-3.01c.01-.23-.18-.42-.42-.42ZM27.52,18c-.48,0-.87-.39-.87-.87s.39-.87.87-.87.87.39.87.87-.39.87-.87.87Z"></path><path class="cls-2" d="M29.77,20.99h-14.56c-.24,0-.42.19-.42.42v3.01c0,.24.19.42.42.42h14.56c.24,0,.42-.19.42-.42v-3.01c.01-.24-.18-.42-.42-.42ZM27.52,23.79c-.48,0-.87-.39-.87-.87s.39-.87.87-.87.87.39.87.87-.39.87-.87.87Z"></path></svg> 