<?xml version="1.0" encoding="UTF-8"?> <svg xmlns="http://www.w3.org/2000/svg" id="Layer_1" viewBox="0 0 39.88 34.06"><defs><style>.cls-1{fill:#0362ff;}.cls-2{fill:#24d4d1;}</style></defs><path class="cls-1" d="M38.46,18.44c-.48,0-.96-.25-1.22-.69L28.39,2.84H10.85c-.78,0-1.42-.63-1.42-1.42s.63-1.42,1.42-1.42h18.34c.5,0,.96.26,1.22.69l9.27,15.6c.4.67.18,1.54-.5,1.94-.23.13-.48.2-.72.2Z"></path><path class="cls-1" d="M29.19,34.06H10.85c-.78,0-1.42-.63-1.42-1.42s.63-1.42,1.42-1.42h17.54l8.85-14.91c.4-.67,1.27-.9,1.94-.5.67.4.9,1.27.5,1.94l-9.27,15.6c-.26.43-.72.69-1.22.69Z"></path><path class="cls-1" d="M19.35,18.42h-11.05c-.78,0-1.42-.63-1.42-1.42s.63-1.42,1.42-1.42h11.05c.78,0,1.42.63,1.42,1.42s-.63,1.42-1.42,1.42Z"></path><path class="cls-2" d="M23.94,10.68h-11.05c-.78,0-1.42-.63-1.42-1.42s.63-1.42,1.42-1.42h11.05c.78,0,1.42.63,1.42,1.42s-.63,1.42-1.42,1.42Z"></path><path class="cls-2" d="M23.94,26.61h-11.05c-.78,0-1.42-.63-1.42-1.42s.63-1.42,1.42-1.42h11.05c.78,0,1.42.63,1.42,1.42s-.63,1.42-1.42,1.42Z"></path><circle class="cls-2" cx="6.13" cy="9.14" r="1.51"></circle><circle class="cls-1" cx="1.51" cy="17" r="1.51"></circle><circle class="cls-2" cx="6.13" cy="24.93" r="1.51"></circle></svg> 