<?xml version="1.0" encoding="UTF-8"?> <svg xmlns="http://www.w3.org/2000/svg" id="Layer_1" viewBox="0 0 31.79 45.37"><defs><style>.cls-1{fill:#231f20;}.cls-2{fill:#fff;}.cls-3{fill:#0684c7;}</style></defs><path class="cls-2" d="M31.57,4.14v15.08c0,1.69-1.03,3.65-2.3,4.39l-17.7,10.21-6.9,11.32,2.89-9-1.71.98c-.35.2-.68.29-.96.27-.2,0-.39-.06-.56-.16l-.07-.04c-.3-.22-.53-.6-.64-1.12-.04-.2-.06-.43-.06-.68v-15.08c0-1.69,1.02-3.65,2.29-4.38L26.46,4.04l1.76-1.02,1.05-.6c.5-.29.96-.35,1.34-.19h0c.57.23.95.91.95,1.92Z"></path><path class="cls-1" d="M4.67,45.37s-.06,0-.09-.02c-.1-.05-.15-.16-.12-.26l2.72-8.47-1.22.7c-.38.22-.76.32-1.09.3-.22,0-.44-.07-.65-.19l-.07-.04c-.37-.27-.62-.7-.74-1.26-.04-.22-.06-.46-.06-.72v-15.08c0-1.76,1.08-3.81,2.4-4.57L29.17,2.23c.55-.32,1.08-.39,1.53-.21.7.27,1.09,1.05,1.09,2.13v15.08c0,1.75-1.08,3.8-2.4,4.57l-17.65,10.19-6.88,11.28c-.04.07-.11.1-.19.1ZM7.56,35.93s.1.02.14.05c.07.06.1.15.07.24l-2.33,7.26,5.95-9.76s.05-.06.08-.07l17.7-10.21c1.21-.7,2.19-2.58,2.19-4.2V4.14c0-.88-.3-1.52-.81-1.72-.34-.14-.73-.07-1.16.18l-2.82,1.62L5.96,16.12c-1.2.69-2.18,2.58-2.18,4.19v15.08c0,.24.02.44.05.64.09.45.28.79.55.98l.06.03c.14.08.29.13.45.13.25.02.54-.06.85-.24l1.71-.98s.07-.03.11-.03Z"></path><path class="cls-3" d="M7.56,36.15l-2.89,9-3.34-1.92,2.09-6.52.84.49.07.04c.16.1.35.16.55.16.29.02.62-.07.97-.27l1.71-.98Z"></path><path class="cls-1" d="M4.67,45.36s-.08,0-.11-.03l-3.34-1.92c-.09-.05-.13-.16-.1-.26l2.09-6.52c.02-.06.07-.11.13-.14.06-.02.13-.02.19.02l.91.53c.14.09.29.13.45.13.26.02.55-.06.85-.24l1.71-.98c.08-.04.18-.04.25.02s.1.15.07.24l-2.89,9c-.02.06-.07.11-.13.14-.03.01-.05.01-.08.01ZM1.59,43.13l2.95,1.7,2.63-8.21-1.22.7c-.38.22-.76.32-1.09.3-.23,0-.45-.07-.65-.19l-.67-.39-1.95,6.1Z"></path><path class="cls-3" d="M30.61,2.22c-.38-.15-.84-.09-1.34.19l-1.05.61-1.76,1.02L5.85,15.94c-1.27.73-2.29,2.69-2.29,4.38v15.08c0,.25.02.47.06.68.11.52.33.89.64,1.12l-.84-.49-2.24-1.29c-.58-.21-.97-.9-.97-1.93v-15.08c0-1.69,1.03-3.65,2.29-4.38L25.93.49c.62-.36,1.18-.35,1.59-.06h0l3.08,1.78Z"></path><path class="cls-1" d="M4.26,37.41s-.08,0-.11-.03l-3.07-1.78c-.66-.23-1.08-1.03-1.08-2.12v-15.08c0-1.75,1.08-3.8,2.4-4.57L25.82.3c.66-.38,1.3-.41,1.8-.07,0,0,.01,0,.02,0l3.08,1.78c.1.06.14.18.09.28-.05.1-.17.15-.28.11-.33-.13-.73-.07-1.15.18l-2.81,1.63L5.96,16.13c-1.2.69-2.18,2.57-2.18,4.19v15.08c0,.23.02.44.06.63.09.45.28.79.55.98.09.07.12.2.05.3-.04.06-.11.1-.18.1ZM26.84.44c-.24,0-.51.08-.8.25L2.62,14.21c-1.2.7-2.18,2.58-2.18,4.19v15.08c0,.89.31,1.54.82,1.73l2.26,1.3c-.04-.12-.08-.25-.11-.39-.04-.22-.07-.46-.07-.72v-15.08c0-1.75,1.08-3.8,2.4-4.57L29.17,2.22c.2-.12.4-.2.59-.25l-2.32-1.34s-.03-.01-.04-.02c-.17-.12-.36-.18-.56-.18Z"></path></svg> 