<?xml version="1.0" encoding="UTF-8"?> <svg xmlns="http://www.w3.org/2000/svg" id="Layer_1" viewBox="0 0 42.42 30.97"><defs><style>.cls-1{fill:#fff;}.cls-2{fill:#45b878;}</style></defs><path class="cls-2" d="M5.88,27.69s-.09-.01-.13-.04c-.09-.07-.1-.2-.03-.29.01-.02.03-.04.04-.06l.14-.21s.01-.02.02-.03c.03-.05.07-.1.1-.15l.03-.05c.72-1.17,1.31-2.42,1.77-3.71.11-.29.2-.59.29-.89l.1-.36c.21-.75.43-1.52.88-2.18.51-.75,1.48-1.41,2.48-1.19.43.1.79.34,1.12.58.07.05.14.1.21.15.09.07.18.13.27.19.33.23.96.57,1.47.33.27-.12.47-.39.64-.66,1-1.55,1.52-3.39,2.02-5.16.18-.65.37-1.33.59-1.98.08-.24.15-.53.23-.85.08-.33.18-.7.29-1.07,0,0,0-.01,0-.02.3-.98.83-2.32,1.99-2.62,1.59-.42,2.15,1.15,2.6,2.41l.07.2c.13.37.28.75.45,1.01.14.22.3.44.51.56.45.26,1.06.04,1.43-.32.35-.35.58-.83.8-1.29l.15-.3c.43-.89.88-1.82,1.39-2.7.21-.36.42-.73.76-1.02.31-.26.64-.4.97-.43.61-.05,1.26.29,1.86.99.23.27.45.54.67.81.73.89,1.49,1.81,2.4,2.5.21.16.43.31.65.44l.04.02s.07.04.1.05c.1.04.15.17.11.27s-.16.15-.27.11c-.05-.02-.09-.05-.14-.07l-.04-.02c-.24-.14-.48-.3-.7-.47-.96-.73-1.73-1.66-2.47-2.57-.22-.27-.44-.54-.67-.8-.35-.41-.9-.89-1.51-.84-.24.02-.49.14-.74.34-.28.23-.47.57-.66.9-.5.88-.93,1.76-1.38,2.69l-.14.3c-.24.5-.48,1.01-.88,1.41-.48.47-1.3.75-1.93.38-.28-.17-.48-.43-.65-.69-.18-.28-.33-.64-.5-1.09l-.07-.21c-.52-1.45-.97-2.45-2.11-2.15-.95.24-1.42,1.44-1.69,2.33,0,0,0,.01,0,.02-.11.36-.21.72-.29,1.06-.08.32-.16.62-.24.87-.21.65-.4,1.32-.58,1.97-.51,1.8-1.03,3.67-2.07,5.27-.2.31-.45.65-.82.81-.66.31-1.39-.03-1.88-.37-.1-.06-.19-.13-.28-.2-.07-.05-.13-.1-.2-.15-.34-.26-.64-.44-.97-.52-.81-.18-1.62.38-2.05,1.02-.41.6-.62,1.34-.83,2.06l-.11.37c-.09.31-.19.61-.3.91-.46,1.32-1.07,2.59-1.81,3.79l-.03.05s-.06.09-.09.14c0,0,0,.01-.01.02l-.12.19-.2-.07.17.11s-.04.06-.06.09c-.04.05-.1.08-.16.08Z"></path><path class="cls-2" d="M3.34,29.16s-.07,0-.1-.03c-.1-.06-.13-.18-.07-.28l.17-.29s0-.01.01-.02c.52-.89.95-1.83,1.28-2.78l.1-.3c.18-.54.37-1.1.71-1.59.37-.54,1.06-1.09,1.86-1.02.24.02.48.08.76.19.2.08.4.17.61.26.41.19.83.38,1.28.43.78.09,1.36-.54,1.77-1.91.26-.86.46-1.77.63-2.57l.13-.6c.06-.29.12-.57.19-.85.19-.83.36-1.7.53-2.53.42-2.04.85-4.16,1.52-6.13.36-1.03.87-1.61,1.52-1.71.86-.14,1.64.52,2.24,1.91l.09.2c.07.17.15.34.22.51,0,0,0,.01,0,.02l.04.08c.52,1.21,1.01,2.36,1.74,3.45.22.33.5.5.74.52.26,0,.45-.24.56-.43.16-.29.23-.64.3-.95.17-.84.34-1.71.5-2.65.26-1.51.5-3.05.74-4.54l.22-1.42c.2-1.28.57-3.67,2.12-4.08,1.82-.49,2.81,2.34,3.23,3.55l.03.1c.19.54.44,1.26.72,1.99.7,1.83,1.73,4.14,3.45,5.77.04.04.08.08.12.11.08.08.09.21.01.29-.08.08-.21.09-.29.01-.04-.04-.08-.08-.13-.12-1.77-1.68-2.82-4.05-3.54-5.92-.28-.74-.53-1.46-.72-2l-.03-.1c-.38-1.1-1.27-3.68-2.73-3.29-1.3.34-1.64,2.56-1.82,3.74l-.22,1.42c-.23,1.49-.47,3.04-.74,4.55-.16.94-.33,1.81-.5,2.66-.07.34-.15.73-.34,1.07-.3.51-.65.63-.9.63-.4.01-.79-.24-1.09-.7-.75-1.13-1.25-2.29-1.78-3.52l-.04-.1s0-.02,0-.03c-.07-.16-.14-.32-.21-.49l-.09-.2c-.36-.84-.97-1.8-1.8-1.67-.5.08-.9.57-1.2,1.44-.67,1.95-1.1,4.05-1.51,6.08-.17.84-.35,1.7-.54,2.54-.06.28-.12.56-.19.85l-.13.6c-.17.8-.38,1.73-.64,2.6-.47,1.57-1.21,2.31-2.21,2.2-.51-.06-.97-.26-1.41-.46-.19-.09-.39-.18-.58-.25-.25-.09-.46-.14-.65-.16-.62-.05-1.18.4-1.49.85-.31.44-.48.95-.66,1.49l-.11.31c-.34.98-.78,1.94-1.32,2.87,0,0,0,.01-.01.02l-.16.28c-.04.07-.11.1-.18.1Z"></path><path class="cls-2" d="M13.3,28.42c-.26,0-.52-.02-.81-.06-.49-.07-1.02-.2-1.62-.4-.18-.06-.36-.13-.54-.19-.57-.2-1.16-.42-1.76-.5-.21-.03-.39-.04-.55-.04-.35-.01-.72.03-1.1.11-.23.05-.44.1-.64.17l-.11-.18-.06-.2c.25-.08.48-.15.73-.2.41-.08.81-.13,1.19-.12h0c.18,0,.37.01.6.04.64.09,1.25.31,1.85.52.18.06.36.13.54.19.57.19,1.08.32,1.55.39.37.06.71.07,1.04.05.81-.05,1.58-.46,2.29-1.22.67-.72,1.21-1.64,1.6-2.37l.11-.21c.2-.39.41-.79.72-1.12.35-.37.95-.71,1.56-.56.27.07.52.22.8.47.31.28.61.62.92,1.07.18.26.36.52.53.79.38.59.78,1.2,1.28,1.68.4.38.79.58,1.16.6.43.03.92-.2,1.28-.62.34-.39.55-.88.76-1.39.24-.57.45-1.2.65-1.93.21-.78.39-1.57.56-2.34.18-.82.37-1.67.6-2.5.11-.39.23-.84.49-1.22.35-.52.95-.87,1.58-.92.52-.04.95.11,1.33.24l.18.06c.54.18.97.26,1.61-.36.45-.43.7-1.03.91-1.61.18-.48.35-.96.52-1.44.3-.84.61-1.7.96-2.53.09-.2.18-.41.28-.61.05-.1.1-.21.15-.31.05-.1.18-.15.28-.1.1.05.15.17.1.27h0c-.05.11-.1.21-.15.31-.09.2-.18.4-.27.6-.35.81-.66,1.67-.95,2.5-.17.49-.35.97-.53,1.45-.22.59-.51,1.27-1.01,1.76-.8.77-1.44.65-2.02.45l-.19-.06c-.36-.12-.72-.25-1.16-.22-.51.04-.99.32-1.28.75-.22.32-.33.72-.44,1.1-.23.82-.42,1.66-.59,2.48-.17.78-.35,1.58-.56,2.36-.21.75-.42,1.39-.67,1.98-.21.52-.45,1.07-.83,1.51-.45.51-1.05.79-1.62.76-.47-.03-.95-.27-1.42-.72-.54-.51-.95-1.14-1.35-1.75-.17-.26-.34-.52-.52-.78-.3-.42-.57-.74-.86-1-.23-.21-.42-.33-.62-.38-.44-.11-.89.16-1.17.44-.27.29-.47.66-.66,1.03l-.11.21c-.4.75-.96,1.7-1.66,2.46-.78.84-1.65,1.3-2.56,1.35-.11,0-.22.01-.32.01Z"></path><path class="cls-2" d="M10.72,30.41c-.47,0-.94-.22-1.28-.56-.42-.42-.67-.96-.91-1.49l-.1-.21c-.14-.3-.32-.68-.58-1-.14-.17-.3-.32-.47-.42-.1-.06-.13-.19-.07-.28.06-.1.19-.13.28-.07.21.13.4.3.57.51.29.35.49.77.63,1.09l.1.21c.22.49.45,1,.82,1.37.43.42,1.13.63,1.63.2.55-.46.8-1.13.96-1.67.08-.26.14-.53.2-.8.04-.18.08-.35.13-.52.14-.56.48-1.86,1.63-1.86.02,0,.05,0,.07,0,.98.04,1.5.99,1.87,1.92.08.21.16.42.24.63.18.49.35.96.55,1.25.28.41.72.7,1.18.77.38.06.75-.03,1.06-.27.76-.58,1.08-1.69,1.33-2.69.19-.79.41-1.6.64-2.41.13-.44.26-.88.4-1.33.21-.68.49-1.44,1.16-1.79,1.02-.55,2.19.23,2.65.58l.27.21c.53.42,1.19.95,1.85,1.25.4.18.75.26,1.06.24,1.2-.06,1.84-1.98,2.08-2.7.43-1.31.79-2.64,1.06-3.95.11-.55.21-1.1.3-1.64l.06-.37c.12-.79.24-1.61.51-2.39.06-.16.13-.34.22-.53.05-.1.17-.14.28-.09.1.05.14.17.09.28-.08.17-.15.34-.2.48-.26.74-.38,1.54-.49,2.31l-.06.37c-.09.55-.19,1.1-.3,1.66-.27,1.33-.63,2.67-1.07,4-.29.87-.97,2.9-2.45,2.98-.39.02-.79-.07-1.25-.28-.71-.33-1.39-.87-1.93-1.3l-.27-.21c-.39-.31-1.39-.98-2.2-.55-.53.28-.76.92-.96,1.55-.14.44-.27.88-.39,1.32-.23.8-.45,1.61-.64,2.39-.26,1.06-.62,2.25-1.48,2.92-.4.31-.88.43-1.38.35-.57-.09-1.1-.43-1.45-.94-.23-.33-.41-.82-.6-1.34-.08-.2-.15-.41-.23-.62-.34-.84-.76-1.63-1.51-1.66-.77-.04-1.08.76-1.28,1.55-.04.17-.08.34-.13.52-.06.27-.13.55-.21.82-.17.59-.45,1.34-1.09,1.87-.28.23-.59.33-.91.33Z"></path><path d="M6.21,29.12c-.11,0-.21-.09-.21-.21v-3.34c0-.11.09-.21.21-.21s.21.09.21.21v3.34c0,.11-.09.21-.21.21Z"></path><path d="M12.21,25.65c-.11,0-.21-.09-.21-.21v-3.34c0-.11.09-.21.21-.21s.21.09.21.21v3.34c0,.11-.09.21-.21.21Z"></path><path d="M18.21,22.19c-.11,0-.21-.09-.21-.21v-3.34c0-.11.09-.21.21-.21s.21.09.21.21v3.34c0,.11-.09.21-.21.21Z"></path><path d="M24.21,18.72c-.11,0-.21-.09-.21-.21v-3.34c0-.11.09-.21.21-.21s.21.09.21.21v3.34c0,.11-.09.21-.21.21Z"></path><path d="M30.21,15.26c-.11,0-.21-.09-.21-.21v-3.34c0-.11.09-.21.21-.21s.21.09.21.21v3.34c0,.11-.09.21-.21.21Z"></path><path d="M.21,30.97c-.07,0-.14-.04-.18-.1-.06-.1-.02-.22.08-.28L42.11,6.32c.1-.06.22-.02.28.08.06.1.02.22-.08.28L.31,30.95s-.07.03-.1.03Z"></path><path d="M36.21,11.72c-.11,0-.21-.09-.21-.21v-3.34c0-.11.09-.21.21-.21s.21.09.21.21v3.34c0,.11-.09.21-.21.21Z"></path><line class="cls-1" x1="3.17" y1="12.54" x2="9.38" y2="8.96"></line><path d="M3.17,12.75c-.07,0-.14-.04-.18-.1-.06-.1-.02-.22.08-.28l6.21-3.59c.1-.06.22-.02.28.08.06.1.02.22-.08.28l-6.21,3.59s-.07.03-.1.03Z"></path><line class="cls-1" x1="3.17" y1="13.92" x2="9.38" y2="10.34"></line><path d="M3.17,14.13c-.07,0-.14-.04-.18-.1-.06-.1-.02-.22.08-.28l6.21-3.59c.1-.06.22-.02.28.08.06.1.02.22-.08.28l-6.21,3.59s-.07.03-.1.03Z"></path><line class="cls-1" x1="3.17" y1="15.3" x2="9.38" y2="11.72"></line><path d="M3.17,15.51c-.07,0-.14-.04-.18-.1-.06-.1-.02-.22.08-.28l6.21-3.59c.1-.06.22-.02.28.08.06.1.02.22-.08.28l-6.21,3.59s-.07.03-.1.03Z"></path></svg> 