<?xml version="1.0" encoding="UTF-8"?> <svg xmlns="http://www.w3.org/2000/svg" id="Layer_1" viewBox="0 0 49.39 25.51"><defs><style>.cls-1,.cls-2{fill:#e18d25;}.cls-2,.cls-3{fill-rule:evenodd;}.cls-4,.cls-3{fill:#00628a;}</style></defs><path class="cls-4" d="M0,23.23h1.63v-6.43l2.52,5.6c.3.68.7.92,1.5.92s1.19-.24,1.49-.92l2.52-5.6v6.42h1.63v-6.41c0-.63-.25-.93-.77-1.08-1.24-.39-2.07-.05-2.44.78l-2.47,5.53-2.39-5.53c-.36-.83-1.2-1.17-2.44-.78-.52.16-.77.46-.77,1.08v6.41ZM12.63,18h1.63v3.54c-.02.19.06.64.95.66.45,0,3.51,0,3.54,0v-4.21h1.63s0,5.75,0,5.77c0,1.42-1.76,1.73-2.57,1.75h-5.14v-1.09s5.13,0,5.15,0c1.05-.11.92-.63.92-.81v-.43h-3.46c-1.61-.01-2.63-.72-2.65-1.52,0-.07.03-3.62,0-3.65h0Z"></path><path class="cls-1" d="M21.64,23.23h4.68c.55,0,1.08-.11,1.5-.31.7-.32,1.05-.76,1.05-1.34v-1.19c0-.47-.39-.91-1.16-1.2-.41-.16-.91-.24-1.39-.24h-1.97c-.66,0-.97-.2-1.05-.64-.02-.05-.02-.09-.02-.15v-.74s0-.08.02-.14c.08-.33.25-.43.83-.48.05,0,.11-.01.16-.01h4.65v-1.08h-4.57c-.66,0-1,.04-1.31.14-.97.3-1.39.78-1.39,1.62v.95c0,.73.83,1.36,2.22,1.5.16.01.31.02.47.02h1.69c.06,0,.13,0,.17.01.52.04.74.14.89.32.09.09.13.19.13.29v.95c0,.11-.08.26-.23.39-.14.13-.38.21-.69.23-.06,0-.11.01-.17.01h-4.49v1.08h0ZM39.01,21.34c0,1.12.83,1.74,2.5,1.87.16.01.31.02.47.02h4.24v-1.08h-4.27c-.95,0-1.31-.24-1.31-.81v-5.61h-1.63v5.62h0ZM29.9,21.4v-3.87c0-.98.69-1.58,2.05-1.77.15-.02.29-.03.44-.03h3.09c.16,0,.3.01.45.03,1.36.19,2.05.78,2.05,1.77v3.87c0,.8-.29,1.22-.97,1.5l1.6,1.45h-1.89l-1.3-1.17-1.31.08h-1.74c-.3,0-.61-.04-.96-.14-1.03-.28-1.54-.83-1.54-1.72h0ZM31.66,21.31c0,.05.02.1.03.17.09.45.52.7,1.16.7h1.48l-1.36-1.23h1.89l1.18,1.07c.22-.12.36-.29.41-.52.02-.05.02-.1.02-.16v-3.71s0-.09-.02-.15c-.09-.42-.52-.66-1.14-.66h-2.46c-.72,0-1.19.31-1.19.8v3.68h0Z"></path><path class="cls-4" d="M47.66,13.92c-1-.03-1.76.07-2.42.34-.19.08-.48.08-.51.31.1.11.12.27.2.4.16.25.42.59.65.77.26.19.52.4.8.57.49.3,1.04.47,1.51.77.28.18.55.4.82.6.13.1.22.25.4.31v-.03c-.09-.12-.12-.28-.2-.4l-.37-.37c-.36-.48-.82-.9-1.31-1.25-.39-.28-1.26-.66-1.42-1.11l-.03-.03c.28-.03.6-.13.85-.2.43-.11.81-.09,1.25-.2.2-.06.4-.11.6-.17v-.11c-.22-.23-.38-.53-.63-.74-.64-.54-1.33-1.08-2.05-1.54-.4-.25-.89-.41-1.31-.63-.14-.07-.39-.11-.48-.23-.22-.28-.34-.64-.51-.97-.36-.69-.71-1.44-1.02-2.16-.22-.49-.36-.98-.63-1.42-1.29-2.12-2.68-3.4-4.83-4.66-.46-.27-1.01-.37-1.59-.51l-.94-.06c-.19-.08-.39-.31-.57-.43-.71-.45-2.54-1.43-3.07-.14-.33.81.5,1.61.8,2.02.21.29.48.61.63.94.1.21.12.43.2.65.21.56.39,1.16.65,1.68.14.26.28.53.46.77.1.14.28.21.31.43-.18.25-.19.63-.28.94-.44,1.4-.28,3.14.37,4.18.2.32.67,1,1.31.74.56-.23.44-.94.6-1.56.04-.14.01-.25.09-.34v.03l.51,1.02c.38.61,1.05,1.25,1.62,1.68.3.22.53.61.91.74v-.03h-.03c-.07-.12-.19-.16-.28-.26-.22-.22-.47-.49-.65-.74-.52-.7-.98-1.47-1.39-2.28-.2-.38-.37-.81-.54-1.19-.06-.15-.06-.38-.2-.46-.18.29-.45.52-.6.85-.23.54-.26,1.2-.34,1.88-.05.02-.03,0-.06.03-.4-.1-.54-.5-.68-.85-.37-.88-.44-2.31-.11-3.33.08-.26.47-1.09.31-1.34-.07-.24-.32-.38-.45-.57-.17-.23-.34-.53-.46-.8-.3-.69-.45-1.46-.77-2.16-.15-.33-.41-.67-.63-.97-.24-.33-.5-.57-.68-.97-.06-.14-.15-.37-.06-.51.03-.1.07-.14.17-.17.16-.13.62.04.8.11.46.19.84.37,1.22.63.19.12.37.36.6.43h.26c.4.09.85.03,1.22.14.66.2,1.25.51,1.79.85,1.64,1.04,2.98,2.51,3.9,4.27.15.28.21.55.34.85.26.61.59,1.23.85,1.82.26.59.51,1.19.88,1.68.19.26.94.4,1.28.54.24.1.63.21.85.34.43.26.85.57,1.25.85.2.14.82.45.85.71h0Z"></path><path class="cls-3" d="M34.94,3.09c-.21,0-.36.02-.51.06v.03h.03c.1.2.27.34.4.51.09.2.19.4.28.6l.03-.03c.18-.12.26-.32.26-.63-.07-.07-.08-.17-.14-.26-.08-.12-.24-.18-.34-.28Z"></path><path class="cls-2" d="M46.99,22.12c0,.72.57,1.2,1.2,1.2s1.2-.48,1.2-1.2-.57-1.2-1.2-1.2-1.2.48-1.2,1.2h0ZM49.12,22.12c0,.54-.42.95-.93.95s-.93-.41-.93-.95.41-.95.93-.95.93.41.93.95ZM48.51,22.8h.27l-.39-.6c.21-.02.37-.12.37-.37,0-.28-.18-.39-.51-.39h-.53v1.37h.23v-.59h.21l.36.59h0ZM47.94,22.02v-.39h.27c.14,0,.3.03.3.19,0,.19-.15.21-.32.21h-.25Z"></path></svg> 