<?xml version="1.0" encoding="UTF-8"?> <svg xmlns="http://www.w3.org/2000/svg" xmlns:xlink="http://www.w3.org/1999/xlink" id="Layer_1" viewBox="0 0 38.96 39.98"><defs><style>.cls-1{mask:url(#mask);}.cls-2{fill:url(#linear-gradient-2);}.cls-3{fill:url(#radial-gradient);}.cls-4{fill:url(#linear-gradient);}.cls-5{fill:#fff;}.cls-6{fill:url(#radial-gradient-3);fill-opacity:.2;}.cls-6,.cls-7,.cls-8{fill-rule:evenodd;}.cls-7{fill:url(#radial-gradient-4);}.cls-8{fill:url(#radial-gradient-2);}</style><mask id="mask" x="0" y="0" width="38.96" height="39.99" maskUnits="userSpaceOnUse"><g id="a"><path class="cls-5" d="M38.96,0H0v39.99h38.96V0h0Z"></path></g></mask><linearGradient id="linear-gradient" x1="34.99" y1="319.03" x2="-.07" y2="310.95" gradientTransform="translate(0 332) scale(1 -1)" gradientUnits="userSpaceOnUse"><stop offset=".2" stop-color="#278bcb"></stop><stop offset=".51" stop-color="#2e76bb"></stop><stop offset="1" stop-color="#18325a"></stop></linearGradient><linearGradient id="linear-gradient-2" x1="37.48" y1="308.16" x2="14.31" y2="329.39" gradientTransform="translate(0 332) scale(1 -1)" gradientUnits="userSpaceOnUse"><stop offset=".04" stop-color="#278bcb"></stop><stop offset=".46" stop-color="#2e76bb"></stop><stop offset="1" stop-color="#18325a"></stop></linearGradient><radialGradient id="radial-gradient" cx="-1014.76" cy="949.44" fx="-1014.76" fy="949.44" r="1" gradientTransform="translate(-40983.44 -3727.99) rotate(134.83) scale(25.89 -33.4)" gradientUnits="userSpaceOnUse"><stop offset=".39" stop-color="#278bcb"></stop><stop offset=".59" stop-color="#2e76bb"></stop><stop offset="1" stop-color="#19508a"></stop></radialGradient><radialGradient id="radial-gradient-2" cx="-1019.83" cy="953.91" fx="-1019.83" fy="953.91" r="1" gradientTransform="translate(-35858.88 -5371.17) rotate(139.44) scale(23.3 -28.75)" gradientUnits="userSpaceOnUse"><stop offset=".46" stop-color="#5cc9eb"></stop><stop offset=".9" stop-color="#3190ce"></stop></radialGradient><radialGradient id="radial-gradient-3" cx="-984.47" cy="976.1" fx="-984.47" fy="976.1" r="1" gradientTransform="translate(-19639.01 22368.04) rotate(96.16) scale(24.72 -17.56)" gradientUnits="userSpaceOnUse"><stop offset=".77" stop-color="#000" stop-opacity="0"></stop><stop offset="1" stop-color="#000"></stop></radialGradient><radialGradient id="radial-gradient-4" cx="-986.58" cy="929.62" fx="-986.58" fy="929.62" r="1" gradientTransform="translate(-62365.58 42474.01) rotate(85.97) scale(38.47 -70.16)" gradientUnits="userSpaceOnUse"><stop offset=".1" stop-color="#c2e7f2"></stop><stop offset=".47" stop-color="#5cc9eb"></stop></radialGradient></defs><g class="cls-1"><path class="cls-4" d="M17.69,28.54c5.49-3.17,7.29-10.31,4.03-15.96-3.26-5.65-10.35-7.65-15.84-4.49C.4,11.26-1.4,18.41,1.86,24.05c3.26,5.65,10.35,7.65,15.84,4.49h0Z"></path><path class="cls-2" d="M24.85,12.71c2.85-2.85,2.78-7.54-.15-10.47-2.93-2.93-7.62-3-10.47-.15-2.85,2.85-2.78,7.54.15,10.47,2.93,2.93,7.62,3,10.47.15h0Z"></path><path class="cls-3" d="M21.78,39.22c9.49,0,17.18-7.69,17.18-17.18S31.27,4.86,21.78,4.86,4.6,12.55,4.6,22.04s7.69,17.18,17.18,17.18h0Z"></path><path class="cls-8" d="M15.05,1.38C4.97,7.61,1.44,20.73,7.24,31.23c.39.71.81,1.39,1.27,2.04l.45.07,9.97,3.33,9.47-6.34c-1.58.05-8.18-3.69-12.49-11.87-5.4-10.25-3.17-14.98-.84-17.07h-.01Z"></path><path class="cls-6" d="M15.05,1.38C4.97,7.61,1.44,20.73,7.24,31.23c.39.71.81,1.39,1.27,2.04l.45.07,9.97,3.33,9.47-6.34c-1.58.05-8.18-3.69-12.49-11.87-5.4-10.25-3.17-14.98-.84-17.07h-.01Z"></path><path class="cls-7" d="M34.85,33.19c1.75-2.05,3-4.49,3.64-7.11-1.71-4.88-8.58-6.25-12.34-2.43-2.89,2.93-5.89,5.39-8.15,5.82C4.95,32.04-.6,21.28.36,16.34c-.49,2.55-.47,5.18.05,7.73,2.2,10.76,12.7,17.7,23.46,15.51,3.21-.65,6.21-2.09,8.73-4.18,0,0,.04-.03.05-.04.79-.66,1.53-1.38,2.2-2.16h0s0,0,0,0Z"></path></g></svg> 