<?xml version="1.0" encoding="UTF-8"?> <svg xmlns="http://www.w3.org/2000/svg" id="Layer_1" viewBox="0 0 40.38 43.96"><defs><style>.cls-1{fill:#f9a11b;}.cls-2{fill:#fff;}</style></defs><path class="cls-1" d="M31.4,28.16c-.09,0-.17-.02-.25-.07L2.38,11.48c-.24-.14-.32-.44-.18-.68.14-.24.44-.32.68-.18l28.01,16.17v-14.58c0-.28.22-.5.5-.5s.5.22.5.5v15.44c0,.18-.1.34-.25.43-.08.04-.16.07-.25.07Z"></path><path class="cls-1" d="M38.78,32.42c-.08,0-.17-.02-.25-.07l-7.39-4.26c-.24-.14-.32-.44-.18-.68.14-.24.45-.32.68-.18l7.39,4.26c.24.14.32.44.18.68-.09.16-.26.25-.43.25Z"></path><path class="cls-1" d="M16.62,40.87c-.28,0-.5-.22-.5-.5v-21.24c0-.28.22-.5.5-.5s.5.22.5.5v21.24c0,.28-.22.5-.5.5Z"></path><path class="cls-1" d="M24.01,32.36c-.09,0-.17-.02-.25-.07l-7.39-4.26c-.24-.14-.32-.44-.18-.68.14-.24.44-.32.68-.18l6.64,3.83V3.05c0-.28.22-.5.5-.5s.5.22.5.5v28.81c0,.18-.1.34-.25.43-.08.04-.16.07-.25.07Z"></path><path class="cls-2" d="M33.04,30.72l-3.29-1.9c-.11-.06-.2-.24-.2-.39v-3.69c0-.15.09-.22.2-.15l3.29,1.9c.11.06.2.24.2.39v3.69c0,.15-.09.22-.2.15Z"></path><path class="cls-1" d="M33.12,31.25c-.11,0-.22-.03-.33-.09,0,0,0,0,0,0l-3.29-1.9c-.27-.16-.45-.49-.45-.82v-3.69c0-.26.12-.48.32-.6.19-.11.43-.11.63.01l3.28,1.9c.27.16.45.49.45.82v3.69c0,.26-.12.48-.32.6-.09.05-.2.08-.3.08ZM33.29,30.29h0s0,0,0,0ZM30.05,25.34v3.1l2.69,1.54v-3.1l-2.69-1.54ZM29.5,25.03s0,0,0,0h0Z"></path><path class="cls-2" d="M25.65,26.46l-3.29-1.9c-.11-.06-.2-.24-.2-.39v-3.69c0-.15.09-.22.2-.15l3.29,1.9c.11.06.2.24.2.39v3.69c0,.15-.09.22-.2.15Z"></path><path class="cls-1" d="M25.74,26.98c-.11,0-.22-.03-.33-.09,0,0,0,0,0,0l-3.29-1.9c-.27-.15-.45-.49-.45-.82v-3.69c0-.26.12-.48.32-.6.19-.11.43-.11.63.01l3.29,1.9c.27.15.45.49.45.82v3.69c0,.26-.12.48-.32.6-.09.05-.2.08-.3.08ZM25.9,26.02h0s0,0,0,0ZM22.66,21.07v3.1l2.69,1.54v-3.1l-2.69-1.54ZM22.12,20.76s0,0,0,0h0Z"></path><path class="cls-2" d="M18.27,22.19l-3.29-1.9c-.11-.06-.2-.24-.2-.39v-3.69c0-.15.09-.22.2-.15l3.29,1.9c.11.06.2.24.2.39v3.69c0,.15-.09.22-.2.15Z"></path><path class="cls-1" d="M18.35,22.72c-.11,0-.22-.03-.33-.09,0,0,0,0,0,0l-3.29-1.9c-.27-.15-.45-.49-.45-.82v-3.69c0-.26.12-.48.32-.6.19-.11.43-.11.63,0l3.29,1.9c.27.15.45.49.45.82v3.69c0,.26-.12.48-.32.6-.09.05-.2.08-.3.08ZM18.51,21.76h0s0,0,0,0ZM15.28,16.81v3.1l2.69,1.54v-3.1l-2.69-1.54Z"></path><path class="cls-2" d="M33.04,15.28l-3.29-1.9c-.11-.06-.2-.24-.2-.39v-3.69c0-.15.09-.22.2-.15l3.29,1.9c.11.06.2.24.2.39v3.69c0,.15-.09.22-.2.15Z"></path><path class="cls-1" d="M33.12,15.81c-.11,0-.22-.03-.33-.09,0,0,0,0,0,0l-3.29-1.9c-.27-.16-.45-.49-.45-.82v-3.69c0-.26.12-.48.32-.6.19-.11.43-.11.63.01l3.28,1.9c.27.16.45.49.45.82v3.69c0,.26-.12.48-.32.6-.09.05-.2.08-.3.08ZM33.29,14.85h0s0,0,0,0ZM30.05,9.9v3.1l2.69,1.54v-3.1l-2.69-1.54ZM29.5,9.58s0,0,0,0h0Z"></path><path class="cls-2" d="M25.65,34.93l-3.29-1.9c-.11-.06-.2-.24-.2-.39v-3.69c0-.15.09-.22.2-.15l3.29,1.9c.11.06.2.24.2.39v3.69c0,.15-.09.22-.2.15Z"></path><path class="cls-1" d="M25.74,35.45c-.11,0-.23-.03-.33-.09l-3.29-1.9c-.27-.15-.45-.49-.45-.82v-3.69c0-.26.12-.48.32-.6.19-.11.43-.11.63,0l3.29,1.9c.27.15.45.49.45.82v3.69c0,.26-.12.48-.32.6-.09.05-.2.08-.3.08ZM25.9,34.49h0s0,0,0,0ZM22.66,29.54v3.1l2.69,1.54v-3.1l-2.69-1.54Z"></path><path class="cls-2" d="M18.27,43.44l-3.29-1.9c-.11-.06-.2-.24-.2-.39v-3.69c0-.15.09-.22.2-.15l3.29,1.9c.11.06.2.24.2.39v3.69c0,.15-.09.22-.2.15Z"></path><path class="cls-1" d="M18.35,43.96c-.11,0-.22-.03-.33-.09,0,0,0,0,0,0l-3.29-1.9c-.27-.15-.45-.49-.45-.82v-3.69c0-.26.12-.48.32-.6.19-.11.43-.11.63.01l3.28,1.9c.27.15.45.49.45.82v3.69c0,.26-.12.48-.32.6-.09.05-.2.08-.3.08ZM18.51,43h0s0,0,0,0ZM15.28,38.05v3.1l2.69,1.54v-3.1l-2.69-1.54ZM14.73,37.74s0,0,0,0h0Z"></path><polygon class="cls-2" points=".5 9.82 3.7 13.78 3.7 9.55 .5 9.82"></polygon><path class="cls-1" d="M3.7,14.28c-.15,0-.29-.07-.39-.19L.11,10.13c-.12-.14-.14-.34-.07-.51.07-.17.23-.29.42-.3l3.2-.27c.14-.01.28.04.38.13.1.09.16.23.16.37v4.23c0,.21-.13.4-.33.47-.05.02-.11.03-.17.03ZM1.48,10.24l1.72,2.13v-2.27l-1.72.14Z"></path><path class="cls-2" d="M25.86,3.94c0,1.17-.83,1.64-1.85,1.05-1.02-.59-1.85-2.01-1.85-3.18,0-1.17.83-1.64,1.85-1.05,1.02.59,1.85,2.01,1.85,3.18Z"></path><path class="cls-1" d="M24.84,5.75c-.34,0-.71-.11-1.08-.32-1.18-.68-2.1-2.27-2.1-3.62,0-.75.28-1.32.79-1.61.51-.29,1.15-.25,1.81.13,1.18.68,2.1,2.27,2.1,3.62,0,.75-.28,1.32-.79,1.62-.22.13-.47.19-.73.19ZM23.18,1c-.09,0-.17.02-.23.06-.18.1-.29.38-.29.75,0,.99.73,2.25,1.6,2.75.33.19.62.24.81.13.18-.11.29-.38.29-.75,0-.99-.73-2.25-1.6-2.75-.21-.12-.41-.19-.58-.19Z"></path><path class="cls-2" d="M37.69,31.29c0-.69.49-.97,1.1-.62.61.35,1.1,1.2,1.1,1.89,0,.69-.49.97-1.1.62-.61-.35-1.1-1.2-1.1-1.89Z"></path><path class="cls-1" d="M39.28,33.83c-.24,0-.49-.07-.74-.22-.76-.44-1.35-1.46-1.35-2.32,0-.51.21-.92.57-1.13.36-.21.83-.18,1.28.08.76.44,1.35,1.46,1.35,2.32,0,.51-.21.92-.57,1.13-.16.09-.34.14-.53.14ZM38.29,31.02s-.03,0-.04,0c-.02.01-.07.1-.07.27,0,.52.4,1.2.85,1.46.16.09.25.09.28.08.02-.01.07-.1.07-.27,0-.52-.4-1.2-.85-1.46-.11-.06-.2-.08-.24-.08Z"></path><path class="cls-2" d="M18.33,30.95l-3.41-1.97c-.12-.07-.21-.25-.21-.4v-3.83c0-.16.09-.23.21-.16l3.41,1.97c.12.07.21.25.21.4v3.83c0,.16-.09.23-.21.16Z"></path><path class="cls-1" d="M18.41,31.48c-.11,0-.23-.03-.33-.09l-3.41-1.97c-.27-.16-.46-.5-.46-.84v-3.83c0-.26.12-.49.32-.6.19-.11.43-.11.64.01l3.41,1.97c.27.16.46.5.46.84v3.83c0,.26-.12.49-.32.6-.09.05-.2.08-.3.08ZM18.58,30.52h0,0ZM15.21,25.34v3.25l2.83,1.63v-3.25l-2.83-1.63Z"></path></svg> 