<?xml version="1.0" encoding="UTF-8"?> <svg xmlns="http://www.w3.org/2000/svg" id="Layer_1" viewBox="0 0 43.03 44.37"><defs><style>.cls-1{fill:#fff;}.cls-2{fill:#346891;}</style></defs><path d="M32.15,32.3c.28-2.35.2-2.7,1.95-2.32l.44.04c1.35.06,3.11-.22,4.14-.7,2.23-1.03,3.55-2.76,1.35-2.31-5.01,1.03-5.36-.66-5.36-.66,5.29-7.85,7.5-17.82,5.59-20.26-5.21-6.65-14.22-3.51-14.37-3.43h-.05c-.99-.2-2.1-.32-3.34-.34-2.27-.04-3.99.59-5.29,1.58C17.22,3.92,1.14-2.7,1.89,12.25c.16,3.18,4.56,24.08,9.81,17.76,1.92-2.31,3.77-4.26,3.77-4.26.92.61,2.02.92,3.18.81l.09-.08c-.03.29-.02.57.04.9-1.35,1.51-.95,1.78-3.66,2.33-2.74.56-1.13,1.57-.08,1.83,1.27.32,4.21.77,6.2-2.01l-.08.32c.53.42.49,3.05.57,4.93.08,1.88.2,3.63.58,4.66.38,1.03.83,3.69,4.39,2.93,2.97-.64,5.24-1.55,5.45-10.07"></path><path d="M25.54,44.37c-1.11,0-2.31-.29-3.31-1.23-.96-.91-1.34-2.07-1.57-2.77-.04-.11-.07-.21-.09-.28-.45-1.23-.61-2.98-.7-5.23-.01-.34-.02-.7-.03-1.05,0-.21-.01-.47-.02-.75-.51.23-1.06.39-1.63.49-1.13.19-2.34.13-3.6-.18-.53-.13-1.06-.36-1.5-.63-.34-.22-.6-.45-.79-.68-1.52,1.27-2.97,1.08-3.77.82-1.42-.47-2.69-1.8-3.87-4.04-.83-1.58-1.64-3.64-2.4-6.12C.94,18.39.1,13.84.03,12.35-.21,7.64,1.07,4.26,3.81,2.32,6.08.72,9.18.23,13.03.86c1.64.27,3.05.69,3.94.99,1.59-.95,3.46-1.41,5.57-1.37,1.13.02,2.2.12,3.2.29C26.82.44,28.88-.03,31.22,0c4.39.05,8.03,1.77,10.53,4.95,1.71,2.18,1.07,6.49.24,9.71-.93,3.62-2.56,7.46-4.55,10.82.53-.02,1.25-.09,2.23-.29.56-.12,1.03-.14,1.45-.08.88.13,1.55.68,1.81,1.46.23.68.21,1.75-1.14,2.96-.61.55-1.43,1.08-2.31,1.48-1.27.59-3.33.95-5.01.87h-.08s-.3-.03-.3-.03c0,.08-.02.15-.03.23-.01.11-.03.23-.04.35-.11,4.34-.74,7.1-2.02,8.93-1.36,1.94-3.24,2.48-4.89,2.83-.46.1-.99.17-1.55.17ZM22.33,28.4c1.06.85,1.15,2.4,1.24,5.3,0,.36.02.69.03,1.01.04.95.13,3.16.47,4.09.05.14.1.27.14.42.39,1.18.55,1.67,2.11,1.34,1.38-.3,2.08-.56,2.63-1.33.81-1.16,1.27-3.5,1.35-6.97v-.09s.01-.09.01-.09c.02-.15.03-.29.05-.43.16-1.39.29-2.48,1.28-3.19.63-.45,1.33-.51,1.94-.45-.5-.51-.66-1.04-.71-1.28l-.16-.76.44-.65c2.31-3.43,4.22-7.64,5.23-11.55,1.14-4.39.64-6.26.44-6.51-4.14-5.29-11.34-3.13-12.14-2.87l-.14.07-.7.13-.36-.07c-.91-.19-1.91-.29-2.99-.31-1.68-.03-3.03.37-4.14,1.21l-.85.64-.99-.41c-1.93-.79-7.59-2.38-10.55-.27-1.63,1.16-2.38,3.44-2.21,6.79.06,1.16.85,5.51,2.14,9.69,1.78,5.75,3.36,7.35,3.81,7.48.06-.02.25-.13.57-.51,1.94-2.33,3.78-4.27,3.85-4.35l1.08-1.13,1.3.87c.45.3.94.47,1.45.51l3.09-2.64-.45,4.59c0,.09-.01.21.02.43l.14.87-.59.66s-.01.01-.02.02l1.44.67.73-.92Z"></path><path class="cls-2" d="M40.04,27.02c-5.01,1.03-5.36-.66-5.36-.66,5.29-7.85,7.5-17.82,5.59-20.26-5.21-6.65-14.22-3.51-14.37-3.43h-.05c-.99-.2-2.1-.32-3.34-.34-2.27-.04-3.99.59-5.29,1.58C17.22,3.92,1.14-2.7,1.89,12.25c.16,3.18,4.56,24.08,9.81,17.76,1.92-2.31,3.77-4.26,3.77-4.26.92.61,2.02.92,3.18.81l.09-.08c-.03.29-.02.57.04.9-1.35,1.51-.96,1.78-3.66,2.33-2.74.56-1.13,1.57-.08,1.83,1.27.32,4.21.77,6.2-2.01l-.08.32c.53.42.9,2.76.84,4.88-.06,2.12-.1,3.57.31,4.71.42,1.14.83,3.69,4.39,2.93,2.97-.64,4.51-2.29,4.72-5.04.15-1.96.5-1.67.52-3.42l.28-.83c.32-2.65.05-3.51,1.88-3.11l.44.04c1.35.06,3.11-.22,4.14-.7,2.23-1.03,3.55-2.76,1.35-2.31h0Z"></path><path class="cls-1" d="M25.74,43.21c-1.1,0-2.03-.32-2.78-.95-.92-.77-1.34-1.82-1.56-2.38-.41-1.02-.74-4.93-.56-11.36,0-.34.29-.61.64-.6.34,0,.61.3.6.64-.14,5.16.06,9.82.47,10.86.64,1.6,1.61,3.01,4.36,2.42,2.65-.57,3.6-1.52,4.04-4.09.34-1.96,1.01-7.53,1.09-8.64.03-.34.32-.6.67-.57.34.03.6.32.57.67-.09,1.15-.75,6.72-1.1,8.75-.52,3.04-1.88,4.42-5,5.09-.51.11-.99.16-1.44.16ZM9.67,31.76c-.25,0-.51-.04-.78-.13-1.94-.65-3.78-3.79-5.48-9.35-1.29-4.22-2.1-8.63-2.18-10.06-.21-4.26.89-7.27,3.27-8.96,4.7-3.33,12.6-.16,12.93-.03.32.13.47.49.34.81-.13.32-.49.47-.81.34h0c-.08-.03-7.6-3.05-11.75-.11-2.01,1.42-2.93,4.08-2.74,7.88.06,1.2.82,5.49,2.12,9.76,1.5,4.93,3.21,8.04,4.68,8.53.23.08.91.3,1.91-.89,1.91-2.3,3.67-4.13,3.68-4.15.24-.25.63-.26.88-.02.25.24.26.63.02.88-.02.02-1.74,1.82-3.62,4.09-.57.68-1.42,1.41-2.47,1.41ZM34.65,26.92c-.12,0-.24-.03-.35-.11-.28-.19-.36-.58-.17-.86,2.39-3.55,4.36-7.91,5.41-11.97.92-3.58,1.01-6.54.21-7.56-2.01-2.57-4.86-3.92-8.45-4-2.66-.06-4.79.62-5.14.74-.03.01-.06.03-.09.04-.38.12-.67-.09-.78-.33-.13-.29-.02-.63.25-.79.23-.14,2.68-.93,5.6-.9,4.01.04,7.33,1.59,9.59,4.48,1.52,1.95.52,6.69.02,8.64-1.08,4.19-3.12,8.69-5.58,12.35-.12.18-.32.27-.52.27Z"></path><path class="cls-1" d="M34.92,30.59c-.92,0-1.75-.13-2.25-.43-.52-.31-.62-.74-.64-.97-.14-2.38,1.14-2.85,1.85-3.06-.09-.13-.21-.28-.33-.43-.4-.5-.94-1.18-1.36-2.2-.06-.16-.27-.52-.51-.95-.63-1.13-1.58-2.83-2.2-4.58-.81-2.27-.83-3.92-.04-5.05.8-1.14,2.38-1.6,4.69-1.36-.31-.92-1.08-2.61-2.51-4.3-1.66-1.96-4.59-4.3-9.16-4.38-2.32-.04-4.23.67-5.66,2.12-3.21,3.23-3.1,9.12-3.1,9.18,0,.34-.26.63-.6.64-.34,0-.63-.26-.64-.6,0-.26-.13-6.47,3.45-10.08,1.68-1.7,3.89-2.53,6.56-2.49,4.99.08,8.2,2.62,10.02,4.73,1.98,2.3,2.95,4.85,3.03,5.7.06.68-.46.81-.52.82h-.22c-2.83-.45-3.92.16-4.33.74-.52.75-.46,2.1.19,3.92.59,1.65,1.51,3.3,2.12,4.39.28.5.48.86.57,1.08.35.86.81,1.43,1.19,1.9.33.41.62.77.72,1.19.05.09.74,1.03,4.63.22,1.02-.21,1.64-.03,1.83.55.16.48-.11,1.03-.79,1.64-.52.47-1.24.93-2.01,1.28-1,.47-2.6.76-3.99.76ZM33.28,29.08c.15.12.79.32,2.05.26,1.14-.05,2.34-.3,3.06-.64.83-.39,1.42-.82,1.77-1.14,0,0-.02,0-.03,0-2.55.53-4.36.45-5.37-.21-.06-.04-.12-.08-.17-.13-.09.03-.17.05-.26.08-.57.16-1.12.31-1.05,1.77ZM40.72,27.51h0Z"></path><path class="cls-1" d="M16.83,32.35c-.63,0-1.29-.08-1.98-.26-.2-.05-1.93-.51-1.9-1.62.02-1.01,1.46-1.31,2.01-1.42,1.91-.39,2.03-.55,2.63-1.3.18-.22.39-.5.69-.84.99-1.11,1.93-.72,2.33-.56.63.26,1.15.89,1.37,1.64.19.68.1,1.33-.26,1.84-1.18,1.65-2.87,2.51-4.88,2.51ZM14.32,30.54c.18.12.49.27.83.36,1.66.41,3.96.44,5.55-1.77.19-.26.13-.6.08-.78-.11-.38-.37-.72-.65-.83-.34-.14-.52-.22-.93.24,0,0,0,0,0,0-.27.3-.47.55-.64.78-.76.96-1.11,1.29-3.35,1.75-.46.1-.73.19-.88.26ZM18.74,27.33h0,0Z"></path><path class="cls-1" d="M18.65,27.93c-.3,0-.57-.22-.61-.53-.01-.08-.02-.17-.03-.25-1.46-.04-2.86-.67-3.93-1.79-1.36-1.42-1.99-3.4-1.7-5.41.3-2.17.19-4.08.13-5.11-.02-.29-.03-.49-.03-.64,0-.19,0-.69,1.64-1.52.58-.29,1.73-.8,2.99-.93,2.11-.22,3.49.72,3.91,2.64,1.11,5.14.09,7.41-.66,9.07-.14.31-.27.6-.37.88l-.09.25c-.39,1.05-.73,1.95-.63,2.62.05.34-.18.66-.52.71-.03,0-.06,0-.09,0ZM13.72,14.38c0,.1.01.24.02.39.06,1.07.18,3.07-.14,5.36-.23,1.64.27,3.23,1.37,4.38.86.9,2,1.4,3.17,1.41.13-.55.35-1.13.58-1.76l.09-.25c.12-.32.26-.63.4-.96.71-1.59,1.6-3.56.58-8.3-.2-.91-.67-1.45-1.45-1.63-1.71-.39-4.11.89-4.63,1.35Z"></path><path class="cls-1" d="M17.14,14.12c-.03.2.37.75.89.82.52.07.97-.35,1-.55.03-.2-.37-.43-.89-.5-.52-.07-.97.03-1,.24h0Z"></path><path class="cls-1" d="M18.15,15.15s-.1,0-.15-.01c-.33-.05-.66-.25-.89-.55-.08-.11-.21-.31-.18-.5,0-.07.05-.17.16-.26.21-.16.62-.21,1.07-.15.28.04.54.12.73.23.34.19.36.4.34.51-.03.2-.23.4-.4.52-.21.14-.45.22-.68.22ZM17.35,14.16c.03.14.33.52.71.57.39.05.71-.25.76-.37-.04-.07-.28-.22-.71-.28-.42-.06-.69.02-.76.07Z"></path><path class="cls-1" d="M33.02,13.7c.03.2-.37.75-.89.82-.52.07-.97-.35-1-.55-.03-.2.37-.43.89-.5s.97.03,1,.24h0Z"></path><path class="cls-1" d="M32.01,14.63c-.51,0-.95-.41-.98-.65-.04-.31.46-.54.98-.62.52-.07,1.07.02,1.11.32h0c.02.14-.09.35-.27.54-.12.13-.37.34-.71.39-.04,0-.09,0-.13,0ZM32.35,13.55c-.09,0-.2,0-.31.02-.55.08-.82.29-.81.38.02.14.41.53.88.47.28-.04.49-.22.59-.33.16-.17.22-.32.21-.37-.01-.07-.21-.17-.57-.17Z"></path><path class="cls-1" d="M33.77,25.41c-.12,0-.24-.03-.34-.11-.28-.19-.36-.58-.17-.86,1.21-1.81.99-3.67.77-5.46-.09-.77-.19-1.56-.16-2.33.03-.79.12-1.43.22-2.06.11-.74.22-1.44.18-2.26-.02-.34.24-.63.59-.65.34-.02.63.24.65.59.05.95-.07,1.75-.19,2.52-.09.59-.18,1.2-.21,1.91-.02.67.06,1.39.15,2.14.23,1.92.49,4.1-.98,6.3-.12.18-.32.28-.52.28Z"></path></svg> 