<?xml version="1.0" encoding="UTF-8"?> <svg xmlns="http://www.w3.org/2000/svg" id="Layer_1" viewBox="0 0 45 26.12"><defs><style>.cls-1{fill:#fff;}.cls-2{fill:#e01d52;}</style></defs><polygon class="cls-1" points="44.85 15.52 26.77 25.96 .16 10.59 18.23 .16 44.85 15.52"></polygon><path d="M26.77,26.12s-.05,0-.08-.02L.08,10.73s-.08-.08-.08-.14.03-.11.08-.14L18.15.02s.11-.03.16,0l26.62,15.37s.08.08.08.14-.03.11-.08.14l-18.07,10.43s-.05.02-.08.02ZM.47,10.59l26.3,15.18,17.76-10.25L18.23.34.47,10.59Z"></path><polygon class="cls-2" points="14.04 12.07 10.67 14.01 7.33 12.08 10.7 10.13 14.04 12.07"></polygon><path d="M10.67,14.17s-.05,0-.08-.02l-3.35-1.93s-.08-.08-.08-.14.03-.11.08-.14l3.37-1.95s.11-.03.16,0l3.35,1.93s.08.08.08.14-.03.11-.08.14l-3.37,1.95s-.05.02-.08.02ZM7.64,12.08l3.03,1.75,3.06-1.76-3.03-1.75-3.06,1.76Z"></path><polygon class="cls-2" points="17.42 14.02 14.05 15.96 10.71 14.03 14.08 12.09 17.42 14.02"></polygon><path d="M14.05,16.12s-.05,0-.08-.02l-3.35-1.93s-.08-.08-.08-.14.03-.11.08-.14l3.37-1.95s.11-.03.16,0l3.35,1.93s.08.08.08.14-.03.11-.08.14l-3.37,1.95s-.05.02-.08.02ZM11.02,14.03l3.03,1.75,3.06-1.76-3.03-1.75-3.06,1.76Z"></path><polygon class="cls-2" points="20.8 15.97 17.43 17.91 14.09 15.98 17.46 14.04 20.8 15.97"></polygon><path d="M17.43,18.07s-.05,0-.08-.02l-3.35-1.93s-.08-.08-.08-.14.03-.11.08-.14l3.37-1.95s.11-.03.16,0l3.35,1.93s.08.08.08.14-.03.11-.08.14l-3.37,1.95s-.05.02-.08.02ZM14.4,15.98l3.03,1.75,3.06-1.76-3.03-1.75-3.06,1.76Z"></path><polygon class="cls-2" points="24.18 17.92 20.82 19.87 17.47 17.93 20.84 15.99 24.18 17.92"></polygon><path d="M20.82,20.02s-.05,0-.08-.02l-3.35-1.93s-.08-.08-.08-.14.03-.11.08-.14l3.37-1.95s.11-.03.16,0l3.35,1.93s.08.08.08.14-.03.11-.08.14l-3.37,1.95s-.05.02-.08.02ZM17.78,17.93l3.03,1.75,3.06-1.76-3.03-1.75-3.06,1.76Z"></path><polygon class="cls-2" points="27.57 19.87 24.2 21.82 20.85 19.89 24.22 17.94 27.57 19.87"></polygon><path d="M24.2,21.97s-.05,0-.08-.02l-3.35-1.93s-.08-.08-.08-.14.03-.11.08-.14l3.37-1.95s.11-.03.16,0l3.35,1.93s.08.08.08.14-.03.11-.08.14l-3.37,1.95s-.05.02-.08.02ZM21.16,19.89l3.03,1.75,3.06-1.76-3.03-1.75-3.06,1.76Z"></path><polygon class="cls-2" points="17.41 10.12 14.04 12.07 10.7 10.13 14.07 8.19 17.41 10.12"></polygon><path d="M14.04,12.22s-.05,0-.08-.02l-3.35-1.93s-.08-.08-.08-.14.03-.11.08-.14l3.37-1.95s.11-.03.16,0l3.35,1.93s.08.08.08.14-.03.11-.08.14l-3.37,1.95s-.05.02-.08.02ZM11.01,10.13l3.03,1.75,3.06-1.76-3.03-1.75-3.06,1.76Z"></path><polygon class="cls-1" points="20.79 12.07 17.42 14.02 14.08 12.09 17.45 10.14 20.79 12.07"></polygon><path d="M17.42,14.17s-.05,0-.08-.02l-3.35-1.93s-.08-.08-.08-.14.03-.11.08-.14l3.37-1.95s.11-.03.16,0l3.35,1.93s.08.08.08.14-.03.11-.08.14l-3.37,1.95s-.05.02-.08.02ZM14.39,12.09l3.03,1.75,3.06-1.76-3.03-1.75-3.06,1.76Z"></path><polygon class="cls-1" points="24.17 14.02 20.8 15.97 17.46 14.04 20.83 12.09 24.17 14.02"></polygon><path d="M20.8,16.13s-.05,0-.08-.02l-3.35-1.93s-.08-.08-.08-.14.03-.11.08-.14l3.37-1.95s.11-.03.16,0l3.35,1.93s.08.08.08.14-.03.11-.08.14l-3.37,1.95s-.05.02-.08.02ZM17.77,14.04l3.03,1.75,3.06-1.76-3.03-1.75-3.06,1.76Z"></path><polygon class="cls-1" points="27.55 15.97 24.18 17.92 20.84 15.99 24.21 14.04 27.55 15.97"></polygon><path d="M24.18,18.08s-.05,0-.08-.02l-3.35-1.93s-.08-.08-.08-.14.03-.11.08-.14l3.37-1.95s.11-.03.16,0l3.35,1.93s.08.08.08.14-.03.11-.08.14l-3.37,1.95s-.05.02-.08.02ZM21.15,15.99l3.03,1.75,3.06-1.76-3.03-1.75-3.06,1.76Z"></path><polygon class="cls-1" points="30.93 17.93 27.57 19.87 24.22 17.94 27.59 16 30.93 17.93"></polygon><path d="M27.57,20.03s-.05,0-.08-.02l-3.35-1.93s-.08-.08-.08-.14.03-.11.08-.14l3.37-1.95s.11-.03.16,0l3.35,1.93s.08.08.08.14-.03.11-.08.14l-3.37,1.95s-.05.02-.08.02ZM24.53,17.94l3.03,1.75,3.06-1.76-3.03-1.75-3.06,1.76Z"></path><polygon class="cls-2" points="20.78 8.17 17.41 10.12 14.07 8.19 17.44 6.24 20.78 8.17"></polygon><path d="M17.41,10.28s-.05,0-.08-.02l-3.35-1.93s-.08-.08-.08-.14.03-.11.08-.14l3.37-1.95s.11-.03.16,0l3.35,1.93s.08.08.08.14-.03.11-.08.14l-3.37,1.95s-.05.02-.08.02ZM14.38,8.19l3.03,1.75,3.06-1.76-3.03-1.75-3.06,1.76Z"></path><polygon class="cls-1" points="24.16 10.13 20.79 12.07 17.45 10.14 20.82 8.19 24.16 10.13"></polygon><path d="M20.79,12.23s-.05,0-.08-.02l-3.35-1.93s-.08-.08-.08-.14.03-.11.08-.14l3.37-1.95s.11-.03.16,0l3.35,1.93s.08.08.08.14-.03.11-.08.14l-3.37,1.95s-.05.02-.08.02ZM17.76,10.14l3.03,1.75,3.06-1.76-3.03-1.75-3.06,1.76Z"></path><polygon class="cls-1" points="27.54 12.08 24.17 14.02 20.83 12.09 24.2 10.15 27.54 12.08"></polygon><path d="M24.17,14.18s-.05,0-.08-.02l-3.35-1.93s-.08-.08-.08-.14.03-.11.08-.14l3.37-1.95s.11-.03.16,0l3.35,1.93s.08.08.08.14-.03.11-.08.14l-3.37,1.95s-.05.02-.08.02ZM21.14,12.09l3.03,1.75,3.06-1.76-3.03-1.75-3.06,1.76Z"></path><polygon class="cls-1" points="30.92 14.03 27.55 15.97 24.21 14.04 27.58 12.1 30.92 14.03"></polygon><path d="M27.55,16.13s-.05,0-.08-.02l-3.35-1.93s-.08-.08-.08-.14.03-.11.08-.14l3.37-1.95s.11-.03.16,0l3.35,1.93s.08.08.08.14-.03.11-.08.14l-3.37,1.95s-.05.02-.08.02ZM24.52,14.04l3.03,1.75,3.06-1.76-3.03-1.75-3.06,1.76Z"></path><polygon class="cls-1" points="34.3 15.98 30.93 17.93 27.59 16 30.96 14.05 34.3 15.98"></polygon><path d="M30.93,18.08s-.05,0-.08-.02l-3.35-1.93s-.08-.08-.08-.14.03-.11.08-.14l3.37-1.95s.11-.03.16,0l3.35,1.93s.08.08.08.14-.03.11-.08.14l-3.37,1.95s-.05.02-.08.02ZM27.9,16l3.03,1.75,3.06-1.76-3.03-1.75-3.06,1.76Z"></path><polygon class="cls-2" points="24.15 6.23 20.78 8.17 17.44 6.24 20.81 4.3 24.15 6.23"></polygon><path d="M20.78,8.33s-.05,0-.08-.02l-3.35-1.93s-.08-.08-.08-.14.03-.11.08-.14l3.37-1.95s.11-.03.16,0l3.35,1.93s.08.08.08.14-.03.11-.08.14l-3.37,1.95s-.05.02-.08.02ZM17.75,6.24l3.03,1.75,3.06-1.76-3.03-1.75-3.06,1.76Z"></path><polygon class="cls-1" points="27.53 8.18 24.16 10.13 20.82 8.19 24.19 6.25 27.53 8.18"></polygon><path d="M24.16,10.28s-.05,0-.08-.02l-3.35-1.93s-.08-.08-.08-.14.03-.11.08-.14l3.37-1.95s.11-.03.16,0l3.35,1.93s.08.08.08.14-.03.11-.08.14l-3.37,1.95s-.05.02-.08.02ZM21.13,8.19l3.03,1.75,3.06-1.76-3.03-1.75-3.06,1.76Z"></path><polygon class="cls-1" points="30.91 10.13 27.54 12.08 24.2 10.15 27.57 8.2 30.91 10.13"></polygon><path d="M27.54,12.24s-.05,0-.08-.02l-3.35-1.93s-.08-.08-.08-.14.03-.11.08-.14l3.37-1.95s.11-.03.16,0l3.35,1.93s.08.08.08.14-.03.11-.08.14l-3.37,1.95s-.05.02-.08.02ZM24.51,10.15l3.03,1.75,3.06-1.76-3.03-1.75-3.06,1.76Z"></path><polygon class="cls-1" points="34.29 12.08 30.92 14.03 27.58 12.1 30.95 10.15 34.29 12.08"></polygon><path d="M30.92,14.19s-.05,0-.08-.02l-3.35-1.93s-.08-.08-.08-.14.03-.11.08-.14l3.37-1.95s.11-.03.16,0l3.35,1.93s.08.08.08.14-.03.11-.08.14l-3.37,1.95s-.05.02-.08.02ZM27.89,12.1l3.03,1.75,3.06-1.76-3.03-1.75-3.06,1.76Z"></path><polygon class="cls-1" points="37.67 14.04 34.3 15.98 30.96 14.05 34.33 12.1 37.67 14.04"></polygon><path d="M34.3,16.14s-.05,0-.08-.02l-3.35-1.93s-.08-.08-.08-.14.03-.11.08-.14l3.37-1.95s.11-.03.16,0l3.35,1.93s.08.08.08.14-.03.11-.08.14l-3.37,1.95s-.05.02-.08.02ZM31.27,14.05l3.03,1.75,3.06-1.76-3.03-1.75-3.06,1.76Z"></path><path d="M5.01,10.9c-.05,0-.11-.03-.14-.08-.04-.08-.02-.17.06-.21l6.74-3.89c.07-.04.17-.02.21.06.04.08.02.17-.06.21l-6.74,3.89s-.05.02-.08.02Z"></path><path d="M36.63,17.48c-.05,0-.11-.03-.14-.08-.04-.08-.02-.17.06-.21l3.37-1.95c.07-.04.17-.02.21.06.04.08.02.17-.06.21l-3.37,1.95s-.05.02-.08.02Z"></path><path d="M27.57,18.96h0c-.09,0-.16-.07-.16-.16v-1.75c.01-.09.08-.16.17-.16h0c.09,0,.16.07.16.16v1.75c-.01.09-.08.16-.17.16Z"></path><path d="M26.06,18.09c-.09,0-.16-.07-.16-.16,0-.09.07-.16.16-.16h3.03s0,0,0,0c.09,0,.16.07.16.16,0,.09-.07.16-.16.16h-3.03s0,0,0,0Z"></path><path d="M20.8,11.16h0c-.09,0-.16-.07-.16-.16v-1.75c.01-.09.08-.16.17-.16h0c.09,0,.16.07.16.16v1.75c-.01.09-.08.16-.17.16Z"></path><path d="M19.29,10.29c-.09,0-.16-.07-.16-.16,0-.09.07-.16.16-.16h3.03s0,0,0,0c.09,0,.16.07.16.16,0,.09-.07.16-.16.16h-3.03s0,0,0,0Z"></path></svg> 