<?xml version="1.0" encoding="UTF-8"?> <svg xmlns="http://www.w3.org/2000/svg" id="Layer_1" viewBox="0 0 45.49 45.49"><defs><style>.cls-1{fill:#c02026;}.cls-2{fill:#fff;}</style></defs><circle class="cls-1" cx="22.75" cy="22.75" r="22.75"></circle><path class="cls-2" d="M7.65,20.32v.98c0,.39-.05.69-.14.89s-.28.4-.55.58c.26.16.45.35.55.56.1.21.15.52.15.92v1.06c0,.41.06.66.19.77.13.1.45.16.97.16v1.73c-.13,0-.28,0-.45,0-.17,0-.3,0-.39.01s-.16,0-.22,0c-.5,0-.87-.03-1.11-.1-.24-.06-.44-.19-.61-.37-.24-.26-.36-.69-.36-1.28v-1.64c0-.34-.05-.58-.15-.74-.1-.16-.27-.27-.52-.32v-1.6c.45-.11.67-.44.67-.97v-1.7c0-.61.14-1.04.43-1.31.18-.15.38-.25.6-.3.22-.06.59-.08,1.12-.08.42,0,.74,0,.98.01v1.84c-.47.02-.76.05-.88.1-.11.05-.19.13-.23.25s-.06.31-.06.57Z"></path><path class="cls-2" d="M14.66,25.67l-1.75-3.1v3.1h-1.94v-8h2.59c1.05,0,1.83.2,2.35.6.58.44.86,1.12.86,2.03,0,1.22-.52,2.03-1.55,2.44l1.76,2.94h-2.33ZM12.91,19.26v2.22h.62c.4,0,.71-.1.94-.29.22-.19.34-.46.34-.82s-.11-.61-.32-.81c-.21-.2-.49-.31-.83-.31h-.74Z"></path><path class="cls-2" d="M22.59,19.24h-2.64v1.63h2.64v1.57h-2.64v1.66h2.64v1.57h-4.58v-8h4.58v1.57Z"></path><path class="cls-2" d="M23.67,23.25h1.91s-.01.07-.01.13c0,.2.09.37.28.52.19.14.41.22.67.22.23,0,.43-.06.59-.19s.24-.27.24-.45c0-.19-.08-.34-.23-.44-.16-.13-.47-.27-.92-.43-.87-.31-1.5-.67-1.87-1.06-.38-.4-.56-.9-.56-1.52,0-.75.25-1.36.76-1.81.51-.46,1.18-.7,2.02-.7.54,0,1.02.11,1.45.32s.76.52.99.91c.19.3.33.73.42,1.28h-1.98c-.06-.54-.35-.8-.89-.8-.24,0-.43.06-.58.17-.14.12-.22.27-.22.46,0,.24.12.43.37.58.14.09.44.22.91.4.81.31,1.38.61,1.7.9.45.41.67.94.67,1.61,0,.74-.26,1.34-.79,1.8s-1.22.68-2.08.68-1.56-.23-2.08-.7-.77-1.09-.77-1.88Z"></path><path class="cls-2" d="M35.53,19.24h-1.84v6.43h-1.94v-6.43h-1.85v-1.57h5.63v1.57Z"></path><path class="cls-2" d="M37.86,25.22v-.98c0-.39.05-.69.14-.89s.28-.4.55-.58c-.26-.17-.45-.36-.55-.57-.1-.21-.15-.51-.15-.91v-1.06c0-.29-.03-.48-.05-.57s-.09-.17-.19-.23c-.14-.09-.39-.13-.77-.13h-.17v-1.73c.3,0,.65-.01,1.07-.01.5,0,.87.03,1.11.1.24.06.44.19.61.37.24.26.36.69.36,1.27v1.66c0,.34.05.58.15.74.1.16.27.27.51.32v1.6c-.44.08-.66.4-.66.96v1.7c0,.62-.14,1.06-.43,1.32-.18.15-.38.25-.6.3-.22.06-.58.08-1.1.08-.11,0-.45,0-1.01-.02v-1.82h.17c.42,0,.69-.06.82-.17.13-.1.19-.35.19-.74Z"></path></svg> 