<?xml version="1.0" encoding="UTF-8"?> <svg xmlns="http://www.w3.org/2000/svg" id="Layer_1" viewBox="0 0 42.96 42.96"><defs><style>.cls-1{fill:#6ea9db;}</style></defs><path class="cls-1" d="M39.34,0H3.62C1.62,0,0,1.62,0,3.62v35.71c0,2,1.62,3.62,3.62,3.62h35.71c2,0,3.62-1.62,3.62-3.62V3.62c0-2-1.62-3.62-3.62-3.62ZM27.53,7.55c2,0,3.62,1.62,3.62,3.62s-1.62,3.62-3.62,3.62c-.21,0-.41-.02-.6-.05,1.71-.29,3.02-1.77,3.02-3.57s-1.31-3.28-3.02-3.57c.2-.03.4-.05.6-.05h0ZM32.48,19.66l-3.9-.04-2.27-3.78c.3-.07.59-.18.88-.32l.11-.05,2.49,4.15,3.9.04c.61,0,1.1.5,1.1,1.11v1.42c0,.62-.51,1.12-1.13,1.11h-1.04c.54-.09.96-.55.96-1.11v-1.42c0-.61-.49-1.11-1.1-1.11h0ZM25.14,7.55c2,0,3.62,1.62,3.62,3.62s-1.62,3.62-3.62,3.62c-.21,0-.41-.02-.6-.05,1.71-.29,3.02-1.77,3.02-3.57s-1.31-3.28-3.02-3.57c.2-.03.4-.05.6-.05h0ZM22.74,7.55c2,0,3.62,1.62,3.62,3.62s-1.62,3.62-3.62,3.62c-.21,0-.41-.02-.6-.05,1.71-.29,3.02-1.77,3.02-3.57s-1.31-3.28-3.02-3.57c.2-.03.4-.05.6-.05h0ZM20.25,7.55c2,0,3.62,1.62,3.62,3.62s-1.62,3.62-3.62,3.62-3.62-1.62-3.62-3.62,1.62-3.62,3.62-3.62ZM34.64,36.74h0c-.5.38-1.14.46-1.7.26.17-.06.34-.15.49-.26.81-.62.95-1.78.3-2.58l-8.7-10.68.08-.23h-1.19s-.08.23-.08.23l8.7,10.68c.64.79.51,1.96-.3,2.58h0c-.5.38-1.14.46-1.7.26.17-.06.34-.15.49-.26.81-.62.95-1.78.3-2.58l-8.7-10.68.13-.38-.77-1.28-.56,1.66,8.7,10.68c.64.79.51,1.96-.3,2.58h0c-.5.38-1.14.46-1.7.26.17-.06.34-.15.49-.26.81-.62.95-1.78.3-2.58l-8.7-10.68.99-2.96-.82-1.37-1.44,4.33,8.7,10.68c.64.79.51,1.96-.3,2.58h0c-.77.59-1.87.46-2.49-.29l-2.96-3.6c-.12.02-.25.03-.37.03h-1.21c.48,0,.92-.14,1.29-.38l-.53-.64c-.43.62-1.14,1.02-1.95,1.02h-1.21c1.19,0,2.17-.87,2.35-2.01l-1.17-1.42v1.05c0,1.31-1.07,2.38-2.38,2.38h-1.21c1.31,0,2.38-1.07,2.38-2.38v-2.51l-1.28-1.55v4.07c0,1.31-1.07,2.38-2.38,2.38h-7.23c-.69,0-1.25-.56-1.25-1.25v-1.12c0-.69.56-1.25,1.25-1.25h4.78v-6.03l2.26-6.03h-2.29l-2.18,4.85c-.31.69-1.13.99-1.82.66l-.82-.4c-.66-.32-.95-1.1-.65-1.77l3.11-6.97h6.68c1.25,2.16,3.94,3,6.2,1.94l.11-.05,2.49,4.15,1.87.02h0s-.58-.02-.58-.02l-2.27-3.78c.3-.07.59-.18.88-.32l.11-.05,2.49,4.15,3.9.04c.61,0,1.1.5,1.1,1.11v1.42c0,.62-.51,1.12-1.13,1.11h-1.04c.54-.09.96-.55.96-1.11v-1.42c0-.61-.49-1.11-1.1-1.11l-3.32-.03h0s2.04.03,2.04.03c.61,0,1.1.5,1.1,1.11v1.42c0,.62-.51,1.12-1.13,1.11l-2.46-.03-.07.22,8.7,10.68c.64.79.51,1.96-.3,2.58h0ZM37.19,22.19c0,.62-.51,1.12-1.13,1.11h-1.04c.54-.09.96-.55.96-1.11v-1.42c0-.61-.49-1.11-1.1-1.11l-3.9-.04-2.27-3.78c.3-.07.59-.18.88-.32l.11-.05,2.49,4.15,3.9.04c.61,0,1.1.5,1.1,1.11v1.42h0Z"></path></svg> 