<?xml version="1.0" encoding="UTF-8"?> <svg xmlns="http://www.w3.org/2000/svg" id="Layer_1" viewBox="0 0 60.72 43.29"><defs><style>.cls-1{fill:#fff;}.cls-1,.cls-2{fill-rule:evenodd;}.cls-2{fill:#139fda;}</style></defs><path class="cls-2" d="M25.27,4.72c1.96-2.08,4.68-3.37,7.7-3.37,4.01,0,7.51,2.28,9.37,5.66,1.66-.76,3.47-1.15,5.3-1.15,7.23,0,13.09,6.02,13.09,13.45s-5.86,13.45-13.09,13.45c-.88,0-1.75-.09-2.58-.26-1.64,2.98-4.77,4.99-8.35,4.99-1.5,0-2.92-.35-4.18-.98-1.66,3.98-5.54,6.77-10.05,6.77s-8.71-3.03-10.25-7.28c-.68.15-1.38.22-2.08.22C4.54,36.23,0,31.56,0,25.8c0-1.83.46-3.62,1.35-5.21.88-1.58,2.17-2.9,3.72-3.83-.64-1.51-.97-3.13-.97-4.77C4.1,5.37,9.38,0,15.89,0c1.82,0,3.61.42,5.23,1.24,1.63.82,3.05,2.01,4.15,3.48h0Z"></path><path class="cls-1" d="M8.8,22.45l.24-.69c.04-.12.13-.08.16-.06.07.04.12.08.21.13.72.47,1.39.47,1.6.47.54,0,.88-.29.88-.69v-.02c0-.43-.52-.59-1.12-.78l-.13-.04c-.82-.24-1.7-.58-1.7-1.64v-.02c0-1.01.8-1.71,1.94-1.71h.12c.67,0,1.32.2,1.79.49.04.03.08.08.06.14l-.25.69c-.04.12-.17.04-.17.04-.49-.26-1.03-.4-1.58-.41-.48,0-.79.26-.79.62v.02c0,.41.53.59,1.15.79l.11.03c.82.26,1.69.63,1.69,1.63v.02c0,1.09-.77,1.76-2.02,1.76-.61,0-1.2-.1-1.82-.43-.12-.07-.23-.13-.35-.21-.01-.02-.06-.04-.03-.14h0ZM27.03,22.45l.25-.69c.04-.12.14-.07.16-.06.07.04.12.08.21.13.72.47,1.39.47,1.61.47.54,0,.88-.29.88-.69v-.02c0-.43-.52-.59-1.11-.78l-.13-.04c-.82-.24-1.7-.58-1.7-1.64v-.02c0-1.01.8-1.71,1.94-1.71h.12c.67,0,1.32.2,1.79.49.04.03.08.08.06.14-.02.06-.23.63-.25.69-.05.12-.17.04-.17.04-.49-.26-1.03-.4-1.58-.41-.48,0-.79.26-.79.62v.02c0,.41.53.59,1.15.79l.11.03c.82.26,1.69.63,1.69,1.63v.02c0,1.09-.77,1.76-2.02,1.76-.63.02-1.26-.13-1.81-.43-.12-.07-.23-.13-.35-.21-.01-.02-.07-.04-.03-.14h0ZM40.52,19.18c.1.35.15.73.15,1.14s-.05.79-.15,1.14c-.09.34-.25.65-.47.92-.22.26-.49.47-.8.61-.32.15-.69.22-1.11.22-.38,0-.76-.07-1.11-.22-.31-.14-.58-.35-.8-.61-.22-.27-.38-.58-.47-.92-.1-.37-.16-.75-.15-1.14,0-.41.05-.79.15-1.14.1-.35.26-.66.47-.92.22-.26.49-.47.8-.62.32-.15.69-.23,1.11-.23s.8.08,1.11.23c.32.15.59.36.8.62.21.26.37.57.47.92h0ZM39.48,20.32c0-.62-.11-1.1-.33-1.43-.22-.34-.55-.5-1.01-.5s-.79.16-1.01.5c-.22.34-.33.82-.33,1.43s.11,1.1.33,1.44c.22.34.55.5,1.01.5s.79-.17,1.01-.5c.22-.34.33-.83.33-1.44h0ZM49.06,22.1l.26.72c.03.09-.04.13-.04.13-.39.15-.94.27-1.47.27-.9,0-1.59-.26-2.05-.79-.46-.52-.69-1.23-.69-2.11,0-.41.06-.79.17-1.14.12-.35.28-.66.51-.92.23-.27.52-.48.84-.62.33-.15.72-.23,1.16-.23.3,0,.56.02.78.05.24.04.56.12.69.18.02,0,.09.04.07.12-.1.28-.17.47-.26.72-.04.11-.12.07-.12.07-.35-.11-.73-.17-1.1-.16-.52,0-.9.17-1.15.52-.26.34-.4.8-.4,1.4,0,.66.16,1.15.45,1.45.29.3.69.45,1.19.45.2,0,.4-.01.57-.04.17-.03.33-.08.48-.14,0,0,.1-.04.13.07h0ZM54.38,18.99c.23.81.11,1.5.1,1.54,0,.09-.1.09-.1.09h-3.52c.02.54.15.93.41,1.19.26.26.66.42,1.21.42.84,0,1.19-.17,1.45-.27,0,0,.1-.03.13.06l.23.66c.04.11,0,.15-.03.17-.22.12-.76.36-1.77.36-.44.01-.87-.06-1.28-.21-.34-.13-.64-.33-.88-.6-.24-.26-.41-.57-.51-.91-.11-.37-.16-.76-.16-1.14,0-.41.05-.79.15-1.14.1-.36.26-.67.47-.93.22-.27.5-.48.81-.63.32-.15.72-.23,1.16-.23.38,0,.72.08,1.01.21.22.1.44.27.67.52.14.16.36.5.45.84h0ZM50.88,19.73h2.51c-.02-.33-.09-.62-.23-.85-.1-.17-.25-.3-.42-.4-.17-.09-.37-.13-.56-.12-.46,0-.79.18-1.01.52-.15.26-.25.55-.28.85h0ZM26.19,18.98c.23.81.11,1.51.11,1.54,0,.09-.1.09-.1.09h-3.52c.02.54.15.93.41,1.19.25.26.66.42,1.2.42.84,0,1.19-.17,1.45-.27,0,0,.1-.03.13.06l.23.66c.05.11,0,.15-.03.17-.22.12-.76.36-1.77.36-.43.01-.87-.06-1.28-.21-.34-.13-.64-.33-.89-.6-.24-.26-.41-.57-.51-.91-.11-.37-.16-.76-.16-1.14,0-.41.05-.79.15-1.14.1-.34.26-.66.48-.93.22-.27.5-.48.81-.63.32-.15.72-.23,1.16-.23.35,0,.69.07,1.01.21.22.1.44.27.67.52.14.16.36.5.45.84h0ZM22.69,19.73h2.51c-.03-.33-.09-.62-.23-.85-.1-.17-.25-.3-.42-.4-.17-.09-.37-.13-.56-.12-.46,0-.79.18-1.01.52-.15.26-.25.55-.28.85h0ZM16.48,19.56s.28.03.58.07v-.15c0-.48-.1-.7-.29-.85-.2-.15-.49-.23-.87-.23,0,0-.86-.01-1.53.36-.03.02-.06.03-.06.03,0,0-.08.03-.12-.06l-.25-.68c-.04-.1.03-.14.03-.14.32-.25,1.08-.4,1.08-.4.31-.06.63-.09.94-.09.7,0,1.25.17,1.62.5.37.33.56.86.56,1.58v3.28s0,.1-.08.12c0,0-.13.04-.25.07-.12.03-.54.12-.89.17-.35.06-.71.09-1.07.09-.31,0-.63-.03-.93-.1-.26-.06-.5-.16-.72-.32-.2-.15-.35-.34-.46-.56-.12-.26-.17-.54-.16-.82,0-.31.06-.59.19-.83.12-.23.3-.44.51-.59.22-.16.47-.28.73-.35.28-.08.57-.12.87-.12.22,0,.41,0,.55.02h0ZM15.08,22.08s.32.25,1.03.21c.5-.03.95-.13.95-.13v-1.63s-.45-.08-.96-.08c-.72,0-1.02.26-1.02.26-.21.15-.32.38-.32.69,0,.2.03.36.11.47.05.08.12.16.2.21h0ZM44.87,17.72c-.09.25-.17.5-.27.75-.02.06-.06.11-.13.1,0,0-.2-.05-.39-.05-.16,0-.32.02-.47.07-.16.05-.31.14-.43.27-.14.15-.25.33-.31.53-.08.22-.12.58-.12.94v2.67s0,.03,0,.04c0,.02-.02.04-.04.05-.02.01-.04.02-.06.02h-.92s-.03,0-.04,0c-.01,0-.03-.01-.04-.02-.01,0-.02-.02-.02-.03,0-.01,0-.03,0-.04v-5.35c0-.06.04-.11.1-.11h.9c.06,0,.1.05.1.11v.44c.16-.19.36-.35.6-.45.28-.13.6-.18.91-.15.23.01.53.08.59.1.01,0,.02.01.03.02,0,0,.02.02.02.03,0,.01,0,.02,0,.04,0,.01,0,.03,0,.04h0ZM36.19,15.24s.09.04.07.12l-.27.75c-.02.06-.04.09-.15.06-.15-.05-.31-.08-.47-.08-.13,0-.26.02-.38.06-.11.04-.21.1-.29.18-.11.11-.19.24-.25.38-.13.38-.18.78-.19.81h1.13c.09,0,.12.04.12.12l-.13.75c-.02.11-.12.1-.12.1h-1.16l-.79,4.57c-.07.41-.17.81-.31,1.2-.1.3-.26.57-.46.8-.17.21-.4.36-.65.46-.24.09-.54.14-.86.14-.29,0-.57-.04-.84-.15-.04-.02-.08-.07-.05-.14.02-.07.23-.65.26-.73.04-.09.13-.06.13-.06.06.03.12.05.19.06.09.02.19.03.28.03.15,0,.29-.02.42-.06.13-.05.24-.13.32-.25.11-.16.19-.33.25-.51.08-.22.15-.52.21-.88l.79-4.49h-.78c-.09,0-.12-.04-.12-.12l.13-.75c.02-.11.12-.1.12-.1h.8l.04-.24c.12-.72.36-1.27.71-1.63.35-.36.85-.54,1.49-.54.28,0,.56.04.83.12h0ZM20.47,22.99c0,.06-.04.11-.1.11h-.93c-.06,0-.1-.05-.1-.11v-7.65c0-.06.04-.11.1-.11h.93c.06,0,.1.05.1.11v7.65h0Z"></path></svg> 