<?xml version="1.0" encoding="UTF-8"?> <svg xmlns="http://www.w3.org/2000/svg" xmlns:xlink="http://www.w3.org/1999/xlink" id="Layer_1" viewBox="0 0 48 23.75"><defs><style>.cls-1{fill:none;}.cls-2{fill:#fff;}.cls-2,.cls-3{fill-rule:evenodd;}.cls-3{fill:url(#linear-gradient);}.cls-4{clip-path:url(#clippath);}</style><clipPath id="clippath"><rect class="cls-1" width="48" height="23.75"></rect></clipPath><linearGradient id="linear-gradient" x1="24" y1="1232.06" x2="24" y2="1208.32" gradientTransform="translate(0 1232.06) scale(1 -1)" gradientUnits="userSpaceOnUse"><stop offset="0" stop-color="#16aee5"></stop><stop offset=".21" stop-color="#0c99d5"></stop><stop offset=".52" stop-color="#0180c3"></stop><stop offset=".79" stop-color="#046eb6"></stop><stop offset="1" stop-color="#036ab3"></stop></linearGradient></defs><g class="cls-4"><path class="cls-3" d="M0,23.75h24.26L48,0H0v23.75Z"></path><path class="cls-2" d="M28.49,4.46h-4.73s0,11.23,0,11.23l-4.13-11.23h-4.09l-3.52,9.4c-.38-2.37-2.83-3.19-4.75-3.8-1.27-.41-2.62-1.01-2.61-1.67.01-.55.72-1.05,2.14-.98.95.05,1.79.13,3.46.93l1.64-2.86c-1.52-.77-3.63-1.26-5.35-1.27h-.01c-2.01,0-3.69.65-4.73,1.73-.72.75-1.11,1.7-1.13,2.76-.03,1.45.51,2.48,1.62,3.3.94.69,2.15,1.14,3.21,1.47,1.31.41,2.38.76,2.37,1.51,0,.27-.11.53-.31.74-.33.34-.83.46-1.52.48-1.34.03-2.33-.18-3.91-1.12l-1.46,2.9c1.58.9,3.44,1.42,5.35,1.42h.25c1.66-.03,3-.51,4.07-1.37.06-.05.12-.1.17-.15l-.47,1.27h4.29l.72-2.19c.75.26,1.61.4,2.52.4s1.72-.14,2.46-.38l.69,2.17h7v-4.54h1.53c3.69,0,5.87-1.88,5.87-5.03,0-3.51-2.12-5.12-6.64-5.12h0ZM17.57,14.08c-.55,0-1.07-.1-1.51-.26l1.5-4.72h.03l1.47,4.74c-.44.16-.95.25-1.48.25h0ZM28.76,11.36h-1.04v-3.81h1.04c1.39,0,2.5.46,2.5,1.88s-1.11,1.93-2.5,1.93Z"></path></g></svg> 