<?xml version="1.0" encoding="UTF-8"?> <svg xmlns="http://www.w3.org/2000/svg" id="Layer_1" viewBox="0 0 45 43.64"><defs><style>.cls-1,.cls-2{fill:#204199;}.cls-3{fill:#3d60ab;}.cls-3,.cls-2,.cls-4{fill-rule:evenodd;}.cls-4{fill:#4a7bbd;}</style></defs><path class="cls-3" d="M0,2.91C0,1.3,1.34,0,3,0h9.34c.98,0,1.89.46,2.45,1.24l2.59,3.57h17.47c1.66,0,3,1.3,3,2.91v2.75c0,.8-.67,1.45-1.5,1.45s-1.5-.65-1.5-1.45v-2.75h-17.47c-.98,0-1.89-.46-2.45-1.24l-2.59-3.57H3v28.34h14.68c.83,0,1.5.65,1.5,1.45s-.67,1.45-1.5,1.45H3c-1.66,0-3-1.3-3-2.91V2.91Z"></path><path class="cls-4" d="M34.87,18.04c.06,0,.13-.01.2-.01.03,0,.07,0,.1,0,.03,0,.07,0,.1,0,.07,0,.13,0,.2.01,1.66.1,3.21.83,4.36,2.02,1.24,1.29,1.92,3.01,1.92,4.79v2.85c1.9.17,3.25,1.79,3.25,3.59v8.75c0,1.9-1.51,3.6-3.57,3.6h-12.96c-2.06,0-3.57-1.7-3.57-3.6v-8.75c0-1.9,1.51-3.6,3.57-3.6h.12v-2.84c0-1.78.68-3.5,1.92-4.79,1.15-1.19,2.7-1.92,4.36-2.02h0ZM35.17,20.94c-.91.03-1.79.41-2.47,1.11-.7.73-1.11,1.73-1.11,2.8v2.84h7.16v-2.84c0-1.07-.41-2.07-1.11-2.8-.67-.7-1.56-1.08-2.47-1.11h0ZM28.46,30.6c-.23,0-.57.22-.57.69v8.75c0,.47.35.69.57.69h12.96c.23,0,.57-.22.57-.69v-8.75c0-.47-.35-.69-.57-.69h-12.96ZM34.94,32.84c.83,0,1.5.65,1.5,1.45v2.58c0,.8-.67,1.45-1.5,1.45s-1.5-.65-1.5-1.45v-2.58c0-.8.67-1.45,1.5-1.45Z"></path><path class="cls-1" d="M9,11.82c-1.45,0-2.62,1.14-2.62,2.55v1.82c0,1.61,1.34,2.91,3,2.91.41,0,.75.33.75.73v1.82c0,.2-.17.36-.38.36h-2.25c-.62,0-1.12.49-1.12,1.09s.5,1.09,1.12,1.09h2.25c1.45,0,2.62-1.14,2.62-2.55v-1.82c0-1.61-1.34-2.91-3-2.91-.41,0-.75-.33-.75-.73v-1.82c0-.2.17-.36.38-.36h2.25c.62,0,1.12-.49,1.12-1.09s-.5-1.09-1.12-1.09h-2.25ZM14.08,11.82c-.62,0-1.12.49-1.12,1.09v10.18c0,.6.5,1.09,1.12,1.09s1.13-.49,1.13-1.09v-4h1.1c.62,0,1.12-.49,1.12-1.09s-.5-1.09-1.12-1.09h-1.1v-2.91h1.85c.62,0,1.12-.49,1.12-1.09s-.5-1.09-1.12-1.09h-2.97Z"></path><path class="cls-2" d="M25.87,12.91c0-.6.5-1.09,1.12-1.09h2.25c1.45,0,2.62,1.14,2.62,2.55v1.45c0,1.41-1.18,2.55-2.62,2.55h-1.12v4.73c0,.6-.5,1.09-1.12,1.09s-1.12-.49-1.12-1.09v-10.18ZM28.12,16.18h1.12c.21,0,.38-.16.38-.36v-1.45c0-.2-.17-.36-.38-.36h-1.12v2.18Z"></path><path class="cls-1" d="M24.27,11.82h-4.5c-.62,0-1.12.49-1.12,1.09,0,.6.5,1.09,1.13,1.09h1.12v9.09c0,.6.5,1.09,1.12,1.09s1.12-.49,1.12-1.09v-9.09h1.12c.62,0,1.12-.49,1.12-1.09,0-.6-.5-1.09-1.12-1.09Z"></path></svg> 