<?xml version="1.0" encoding="UTF-8"?> <svg xmlns="http://www.w3.org/2000/svg" id="Layer_1" viewBox="0 0 44.75 43.72"><defs><style>.cls-1{fill:none;}.cls-2{opacity:.1;}.cls-2,.cls-3{isolation:isolate;}.cls-3{opacity:.2;}.cls-4{fill:#37c6d0;}.cls-5{fill:#fff;}.cls-6{fill:#036c70;}.cls-7{fill:#1a9ba1;}.cls-8{fill:#03787c;}</style></defs><circle class="cls-6" cx="21.19" cy="14.18" r="11.23"></circle><circle class="cls-7" cx="31.68" cy="24.08" r="9.61"></circle><circle class="cls-4" cx="22.37" cy="33.09" r="7.68"></circle><path class="cls-2" d="M23.16,11.22h-12.81c-1.63,5.99,1.91,12.16,7.9,13.79.96.26,1.95.39,2.94.39.33,0,.65-.02.97-.04v.04c-4.16.11-7.48,3.52-7.48,7.68,0,.2,0,.4.02.59h8.45c.87,0,1.57-.71,1.58-1.58V12.8c0-.87-.71-1.57-1.58-1.58Z"></path><path class="cls-3" d="M21.98,12.4h-11.88c-.98,6.13,3.2,11.89,9.33,12.86.58.09,1.17.14,1.76.14.33,0,.65-.02.97-.04v.04c-4.24.12-7.59,3.65-7.47,7.9.01.53.08,1.05.2,1.56h7.09c.87,0,1.57-.71,1.58-1.58V13.98c0-.87-.71-1.57-1.58-1.58Z"></path><path class="cls-3" d="M21.98,12.4h-11.88c-.98,6.13,3.2,11.89,9.33,12.86.58.09,1.17.14,1.76.14.33,0,.65-.02.97-.04v.04c-3.93.1-7.15,3.17-7.45,7.09h7.27c.87,0,1.57-.71,1.58-1.58V13.98c0-.87-.71-1.57-1.58-1.58Z"></path><path class="cls-3" d="M20.8,12.4h-10.7c-.98,6.13,3.2,11.89,9.33,12.86.58.09,1.17.14,1.76.14.33,0,.65-.02.97-.04v.04c-3.93.1-7.15,3.17-7.45,7.09h6.09c.87,0,1.57-.71,1.58-1.58V13.98c0-.87-.71-1.57-1.58-1.58Z"></path><path class="cls-8" d="M5.03,12.4h15.76c.87,0,1.58.71,1.58,1.58h0v15.76c0,.87-.71,1.58-1.58,1.58H5.03c-.87,0-1.58-.71-1.58-1.58h0v-15.76c0-.87.71-1.58,1.58-1.58h0Z"></path><path class="cls-5" d="M10.16,21.65c-.4-.26-.73-.62-.97-1.03-.23-.43-.35-.92-.34-1.41-.02-.66.2-1.31.63-1.82.45-.51,1.03-.89,1.67-1.09.74-.24,1.51-.36,2.29-.35,1.02-.04,2.04.11,3.01.42v2.13c-.42-.26-.88-.44-1.36-.56-.52-.13-1.06-.19-1.59-.19-.57-.02-1.13.1-1.64.35-.39.17-.65.56-.65.98,0,.26.1.51.28.7.21.22.46.4.74.53.31.15.77.36,1.39.61.07.02.14.05.2.08.61.24,1.19.53,1.75.87.42.26.78.62,1.04,1.04.27.48.4,1.03.37,1.57.03.68-.18,1.35-.59,1.9-.41.5-.96.87-1.58,1.06-.73.23-1.49.34-2.25.33-.68,0-1.36-.05-2.04-.17-.57-.09-1.13-.25-1.66-.48v-2.25c.51.36,1.07.63,1.67.8.6.19,1.22.29,1.84.3.58.04,1.16-.09,1.67-.35.36-.21.57-.59.56-1,0-.29-.11-.56-.31-.77-.25-.25-.55-.45-.87-.61-.37-.19-.92-.43-1.64-.73-.57-.23-1.12-.52-1.64-.86h0Z"></path><path class="cls-1" d="M3.46,2.95h37.83v37.83H3.46V2.95Z"></path></svg> 