<?xml version="1.0" encoding="UTF-8"?> <svg xmlns="http://www.w3.org/2000/svg" id="Layer_1" viewBox="0 0 44.4 43.29"><defs><style>.cls-1{fill:#2ab4e7;fill-rule:evenodd;}</style></defs><path class="cls-1" d="M14.83,22.43c.09-.29.13-.58.12-.88-.02-.46-.16-.91-.4-1.31-.24-.39-.58-.72-.99-.94l-9.41-5.27c-1.33-.74-3.02-.3-3.78.99-.77,1.28-.31,2.93,1.01,3.67l5.26,2.95-5.26,2.94c-1.33.74-1.78,2.39-1.01,3.68.76,1.28,2.46,1.72,3.78.98l9.41-5.27c.63-.35,1.07-.91,1.26-1.54h0ZM17.38,27.37c-.56-.05-1.12.07-1.61.35l-9.41,5.27c-1.32.74-1.78,2.39-1.01,3.68.77,1.28,2.46,1.73,3.78.98l5.27-2.95v5.9c0,1.49,1.24,2.69,2.77,2.69s2.77-1.2,2.77-2.69v-10.54c0-1.42-1.13-2.58-2.56-2.68h0ZM27.02,15.91c.54.04,1.1-.07,1.61-.35l9.41-5.27c1.33-.74,1.78-2.39,1.01-3.68-.76-1.28-2.46-1.73-3.78-.98l-5.27,2.96V2.69c0-1.48-1.24-2.69-2.77-2.69s-2.77,1.21-2.77,2.69v10.55c0,1.41,1.13,2.58,2.56,2.68h0ZM6.36,10.29l9.41,5.27c.51.28,1.07.39,1.61.35,1.43-.1,2.56-1.27,2.56-2.68V2.69c0-1.48-1.24-2.69-2.77-2.69s-2.77,1.21-2.77,2.69v5.9l-5.27-2.96c-1.32-.74-3.01-.3-3.78.98-.76,1.29-.31,2.93,1.01,3.68ZM24.05,21.62c-.01-.18-.09-.35-.21-.48l-1.13-1.09c-.14-.12-.31-.19-.49-.2h-.04c-.18,0-.35.08-.49.2l-1.13,1.09c-.12.13-.19.3-.2.48v.04c0,.15.09.36.2.47l1.13,1.1c.11.11.33.2.49.2h.04c.18,0,.35-.08.49-.2l1.13-1.1c.12-.13.19-.3.21-.47v-.04h0ZM27.18,22.68l-3.91,3.79c-.14.12-.31.19-.49.2h-1.15c-.18-.01-.35-.08-.49-.2l-3.91-3.79c-.12-.13-.19-.3-.2-.47v-1.12c0-.16.09-.37.2-.48l3.91-3.79c.14-.12.31-.19.49-.2h1.15c.16,0,.38.09.49.2l3.91,3.79c.11.11.2.32.2.48v1.12c0,.18-.08.35-.2.47h0ZM38.03,32.99l-9.41-5.27c-.49-.28-1.05-.4-1.61-.35-1.43.1-2.56,1.26-2.56,2.68v10.55c0,1.49,1.23,2.69,2.77,2.69s2.77-1.2,2.77-2.69v-5.9l5.27,2.95c1.32.75,3.02.3,3.78-.98.76-1.29.31-2.94-1.01-3.68h0ZM43.01,18.7l-5.26,2.95,5.26,2.94c1.33.74,1.78,2.39,1.01,3.68-.76,1.28-2.46,1.72-3.78.98l-9.41-5.27c-.43-.24-.78-.59-1.02-1.01-.24-.42-.37-.91-.36-1.4,0-.21.04-.42.1-.64.19-.66.63-1.24,1.28-1.61l9.41-5.27c1.32-.74,3.02-.3,3.78.99.77,1.28.31,2.93-1.01,3.67h0Z"></path></svg> 