<?xml version="1.0" encoding="UTF-8"?> <svg xmlns="http://www.w3.org/2000/svg" xmlns:xlink="http://www.w3.org/1999/xlink" id="Layer_1" viewBox="0 0 41.82 41.82"><defs><style>.cls-1{fill:url(#linear-gradient-2);}.cls-2{fill:url(#linear-gradient);}.cls-3{fill:#fff;}</style><linearGradient id="linear-gradient" x1="-.75" y1="687.79" x2="48.99" y2="638.05" gradientTransform="translate(0 687.04) scale(1 -1)" gradientUnits="userSpaceOnUse"><stop offset="0" stop-color="#4e7bbd"></stop><stop offset=".4" stop-color="#3869b1"></stop><stop offset=".76" stop-color="#2e5ca9"></stop><stop offset="1" stop-color="#2957a6"></stop></linearGradient><linearGradient id="linear-gradient-2" x1="20.91" y1="684.58" x2="20.91" y2="659.87" gradientTransform="translate(0 687.04) scale(1 -1)" gradientUnits="userSpaceOnUse"><stop offset="0" stop-color="#ee9721"></stop><stop offset="1" stop-color="#e06025"></stop></linearGradient></defs><path class="cls-2" d="M41.82,20.91c0,11.55-9.36,20.91-20.91,20.91S0,32.46,0,20.91,9.36,0,20.91,0s20.91,9.36,20.91,20.91Z"></path><path class="cls-1" d="M30.34,15.16c-.33,0-.65-.1-.92-.3-.27-.19-.47-.46-.57-.78-.55-1.67-1.62-3.12-3.04-4.15-1.43-1.03-3.14-1.58-4.89-1.58s-3.47.55-4.89,1.58c-1.43,1.03-2.49,2.48-3.04,4.15-.06.2-.17.38-.3.53-.13.16-.3.28-.48.38s-.39.15-.59.16c-.21.01-.41-.01-.61-.08-.39-.13-.72-.41-.91-.78-.19-.37-.22-.8-.09-1.19,1.57-4.7,5.96-7.87,10.92-7.87s9.35,3.17,10.92,7.87c.08.24.1.49.06.73s-.13.48-.28.68c-.14.2-.33.37-.55.48-.22.11-.46.17-.71.17h0Z"></path><path class="cls-3" d="M9.61,19.67c.06-.09.14-.17.23-.22.09-.06.2-.09.31-.09.69,0,1.37-.03,2.06,0,.16.02.32.09.43.21.12.12.19.27.2.44.67,2.74,2.73,12.34,2.86,13.12.17-1.11,2.38-9.85,3.26-13.13.04-.18.14-.34.28-.46s.33-.18.51-.18c.76-.01,1.53-.01,2.29,0,.21-.02.41.04.58.15s.3.29.36.48c.66,2.39,3.22,12.7,3.31,13.13,1.4-7.5,2.28-11.25,2.72-13.2.05-.18.16-.34.32-.44.15-.11.34-.15.53-.13.61,0,1.23-.02,1.85.01.17.01.32.11.41.26.04.07.07.15.08.24,0,.08,0,.17-.04.25-1.24,4.57-2.47,9.15-3.71,13.72-.03.18-.13.34-.27.46-.14.12-.31.19-.5.19-.96.03-1.92,0-2.87.01-.17.02-.34-.02-.48-.11-.14-.1-.24-.24-.28-.41-.86-3.15-2.98-11.67-3.11-12.8-.16,1-2.25,9.49-3.12,12.73-.1.52-.7.63-1.14.6-.89-.02-1.78.02-2.67-.02-.15,0-.29-.06-.41-.16-.11-.1-.19-.24-.21-.38-1.25-4.55-2.5-9.11-3.74-13.66-.03-.2-.05-.4-.05-.6"></path></svg> 