<?xml version="1.0" encoding="UTF-8"?> <svg xmlns="http://www.w3.org/2000/svg" id="Layer_1" viewBox="0 0 44.75 44.82"><defs><style>.cls-1{fill:#19b3e8;}.cls-2{fill:#fff;}</style></defs><path class="cls-1" d="M22.37,44.82c12.36,0,22.37-10.03,22.37-22.41,0-12.38-10.02-22.41-22.37-22.41S0,10.03,0,22.41s10.02,22.41,22.37,22.41"></path><path class="cls-2" d="M10.89,22.35l3.82-3.84c.25-.29.22-.72-.07-.97-.26-.23-.65-.22-.91,0l-3.82,3.82-3.83-3.83c-.27-.27-.7-.26-.97,0-.27.27-.26.7,0,.97l3.82,3.82-3.82,3.83c-.28.26-.29.69-.04.97.26.28.69.29.97.04.01,0,.02-.02.03-.03l3.83-3.83,3.81,3.81c.26.27.69.29.96.03.14-.13.22-.31.21-.5,0-.18-.07-.36-.2-.48l-3.82-3.83M33.58,22.35c0,.69.56,1.25,1.25,1.25.69,0,1.25-.56,1.24-1.25s-.56-1.25-1.25-1.24c-.68,0-1.24.56-1.24,1.25M31.23,22.35c0-1.99,1.61-3.61,3.6-3.61s3.6,1.62,3.6,3.61-1.62,3.61-3.6,3.61c-1.99,0-3.6-1.62-3.6-3.61M29.81,22.35c0,2.77,2.25,5.03,5.02,5.03s5.02-2.25,5.02-5.02-2.25-5.03-5.02-5.03c-2.77,0-5.02,2.25-5.02,5.03M29.45,17.41h-.21c-.63,0-1.24.2-1.75.59-.07-.31-.35-.54-.67-.54-.37,0-.68.3-.68.68,0,0,0,0,0,0v8.46c.02.38.35.67.72.65.35-.02.63-.3.65-.65v-5.2c0-1.73.16-2.44,1.64-2.62.14-.02.29-.01.29-.01.4-.01.69-.29.69-.67,0-.38-.31-.69-.69-.69M16.32,21.53s0-.04,0-.06c.49-1.94,2.46-3.11,4.4-2.62,1.31.33,2.33,1.36,2.64,2.68h-7.04,0ZM24.76,21.4c-.29-1.4-1.06-2.55-2.22-3.28-1.72-1.08-3.93-1.02-5.59.15-1.68,1.21-2.46,3.32-1.97,5.34.52,2,2.2,3.49,4.26,3.75.61.07,1.2.04,1.8-.12.53-.13,1.04-.35,1.5-.64.49-.31.89-.72,1.29-1.22,0,0,.01-.02.02-.03.27-.34.22-.82-.08-1.05-.25-.19-.68-.27-1.01.16-.07.1-.15.21-.24.31-.27.29-.6.58-.99.8-.5.27-1.08.42-1.68.43-1.99-.02-3.05-1.41-3.43-2.41-.07-.19-.12-.38-.15-.58v-.1s7.13,0,7.13,0c.98-.02,1.5-.71,1.36-1.5h0Z"></path></svg> 