<?xml version="1.0" encoding="UTF-8"?>
<svg id="Calque_1" data-name="Calque 1" xmlns="http://www.w3.org/2000/svg" xmlns:xlink="http://www.w3.org/1999/xlink" viewBox="0 0 655.41 184.57">
  <defs>
    <style>
      .cls-1 {
        fill: #006199;
      }

      .cls-1, .cls-2, .cls-3, .cls-4, .cls-5, .cls-6, .cls-7, .cls-8, .cls-9, .cls-10, .cls-11, .cls-12, .cls-13, .cls-14, .cls-15, .cls-16, .cls-17, .cls-18, .cls-19, .cls-20, .cls-21, .cls-22, .cls-23, .cls-24, .cls-25, .cls-26, .cls-27, .cls-28, .cls-29, .cls-30, .cls-31, .cls-32, .cls-33, .cls-34, .cls-35, .cls-36, .cls-37, .cls-38, .cls-39, .cls-40, .cls-41, .cls-42, .cls-43, .cls-44, .cls-45, .cls-46, .cls-47, .cls-48, .cls-49, .cls-50, .cls-51, .cls-52, .cls-53, .cls-54, .cls-55, .cls-56, .cls-57, .cls-58, .cls-59, .cls-60, .cls-61, .cls-62, .cls-63, .cls-64, .cls-65, .cls-66, .cls-67, .cls-68, .cls-69, .cls-70, .cls-71, .cls-72, .cls-73, .cls-74, .cls-75, .cls-76, .cls-77, .cls-78, .cls-79, .cls-80, .cls-81, .cls-82, .cls-83, .cls-84, .cls-85, .cls-86, .cls-87, .cls-88, .cls-89, .cls-90, .cls-91, .cls-92, .cls-93, .cls-94, .cls-95, .cls-96, .cls-97, .cls-98, .cls-99, .cls-100, .cls-101, .cls-102, .cls-103, .cls-104, .cls-105, .cls-106, .cls-107, .cls-108, .cls-109, .cls-110, .cls-111, .cls-112, .cls-113, .cls-114, .cls-115, .cls-116, .cls-117, .cls-118, .cls-119, .cls-120, .cls-121, .cls-122, .cls-123, .cls-124, .cls-125, .cls-126, .cls-127, .cls-128, .cls-129, .cls-130, .cls-131, .cls-132, .cls-133, .cls-134, .cls-135, .cls-136, .cls-137, .cls-138, .cls-139, .cls-140, .cls-141, .cls-142, .cls-143, .cls-144, .cls-145, .cls-146, .cls-147, .cls-148, .cls-149, .cls-150, .cls-151, .cls-152, .cls-153, .cls-154, .cls-155, .cls-156, .cls-157, .cls-158, .cls-159, .cls-160, .cls-161, .cls-162, .cls-163, .cls-164, .cls-165, .cls-166, .cls-167, .cls-168, .cls-169, .cls-170, .cls-171, .cls-172, .cls-173, .cls-174, .cls-175, .cls-176, .cls-177, .cls-178, .cls-179, .cls-180, .cls-181, .cls-182, .cls-183, .cls-184, .cls-185, .cls-186, .cls-187, .cls-188, .cls-189, .cls-190, .cls-191, .cls-192, .cls-193, .cls-194, .cls-195, .cls-196, .cls-197, .cls-198, .cls-199, .cls-200, .cls-201, .cls-202, .cls-203, .cls-204, .cls-205, .cls-206, .cls-207, .cls-208, .cls-209, .cls-210, .cls-211, .cls-212, .cls-213, .cls-214, .cls-215, .cls-216, .cls-217, .cls-218, .cls-219, .cls-220, .cls-221, .cls-222, .cls-223, .cls-224, .cls-225, .cls-226, .cls-227, .cls-228, .cls-229, .cls-230, .cls-231, .cls-232, .cls-233, .cls-234, .cls-235, .cls-236, .cls-237, .cls-238, .cls-239, .cls-240, .cls-241, .cls-242, .cls-243, .cls-244, .cls-245, .cls-246, .cls-247, .cls-248, .cls-249, .cls-250, .cls-251, .cls-252, .cls-253 {
        stroke-width: 0px;
      }

      .cls-2 {
        fill: #ffd500;
      }

      .cls-3 {
        fill: #00467d;
      }

      .cls-4 {
        fill: #006ea8;
      }

      .cls-5 {
        fill: #005991;
      }

      .cls-6 {
        fill: #fab630;
      }

      .cls-7 {
        fill: #008ece;
      }

      .cls-8 {
        fill: #004c83;
      }

      .cls-9 {
        fill: #fcbd2a;
      }

      .cls-10 {
        fill: #0085c3;
      }

      .cls-11 {
        fill: #ffe700;
      }

      .cls-12 {
        fill: #f9b233;
      }

      .cls-13 {
        fill: #0097da;
      }

      .cls-14 {
        fill: #242c64;
      }

      .cls-15 {
        fill: #00528a;
      }

      .cls-16 {
        fill: #232d65;
      }

      .cls-17 {
        fill: #004d84;
      }

      .cls-18 {
        fill: #ffd201;
      }

      .cls-19 {
        fill: #00588f;
      }

      .cls-20 {
        fill: #00649d;
      }

      .cls-21 {
        fill: #fec81d;
      }

      .cls-22 {
        fill: #00437a;
      }

      .cls-23 {
        fill: #1b356d;
      }

      .cls-24 {
        fill: #00578e;
      }

      .cls-25 {
        fill: #103c74;
      }

      .cls-26 {
        fill: #ffcf0b;
      }

      .cls-27 {
        fill: #008fd0;
      }

      .cls-28 {
        fill: #0068a1;
      }

      .cls-29 {
        fill: #005990;
      }

      .cls-30 {
        fill: #ffde00;
      }

      .cls-31 {
        fill: #fdc521;
      }

      .cls-32 {
        fill: #143a71;
      }

      .cls-33 {
        fill: #feca18;
      }

      .cls-254 {
        clip-path: url(#clippath);
      }

      .cls-34 {
        fill: #212f67;
      }

      .cls-35 {
        fill: #00487f;
      }

      .cls-36 {
        fill: #fcc027;
      }

      .cls-37 {
        fill: #0078b3;
      }

      .cls-38 {
        fill: none;
      }

      .cls-39 {
        fill: #0075b0;
      }

      .cls-40 {
        fill: #ffe100;
      }

      .cls-41 {
        fill: #0098da;
      }

      .cls-42 {
        fill: #fcbe2a;
      }

      .cls-43 {
        fill: #1c346c;
      }

      .cls-44 {
        fill: #0091d1;
      }

      .cls-45 {
        fill: #0087c5;
      }

      .cls-46 {
        fill: #024178;
      }

      .cls-47 {
        fill: #222e66;
      }

      .cls-48 {
        fill: #0070a9;
      }

      .cls-49 {
        fill: #009ce0;
      }

      .cls-50 {
        fill: #ffce10;
      }

      .cls-51 {
        fill: #ffea00;
      }

      .cls-52 {
        fill: #0088c7;
      }

      .cls-53 {
        fill: #203168;
      }

      .cls-54 {
        fill: #00578f;
      }

      .cls-55 {
        fill: #ffd800;
      }

      .cls-56 {
        fill: #005b92;
      }

      .cls-57 {
        fill: #005a92;
      }

      .cls-58 {
        fill: #133b72;
      }

      .cls-59 {
        fill: #005c94;
      }

      .cls-60 {
        fill: #fab82f;
      }

      .cls-61 {
        fill: #123c73;
      }

      .cls-62 {
        fill: #00629b;
      }

      .cls-63 {
        fill: #19376e;
      }

      .cls-64 {
        fill: #0072ad;
      }

      .cls-65 {
        fill: #18386f;
      }

      .cls-66 {
        fill: #0077b2;
      }

      .cls-67 {
        fill: #00669f;
      }

      .cls-68 {
        fill: #ffd300;
      }

      .cls-69 {
        fill: #242b63;
      }

      .cls-70 {
        fill: #009de1;
      }

      .cls-71 {
        fill: #ffe800;
      }

      .cls-72 {
        fill: #006ba4;
      }

      .cls-73 {
        fill: #ffd103;
      }

      .cls-74 {
        fill: #007dba;
      }

      .cls-75 {
        fill: #ffda00;
      }

      .cls-76 {
        fill: #ffd009;
      }

      .cls-77 {
        fill: #09d;
      }

      .cls-78 {
        fill: #0083c1;
      }

      .cls-79 {
        fill: #009ee2;
      }

      .cls-80 {
        fill: #007ab5;
      }

      .cls-81 {
        fill: #005188;
      }

      .cls-82 {
        fill: #ffe200;
      }

      .cls-83 {
        fill: #00629a;
      }

      .cls-84 {
        fill: #0082bf;
      }

      .cls-85 {
        fill: #27275f;
      }

      .cls-86 {
        fill: #fec91b;
      }

      .cls-87 {
        fill: #0095d8;
      }

      .cls-88 {
        fill: #fbba2d;
      }

      .cls-89 {
        fill: #213068;
      }

      .cls-90 {
        fill: #fbbb2c;
      }

      .cls-91 {
        fill: #1d346b;
      }

      .cls-92 {
        fill: #0080bd;
      }

      .cls-93 {
        fill: #008ecf;
      }

      .cls-94 {
        fill: #222f66;
      }

      .cls-95 {
        fill: #0099dc;
      }

      .cls-96 {
        fill: #007eba;
      }

      .cls-97 {
        fill: #0093d5;
      }

      .cls-98 {
        fill: #232c64;
      }

      .cls-99 {
        fill: #009cdf;
      }

      .cls-100 {
        fill: #163970;
      }

      .cls-101 {
        fill: #0091d2;
      }

      .cls-102 {
        fill: #006aa3;
      }

      .cls-103 {
        fill: #fdc422;
      }

      .cls-104 {
        fill: #fdc61f;
      }

      .cls-105 {
        fill: #0069a2;
      }

      .cls-106 {
        fill: #00477e;
      }

      .cls-107 {
        fill: #1a366d;
      }

      .cls-108 {
        fill: #0086c4;
      }

      .cls-109 {
        fill: #009fe3;
      }

      .cls-110 {
        fill: #0071ab;
      }

      .cls-111 {
        fill: #27265f;
      }

      .cls-112 {
        fill: #29235c;
      }

      .cls-113 {
        fill: #fdc324;
      }

      .cls-255 {
        clip-path: url(#clippath-1);
      }

      .cls-114 {
        fill: #009ee3;
      }

      .cls-115 {
        fill: #0094d6;
      }

      .cls-116 {
        fill: #008aca;
      }

      .cls-117 {
        fill: #fab631;
      }

      .cls-118 {
        fill: #fecb17;
      }

      .cls-119 {
        fill: #0096d8;
      }

      .cls-120 {
        fill: #0092d3;
      }

      .cls-121 {
        fill: #1e336a;
      }

      .cls-122 {
        fill: #fdc71e;
      }

      .cls-123 {
        fill: #005289;
      }

      .cls-124 {
        fill: #fbb92e;
      }

      .cls-125 {
        fill: #005f97;
      }

      .cls-126 {
        fill: #009ce1;
      }

      .cls-127 {
        fill: #054078;
      }

      .cls-128 {
        fill: #0081be;
      }

      .cls-129 {
        fill: #00659d;
      }

      .cls-130 {
        fill: #00447b;
      }

      .cls-131 {
        fill: #ffe400;
      }

      .cls-132 {
        fill: #004980;
      }

      .cls-133 {
        fill: #006ba5;
      }

      .cls-134 {
        fill: #fdc620;
      }

      .cls-135 {
        fill: #007db9;
      }

      .cls-136 {
        fill: #1f3169;
      }

      .cls-137 {
        fill: #0070aa;
      }

      .cls-138 {
        fill: #006098;
      }

      .cls-139 {
        fill: #00558c;
      }

      .cls-140 {
        fill: #fec81c;
      }

      .cls-141 {
        fill: #006ea7;
      }

      .cls-142 {
        fill: #004f87;
      }

      .cls-143 {
        fill: #0090d1;
      }

      .cls-144 {
        fill: #fcc126;
      }

      .cls-145 {
        fill: #0071ac;
      }

      .cls-146 {
        fill: #006fa9;
      }

      .cls-147 {
        fill: #009bdf;
      }

      .cls-148 {
        fill: #0095d7;
      }

      .cls-149 {
        fill: #ffd900;
      }

      .cls-150 {
        fill: #00467e;
      }

      .cls-151 {
        fill: #ffdb00;
      }

      .cls-152 {
        fill: #00639b;
      }

      .cls-153 {
        fill: #ffcc14;
      }

      .cls-154 {
        fill: #0094d5;
      }

      .cls-155 {
        fill: #008bcb;
      }

      .cls-156 {
        fill: #fab432;
      }

      .cls-157 {
        fill: #0098db;
      }

      .cls-158 {
        fill: #fbbc2c;
      }

      .cls-159 {
        fill: #0077b3;
      }

      .cls-160 {
        fill: #009add;
      }

      .cls-161 {
        fill: #005087;
      }

      .cls-162 {
        fill: #0073ae;
      }

      .cls-163 {
        fill: #0084c2;
      }

      .cls-164 {
        fill: #004b82;
      }

      .cls-165 {
        fill: #0e3d74;
      }

      .cls-166 {
        fill: #fcbe29;
      }

      .cls-167 {
        fill: #ffdc00;
      }

      .cls-168 {
        fill: #feca19;
      }

      .cls-169 {
        fill: #008dcc;
      }

      .cls-170 {
        fill: #173870;
      }

      .cls-171 {
        fill: #ffe600;
      }

      .cls-172 {
        fill: #004e85;
      }

      .cls-173 {
        fill: #008fcf;
      }

      .cls-174 {
        fill: #ffcf0e;
      }

      .cls-175 {
        fill: #0067a0;
      }

      .cls-176 {
        fill: #009de2;
      }

      .cls-177 {
        fill: #005d95;
      }

      .cls-178 {
        fill: #fdc225;
      }

      .cls-179 {
        fill: #00649c;
      }

      .cls-180 {
        fill: #ffcc15;
      }

      .cls-181 {
        fill: #fbbc2b;
      }

      .cls-182 {
        fill: #ffe300;
      }

      .cls-183 {
        fill: #005e95;
      }

      .cls-184 {
        fill: #f9b333;
      }

      .cls-185 {
        fill: #ffcd12;
      }

      .cls-186 {
        fill: #ffe900;
      }

      .cls-187 {
        fill: #0079b5;
      }

      .cls-188 {
        fill: #fdc323;
      }

      .cls-189 {
        fill: #007cb8;
      }

      .cls-190 {
        fill: #007fbb;
      }

      .cls-191 {
        fill: #0090d0;
      }

      .cls-192 {
        fill: #007ebb;
      }

      .cls-193 {
        fill: #ffd600;
      }

      .cls-194 {
        fill: #fab730;
      }

      .cls-195 {
        fill: #fab531;
      }

      .cls-196 {
        fill: #00437b;
      }

      .cls-197 {
        fill: #009ade;
      }

      .cls-198 {
        fill: #ffed00;
      }

      .cls-199 {
        fill: #008ac9;
      }

      .cls-200 {
        fill: gold;
      }

      .cls-201 {
        fill: #0076b1;
      }

      .cls-202 {
        fill: #0096d9;
      }

      .cls-203 {
        fill: #0079b4;
      }

      .cls-204 {
        fill: #0093d4;
      }

      .cls-205 {
        fill: #ffd400;
      }

      .cls-206 {
        fill: #008dcd;
      }

      .cls-207 {
        fill: #1f326a;
      }

      .cls-208 {
        fill: #004a81;
      }

      .cls-209 {
        fill: #007fbc;
      }

      .cls-210 {
        fill: #ffe500;
      }

      .cls-211 {
        fill: #00669e;
      }

      .cls-212 {
        fill: #0091d3;
      }

      .cls-213 {
        fill: #0092d4;
      }

      .cls-214 {
        fill: #004279;
      }

      .cls-215 {
        fill: #0074ae;
      }

      .cls-216 {
        fill: #ffd106;
      }

      .cls-217 {
        fill: #0072ac;
      }

      .cls-218 {
        fill: #00548b;
      }

      .cls-219 {
        fill: #006ca5;
      }

      .cls-220 {
        fill: #008bca;
      }

      .cls-221 {
        fill: #0074af;
      }

      .cls-222 {
        fill: #00457c;
      }

      .cls-223 {
        fill: #009bde;
      }

      .cls-224 {
        fill: #0083c0;
      }

      .cls-225 {
        fill: #262961;
      }

      .cls-226 {
        fill: #0089c8;
      }

      .cls-227 {
        fill: #0a3f76;
      }

      .cls-228 {
        fill: #007ab6;
      }

      .cls-229 {
        fill: #005e96;
      }

      .cls-230 {
        fill: #ffe000;
      }

      .cls-231 {
        fill: #005b93;
      }

      .cls-232 {
        fill: #008ccc;
      }

      .cls-233 {
        fill: #006da7;
      }

      .cls-234 {
        fill: #0087c6;
      }

      .cls-235 {
        fill: #006ca6;
      }

      .cls-236 {
        fill: #ffec00;
      }

      .cls-237 {
        fill: #004f86;
      }

      .cls-238 {
        fill: #262861;
      }

      .cls-239 {
        fill: #ffeb00;
      }

      .cls-240 {
        fill: #0097d9;
      }

      .cls-241 {
        fill: #252a62;
      }

      .cls-242 {
        fill: #007bb7;
      }

      .cls-243 {
        fill: #00538a;
      }

      .cls-244 {
        fill: #28255e;
      }

      .cls-245 {
        fill: #28245d;
      }

      .cls-246 {
        fill: #fcbf28;
      }

      .cls-247 {
        fill: #ffdf00;
      }

      .cls-248 {
        fill: #fcc127;
      }

      .cls-249 {
        fill: #074077;
      }

      .cls-250 {
        fill: #0c3e75;
      }

      .cls-251 {
        fill: #00568d;
      }

      .cls-252 {
        fill: #fd0;
      }

      .cls-253 {
        fill: #272760;
      }
    </style>
    <clipPath id="clippath">
      <path class="cls-38" d="M137.48,184.57c-25.2,0-45.83-20.53-45.83-45.83v-45.83c0,25.2-20.62,45.83-45.83,45.83C20.62,138.74,0,118.21,0,92.91v-45.83c25.32,0,45.83,20.53,45.83,45.83,0-25.2,20.62-45.83,45.83-45.83,25.32,0,45.83,20.53,45.83,45.83v45.83s45.83,0,45.83,0c0,25.2-20.53,45.83-45.83,45.83ZM148.94,163.95c-2.52,0-4.58,2.06-4.58,4.58s2.06,4.58,4.58,4.58,4.58-2.06,4.58-4.58-2.06-4.58-4.58-4.58Z"/>
    </clipPath>
    <clipPath id="clippath-1">
      <path class="cls-38" d="M137.48,0c-25.2,0-45.83,20.53-45.83,45.83v45.83c0-25.2-20.62-45.83-45.83-45.83S0,66.36,0,91.65v45.83c25.32,0,45.83-20.53,45.83-45.83,0,25.2,20.62,45.83,45.83,45.83s45.83-20.53,45.83-45.83v-45.83s45.83,0,45.83,0C183.31,20.62,162.78,0,137.48,0ZM148.94,20.62c-2.52,0-4.58-2.06-4.58-4.58s2.06-4.58,4.58-4.58,4.58,2.06,4.58,4.58c0,2.52-2.06,4.58-4.58,4.58Z"/>
    </clipPath>
  </defs>
  <g>
    <path class="cls-109" d="M223.89,92.46c0,21.96-17.93,39.66-40.12,39.66s-41.04-17.47-41.04-39.54c0-11.15,4.48-21.5,12.87-29.43,7.36-6.9,17.36-10.69,28.62-10.69,22.65,0,39.66,17.13,39.66,40ZM161.7,92.34c0,12.64,9.54,22.53,21.73,22.53s21.61-9.89,21.61-22.19c0-13.1-9.2-22.99-21.5-22.99s-21.84,9.66-21.84,22.65Z"/>
    <path class="cls-109" d="M246.07,77.4v5.06c4.14-4.94,9.2-7.13,16.55-7.13,5.06,0,10,1.26,14.25,3.68,8.97,5.17,13.68,13.91,13.68,25.4,0,17.36-10.58,28.28-27.36,28.28-7.24,0-12.87-2.18-17.13-6.67v28.05h-17.47v-76.67h17.47ZM246.07,104.64c0,8.62,4.94,14.25,12.53,14.25s13.33-5.98,13.33-14.14c0-8.62-5.4-14.94-12.76-14.94s-13.1,6.09-13.1,14.83Z"/>
    <path class="cls-109" d="M315.27,112.69c0,2.53.92,3.22,4.25,3.45h1.84v14.48h-13.45c-7.47-.23-10.23-3.33-10.12-11.04v-28.05h-5.4v-14.48h5.4v-13.1h17.47v13.1h6.09v14.48h-6.09v21.15Z"/>
    <path class="cls-109" d="M346.54,61.99c0,5.29-4.02,9.2-9.31,9.2s-9.31-3.91-9.31-9.31,3.91-9.31,9.43-9.31,9.2,3.91,9.2,9.43ZM345.96,130.62h-17.47v-53.22h17.47v53.22Z"/>
    <path class="cls-109" d="M368.38,77.4v6.44c3.1-5.86,7.47-8.51,14.37-8.51s12.07,2.99,14.6,8.51c3.56-5.86,8.39-8.51,15.63-8.51,5.06,0,9.54,1.61,12.64,4.71,3.45,3.45,4.71,7.36,4.71,15.4v35.18h-17.47v-32.07c0-5.4-2.53-8.74-6.78-8.74s-6.78,3.33-6.78,8.74v32.07h-17.47v-31.5c0-5.86-2.53-9.31-6.9-9.31-2.07,0-4.02.92-5.17,2.53-1.03,1.61-1.38,3.1-1.38,6.78v31.5h-17.47v-53.22h17.47Z"/>
    <path class="cls-109" d="M485.86,77.4v33.45c0,8.16-1.84,12.76-6.32,16.44-4.48,3.56-10.58,5.4-18.16,5.4s-14.71-2.07-18.97-5.86c-4.02-3.45-5.86-8.62-5.86-15.98v-33.45h17.47v32.19c0,5.52,2.64,8.62,7.36,8.62,4.37,0,7.01-2.76,7.01-7.36v-33.45h17.47Z"/>
    <path class="cls-109" d="M516.67,93.15v-1.03c0-2.41-2.18-4.25-5.06-4.25-2.41,0-4.14,1.49-4.14,3.56,0,2.18,1.61,3.45,6.09,4.71,14.94,4.25,20.35,9.2,20.35,18.51,0,10.81-8.62,18.05-21.61,18.05s-21.15-6.78-21.5-17.93h16.55c.69,3.91,1.95,5.4,4.94,5.4,2.3,0,4.02-1.61,4.02-3.79,0-2.41-1.72-3.68-8.85-5.98-11.61-3.68-16.67-9.08-16.67-17.47,0-10.58,8.62-17.59,21.5-17.59s20.46,6.67,20.58,17.82h-16.21Z"/>
    <path class="cls-12" d="M559.2,130.62h-18.62V53.95h26.32c18.16,0,28.51,9.2,28.51,25.17s-10.69,26.55-27.36,26.55h-8.85v24.94ZM564.37,90.39c7.7,0,12.19-3.91,12.19-10.58,0-6.32-4.37-10.58-10.92-10.58h-6.44v21.15h5.17Z"/>
    <path class="cls-12" d="M637.02,77.4h18.39l-29.08,76.9h-18.74l9.54-24.71-18.51-52.19h18.51l9.2,27.93,10.69-27.93Z"/>
  </g>
  <g class="cls-254">
    <rect class="cls-8" x="144.36" y="163.95" width=".13" height="9.17"/>
    <rect class="cls-164" x="144.49" y="163.95" width=".72" height="9.17"/>
    <rect class="cls-208" x="145.21" y="163.95" width=".72" height="9.17"/>
    <rect class="cls-208" x="145.93" y="163.95" width=".72" height="9.17"/>
    <rect class="cls-132" x="146.65" y="163.95" width=".72" height="9.17"/>
    <rect class="cls-35" x="147.37" y="163.95" width=".72" height="9.17"/>
    <rect class="cls-106" x="148.08" y="163.95" width=".72" height="9.17"/>
    <rect class="cls-150" x="148.8" y="163.95" width=".72" height="9.17"/>
    <rect class="cls-3" x="149.52" y="163.95" width=".72" height="9.17"/>
    <rect class="cls-222" x="150.24" y="163.95" width=".72" height="9.17"/>
    <rect class="cls-130" x="150.96" y="163.95" width=".72" height="9.17"/>
    <rect class="cls-196" x="151.68" y="163.95" width=".72" height="9.17"/>
    <rect class="cls-22" x="152.4" y="163.95" width=".72" height="9.17"/>
    <rect class="cls-214" x="153.12" y="163.95" width=".4" height="9.17"/>
    <rect class="cls-109" x="0" y="47.09" width=".72" height="137.48"/>
    <rect class="cls-109" x=".72" y="47.09" width=".72" height="137.48"/>
    <rect class="cls-109" x="1.44" y="47.09" width=".72" height="137.48"/>
    <rect class="cls-109" x="2.16" y="47.09" width=".72" height="137.48"/>
    <rect class="cls-109" x="2.88" y="47.09" width=".72" height="137.48"/>
    <rect class="cls-109" x="3.59" y="47.09" width=".72" height="137.48"/>
    <rect class="cls-109" x="4.31" y="47.09" width=".72" height="137.48"/>
    <rect class="cls-109" x="5.03" y="47.09" width=".72" height="137.48"/>
    <rect class="cls-114" x="5.75" y="47.09" width=".72" height="137.48"/>
    <rect class="cls-114" x="6.47" y="47.09" width=".72" height="137.48"/>
    <rect class="cls-114" x="7.19" y="47.09" width=".72" height="137.48"/>
    <rect class="cls-114" x="7.91" y="47.09" width=".72" height="137.48"/>
    <rect class="cls-114" x="8.63" y="47.09" width=".72" height="137.48"/>
    <rect class="cls-114" x="9.35" y="47.09" width=".72" height="137.48"/>
    <rect class="cls-114" x="10.06" y="47.09" width=".72" height="137.48"/>
    <rect class="cls-79" x="10.78" y="47.09" width=".72" height="137.48"/>
    <rect class="cls-79" x="11.5" y="47.09" width=".72" height="137.48"/>
    <rect class="cls-79" x="12.22" y="47.09" width=".72" height="137.48"/>
    <rect class="cls-79" x="12.94" y="47.09" width=".72" height="137.48"/>
    <rect class="cls-79" x="13.66" y="47.09" width=".72" height="137.48"/>
    <rect class="cls-176" x="14.38" y="47.09" width=".72" height="137.48"/>
    <rect class="cls-176" x="15.1" y="47.09" width=".72" height="137.48"/>
    <rect class="cls-176" x="15.81" y="47.09" width=".72" height="137.48"/>
    <rect class="cls-70" x="16.53" y="47.09" width=".72" height="137.48"/>
    <rect class="cls-70" x="17.25" y="47.09" width=".72" height="137.48"/>
    <rect class="cls-70" x="17.97" y="47.09" width=".72" height="137.48"/>
    <rect class="cls-70" x="18.69" y="47.09" width=".72" height="137.48"/>
    <rect class="cls-70" x="19.41" y="47.09" width=".72" height="137.48"/>
    <rect class="cls-126" x="20.13" y="47.09" width=".72" height="137.48"/>
    <rect class="cls-49" x="20.85" y="47.09" width=".72" height="137.48"/>
    <rect class="cls-49" x="21.57" y="47.09" width=".72" height="137.48"/>
    <rect class="cls-49" x="22.28" y="47.09" width=".72" height="137.48"/>
    <rect class="cls-49" x="23" y="47.09" width=".72" height="137.48"/>
    <rect class="cls-99" x="23.72" y="47.09" width=".72" height="137.48"/>
    <rect class="cls-147" x="24.44" y="47.09" width=".72" height="137.48"/>
    <rect class="cls-147" x="25.16" y="47.09" width=".72" height="137.48"/>
    <rect class="cls-147" x="25.88" y="47.09" width=".72" height="137.48"/>
    <rect class="cls-147" x="26.6" y="47.09" width=".72" height="137.48"/>
    <rect class="cls-223" x="27.32" y="47.09" width=".72" height="137.48"/>
    <rect class="cls-223" x="28.04" y="47.09" width=".72" height="137.48"/>
    <rect class="cls-197" x="28.75" y="47.09" width=".72" height="137.48"/>
    <rect class="cls-197" x="29.47" y="47.09" width=".72" height="137.48"/>
    <rect class="cls-160" x="30.19" y="47.09" width=".72" height="137.48"/>
    <rect class="cls-160" x="30.91" y="47.09" width=".72" height="137.48"/>
    <rect class="cls-77" x="31.63" y="47.09" width=".72" height="137.48"/>
    <rect class="cls-95" x="32.35" y="47.09" width=".72" height="137.48"/>
    <rect class="cls-95" x="33.07" y="47.09" width=".72" height="137.48"/>
    <rect class="cls-95" x="33.79" y="47.09" width=".72" height="137.48"/>
    <rect class="cls-95" x="34.51" y="47.09" width=".72" height="137.48"/>
    <rect class="cls-157" x="35.22" y="47.09" width=".72" height="137.48"/>
    <rect class="cls-157" x="35.94" y="47.09" width=".72" height="137.48"/>
    <rect class="cls-157" x="36.66" y="47.09" width=".72" height="137.48"/>
    <rect class="cls-41" x="37.38" y="47.09" width=".72" height="137.48"/>
    <rect class="cls-13" x="38.1" y="47.09" width=".72" height="137.48"/>
    <rect class="cls-13" x="38.82" y="47.09" width=".72" height="137.48"/>
    <rect class="cls-240" x="39.54" y="47.09" width=".72" height="137.48"/>
    <rect class="cls-240" x="40.26" y="47.09" width=".72" height="137.48"/>
    <rect class="cls-202" x="40.97" y="47.09" width=".72" height="137.48"/>
    <rect class="cls-119" x="41.69" y="47.09" width=".72" height="137.48"/>
    <rect class="cls-119" x="42.41" y="47.09" width=".72" height="137.48"/>
    <rect class="cls-87" x="43.13" y="47.09" width=".72" height="137.48"/>
    <rect class="cls-148" x="43.85" y="47.09" width=".72" height="137.48"/>
    <rect class="cls-148" x="44.57" y="47.09" width=".72" height="137.48"/>
    <rect class="cls-148" x="45.29" y="47.09" width=".72" height="137.48"/>
    <rect class="cls-115" x="46.01" y="47.09" width=".72" height="137.48"/>
    <rect class="cls-115" x="46.73" y="47.09" width=".72" height="137.48"/>
    <rect class="cls-154" x="47.44" y="47.09" width=".72" height="137.48"/>
    <rect class="cls-97" x="48.16" y="47.09" width=".72" height="137.48"/>
    <rect class="cls-97" x="48.88" y="47.09" width=".72" height="137.48"/>
    <rect class="cls-204" x="49.6" y="47.09" width=".72" height="137.48"/>
    <rect class="cls-213" x="50.32" y="47.09" width=".72" height="137.48"/>
    <rect class="cls-120" x="51.04" y="47.09" width=".72" height="137.48"/>
    <rect class="cls-120" x="51.76" y="47.09" width=".72" height="137.48"/>
    <rect class="cls-212" x="52.48" y="47.09" width=".72" height="137.48"/>
    <rect class="cls-101" x="53.2" y="47.09" width=".72" height="137.48"/>
    <rect class="cls-101" x="53.91" y="47.09" width=".72" height="137.48"/>
    <rect class="cls-44" x="54.63" y="47.09" width=".72" height="137.48"/>
    <rect class="cls-143" x="55.35" y="47.09" width=".72" height="137.48"/>
    <rect class="cls-143" x="56.07" y="47.09" width=".72" height="137.48"/>
    <rect class="cls-191" x="56.79" y="47.09" width=".72" height="137.48"/>
    <rect class="cls-27" x="57.51" y="47.09" width=".72" height="137.48"/>
    <rect class="cls-173" x="58.23" y="47.09" width=".72" height="137.48"/>
    <rect class="cls-93" x="58.95" y="47.09" width=".72" height="137.48"/>
    <rect class="cls-7" x="59.66" y="47.09" width=".72" height="137.48"/>
    <rect class="cls-7" x="60.38" y="47.09" width=".72" height="137.48"/>
    <rect class="cls-206" x="61.1" y="47.09" width=".72" height="137.48"/>
    <rect class="cls-206" x="61.82" y="47.09" width=".72" height="137.48"/>
    <rect class="cls-169" x="62.54" y="47.09" width=".72" height="137.48"/>
    <rect class="cls-232" x="63.26" y="47.09" width=".72" height="137.48"/>
    <rect class="cls-232" x="63.98" y="47.09" width=".72" height="137.48"/>
    <rect class="cls-155" x="64.7" y="47.09" width=".72" height="137.48"/>
    <rect class="cls-155" x="65.42" y="47.09" width=".72" height="137.48"/>
    <rect class="cls-220" x="66.13" y="47.09" width=".72" height="137.48"/>
    <rect class="cls-116" x="66.85" y="47.09" width=".72" height="137.48"/>
    <rect class="cls-199" x="67.57" y="47.09" width=".72" height="137.48"/>
    <rect class="cls-199" x="68.29" y="47.09" width=".72" height="137.48"/>
    <rect class="cls-226" x="69.01" y="47.09" width=".72" height="137.48"/>
    <rect class="cls-226" x="69.73" y="47.09" width=".72" height="137.48"/>
    <rect class="cls-52" x="70.45" y="47.09" width=".72" height="137.48"/>
    <rect class="cls-52" x="71.17" y="47.09" width=".72" height="137.48"/>
    <rect class="cls-234" x="71.89" y="47.09" width=".72" height="137.48"/>
    <rect class="cls-45" x="72.6" y="47.09" width=".72" height="137.48"/>
    <rect class="cls-45" x="73.32" y="47.09" width=".72" height="137.48"/>
    <rect class="cls-108" x="74.04" y="47.09" width=".72" height="137.48"/>
    <rect class="cls-108" x="74.76" y="47.09" width=".72" height="137.48"/>
    <rect class="cls-10" x="75.48" y="47.09" width=".72" height="137.48"/>
    <rect class="cls-10" x="76.2" y="47.09" width=".72" height="137.48"/>
    <rect class="cls-163" x="76.92" y="47.09" width=".72" height="137.48"/>
    <rect class="cls-163" x="77.64" y="47.09" width=".72" height="137.48"/>
    <rect class="cls-78" x="78.36" y="47.09" width=".72" height="137.48"/>
    <rect class="cls-78" x="79.07" y="47.09" width=".72" height="137.48"/>
    <rect class="cls-224" x="79.79" y="47.09" width=".72" height="137.48"/>
    <rect class="cls-84" x="80.51" y="47.09" width=".72" height="137.48"/>
    <rect class="cls-84" x="81.23" y="47.09" width=".72" height="137.48"/>
    <rect class="cls-128" x="81.95" y="47.09" width=".72" height="137.48"/>
    <rect class="cls-128" x="82.67" y="47.09" width=".72" height="137.48"/>
    <rect class="cls-92" x="83.39" y="47.09" width=".72" height="137.48"/>
    <rect class="cls-92" x="84.11" y="47.09" width=".72" height="137.48"/>
    <rect class="cls-209" x="84.82" y="47.09" width=".72" height="137.48"/>
    <rect class="cls-190" x="85.54" y="47.09" width=".72" height="137.48"/>
    <rect class="cls-192" x="86.26" y="47.09" width=".72" height="137.48"/>
    <rect class="cls-96" x="86.98" y="47.09" width=".72" height="137.48"/>
    <rect class="cls-74" x="87.7" y="47.09" width=".72" height="137.48"/>
    <rect class="cls-135" x="88.42" y="47.09" width=".72" height="137.48"/>
    <rect class="cls-189" x="89.14" y="47.09" width=".72" height="137.48"/>
    <rect class="cls-189" x="89.86" y="47.09" width=".72" height="137.48"/>
    <rect class="cls-242" x="90.58" y="47.09" width=".72" height="137.48"/>
    <rect class="cls-242" x="91.29" y="47.09" width=".72" height="137.48"/>
    <rect class="cls-228" x="92.01" y="47.09" width=".72" height="137.48"/>
    <rect class="cls-80" x="92.73" y="47.09" width=".72" height="137.48"/>
    <rect class="cls-187" x="93.45" y="47.09" width=".72" height="137.48"/>
    <rect class="cls-203" x="94.17" y="47.09" width=".72" height="137.48"/>
    <rect class="cls-37" x="94.89" y="47.09" width=".72" height="137.48"/>
    <rect class="cls-159" x="95.61" y="47.09" width=".72" height="137.48"/>
    <rect class="cls-66" x="96.33" y="47.09" width=".72" height="137.48"/>
    <rect class="cls-201" x="97.05" y="47.09" width=".72" height="137.48"/>
    <rect class="cls-201" x="97.76" y="47.09" width=".72" height="137.48"/>
    <rect class="cls-39" x="98.48" y="47.09" width=".72" height="137.48"/>
    <rect class="cls-39" x="99.2" y="47.09" width=".72" height="137.48"/>
    <rect class="cls-221" x="99.92" y="47.09" width=".72" height="137.48"/>
    <rect class="cls-215" x="100.64" y="47.09" width=".72" height="137.48"/>
    <rect class="cls-162" x="101.36" y="47.09" width=".72" height="137.48"/>
    <rect class="cls-64" x="102.08" y="47.09" width=".72" height="137.48"/>
    <rect class="cls-217" x="102.8" y="47.09" width=".72" height="137.48"/>
    <rect class="cls-145" x="103.52" y="47.09" width=".72" height="137.48"/>
    <rect class="cls-110" x="104.23" y="47.09" width=".72" height="137.48"/>
    <rect class="cls-137" x="104.95" y="47.09" width=".72" height="137.48"/>
    <rect class="cls-48" x="105.67" y="47.09" width=".72" height="137.48"/>
    <rect class="cls-146" x="106.39" y="47.09" width=".72" height="137.48"/>
    <rect class="cls-4" x="107.11" y="47.09" width=".72" height="137.48"/>
    <rect class="cls-141" x="107.83" y="47.09" width=".72" height="137.48"/>
    <rect class="cls-233" x="108.55" y="47.09" width=".72" height="137.48"/>
    <rect class="cls-235" x="109.27" y="47.09" width=".72" height="137.48"/>
    <rect class="cls-219" x="109.98" y="47.09" width=".72" height="137.48"/>
    <rect class="cls-133" x="110.7" y="47.09" width=".72" height="137.48"/>
    <rect class="cls-72" x="111.42" y="47.09" width=".72" height="137.48"/>
    <rect class="cls-102" x="112.14" y="47.09" width=".72" height="137.48"/>
    <rect class="cls-105" x="112.86" y="47.09" width=".72" height="137.48"/>
    <rect class="cls-105" x="113.58" y="47.09" width=".72" height="137.48"/>
    <rect class="cls-28" x="114.3" y="47.09" width=".72" height="137.48"/>
    <rect class="cls-175" x="115.02" y="47.09" width=".72" height="137.48"/>
    <rect class="cls-175" x="115.74" y="47.09" width=".72" height="137.48"/>
    <rect class="cls-67" x="116.45" y="47.09" width=".72" height="137.48"/>
    <rect class="cls-211" x="117.17" y="47.09" width=".72" height="137.48"/>
    <rect class="cls-129" x="117.89" y="47.09" width=".72" height="137.48"/>
    <rect class="cls-20" x="118.61" y="47.09" width=".72" height="137.48"/>
    <rect class="cls-179" x="119.33" y="47.09" width=".72" height="137.48"/>
    <rect class="cls-152" x="120.05" y="47.09" width=".72" height="137.48"/>
    <rect class="cls-62" x="120.77" y="47.09" width=".72" height="137.48"/>
    <rect class="cls-83" x="121.49" y="47.09" width=".72" height="137.48"/>
    <rect class="cls-1" x="122.21" y="47.09" width=".72" height="137.48"/>
    <rect class="cls-138" x="122.92" y="47.09" width=".72" height="137.48"/>
    <rect class="cls-138" x="123.64" y="47.09" width=".72" height="137.48"/>
    <rect class="cls-125" x="124.36" y="47.09" width=".72" height="137.48"/>
    <rect class="cls-229" x="125.08" y="47.09" width=".72" height="137.48"/>
    <rect class="cls-183" x="125.8" y="47.09" width=".72" height="137.48"/>
    <rect class="cls-177" x="126.52" y="47.09" width=".72" height="137.48"/>
    <rect class="cls-59" x="127.24" y="47.09" width=".72" height="137.48"/>
    <rect class="cls-231" x="127.96" y="47.09" width=".72" height="137.48"/>
    <rect class="cls-56" x="128.68" y="47.09" width=".72" height="137.48"/>
    <rect class="cls-57" x="129.39" y="47.09" width=".72" height="137.48"/>
    <rect class="cls-5" x="130.11" y="47.09" width=".72" height="137.48"/>
    <rect class="cls-29" x="130.83" y="47.09" width=".72" height="137.48"/>
    <rect class="cls-19" x="131.55" y="47.09" width=".72" height="137.48"/>
    <rect class="cls-54" x="132.27" y="47.09" width=".72" height="137.48"/>
    <rect class="cls-24" x="132.99" y="47.09" width=".72" height="137.48"/>
    <rect class="cls-251" x="133.71" y="47.09" width=".72" height="137.48"/>
    <rect class="cls-139" x="134.43" y="47.09" width=".72" height="137.48"/>
    <rect class="cls-139" x="135.14" y="47.09" width=".72" height="137.48"/>
    <rect class="cls-218" x="135.86" y="47.09" width=".72" height="137.48"/>
    <rect class="cls-243" x="136.58" y="47.09" width=".72" height="137.48"/>
    <rect class="cls-15" x="137.3" y="47.09" width=".72" height="137.48"/>
    <rect class="cls-123" x="138.02" y="47.09" width=".72" height="137.48"/>
    <rect class="cls-81" x="138.74" y="47.09" width=".72" height="137.48"/>
    <rect class="cls-161" x="139.46" y="47.09" width=".72" height="137.48"/>
    <rect class="cls-142" x="140.18" y="47.09" width=".72" height="137.48"/>
    <rect class="cls-237" x="140.9" y="47.09" width=".72" height="137.48"/>
    <rect class="cls-172" x="141.61" y="47.09" width=".72" height="137.48"/>
    <rect class="cls-17" x="142.33" y="47.09" width=".72" height="137.48"/>
    <rect class="cls-17" x="143.05" y="47.09" width=".72" height="137.48"/>
    <rect class="cls-8" x="143.77" y="47.09" width=".72" height="137.48"/>
    <rect class="cls-164" x="144.49" y="47.09" width=".72" height="137.48"/>
    <rect class="cls-208" x="145.21" y="47.09" width=".72" height="137.48"/>
    <rect class="cls-208" x="145.93" y="47.09" width=".72" height="137.48"/>
    <rect class="cls-132" x="146.65" y="47.09" width=".72" height="137.48"/>
    <rect class="cls-35" x="147.37" y="47.09" width=".72" height="137.48"/>
    <rect class="cls-106" x="148.08" y="47.09" width=".72" height="137.48"/>
    <rect class="cls-150" x="148.8" y="47.09" width=".72" height="137.48"/>
    <rect class="cls-3" x="149.52" y="47.09" width=".72" height="137.48"/>
    <rect class="cls-222" x="150.24" y="47.09" width=".72" height="137.48"/>
    <rect class="cls-130" x="150.96" y="47.09" width=".72" height="137.48"/>
    <rect class="cls-196" x="151.68" y="47.09" width=".72" height="137.48"/>
    <rect class="cls-22" x="152.4" y="47.09" width=".72" height="137.48"/>
    <rect class="cls-214" x="153.12" y="47.09" width=".72" height="137.48"/>
    <rect class="cls-46" x="153.84" y="47.09" width=".72" height="137.48"/>
    <rect class="cls-127" x="154.55" y="47.09" width=".72" height="137.48"/>
    <rect class="cls-249" x="155.27" y="47.09" width=".72" height="137.48"/>
    <rect class="cls-227" x="155.99" y="47.09" width=".72" height="137.48"/>
    <rect class="cls-250" x="156.71" y="47.09" width=".72" height="137.48"/>
    <rect class="cls-165" x="157.43" y="47.09" width=".72" height="137.48"/>
    <rect class="cls-25" x="158.15" y="47.09" width=".72" height="137.48"/>
    <rect class="cls-61" x="158.87" y="47.09" width=".72" height="137.48"/>
    <rect class="cls-58" x="159.59" y="47.09" width=".72" height="137.48"/>
    <rect class="cls-32" x="160.3" y="47.09" width=".72" height="137.48"/>
    <rect class="cls-100" x="161.02" y="47.09" width=".72" height="137.48"/>
    <rect class="cls-170" x="161.74" y="47.09" width=".72" height="137.48"/>
    <rect class="cls-65" x="162.46" y="47.09" width=".72" height="137.48"/>
    <rect class="cls-63" x="163.18" y="47.09" width=".72" height="137.48"/>
    <rect class="cls-107" x="163.9" y="47.09" width=".72" height="137.48"/>
    <rect class="cls-23" x="164.62" y="47.09" width=".72" height="137.48"/>
    <rect class="cls-43" x="165.34" y="47.09" width=".72" height="137.48"/>
    <rect class="cls-91" x="166.06" y="47.09" width=".72" height="137.48"/>
    <rect class="cls-121" x="166.77" y="47.09" width=".72" height="137.48"/>
    <rect class="cls-207" x="167.49" y="47.09" width=".72" height="137.48"/>
    <rect class="cls-136" x="168.21" y="47.09" width=".72" height="137.48"/>
    <rect class="cls-53" x="168.93" y="47.09" width=".72" height="137.48"/>
    <rect class="cls-89" x="169.65" y="47.09" width=".72" height="137.48"/>
    <rect class="cls-34" x="170.37" y="47.09" width=".72" height="137.48"/>
    <rect class="cls-94" x="171.09" y="47.09" width=".72" height="137.48"/>
    <rect class="cls-47" x="171.81" y="47.09" width=".72" height="137.48"/>
    <rect class="cls-16" x="172.53" y="47.09" width=".72" height="137.48"/>
    <rect class="cls-98" x="173.24" y="47.09" width=".72" height="137.48"/>
    <rect class="cls-14" x="173.96" y="47.09" width=".72" height="137.48"/>
    <rect class="cls-69" x="174.68" y="47.09" width=".72" height="137.48"/>
    <rect class="cls-241" x="175.4" y="47.09" width=".72" height="137.48"/>
    <rect class="cls-241" x="176.12" y="47.09" width=".72" height="137.48"/>
    <rect class="cls-225" x="176.84" y="47.09" width=".72" height="137.48"/>
    <rect class="cls-238" x="177.56" y="47.09" width=".72" height="137.48"/>
    <rect class="cls-253" x="178.28" y="47.09" width=".72" height="137.48"/>
    <rect class="cls-85" x="178.99" y="47.09" width=".72" height="137.48"/>
    <rect class="cls-111" x="179.71" y="47.09" width=".72" height="137.48"/>
    <rect class="cls-244" x="180.43" y="47.09" width=".72" height="137.48"/>
    <rect class="cls-245" x="181.15" y="47.09" width=".72" height="137.48"/>
    <rect class="cls-245" x="181.87" y="47.09" width=".72" height="137.48"/>
    <rect class="cls-112" x="182.59" y="47.09" width=".72" height="137.48"/>
    <rect class="cls-112" x="183.31" y="47.09" width="0" height="137.48"/>
  </g>
  <g class="cls-255">
    <rect class="cls-12" x="144.36" y="11.46" width="9.17" height="9.17"/>
    <rect class="cls-198" x="0" width="0" height="137.48"/>
    <rect class="cls-198" x="0" width="1.35" height="137.48"/>
    <rect class="cls-198" x="1.35" width="1.35" height="137.48"/>
    <rect class="cls-236" x="2.71" width="1.35" height="137.48"/>
    <rect class="cls-236" x="4.06" width="1.35" height="137.48"/>
    <rect class="cls-239" x="5.41" width="1.35" height="137.48"/>
    <rect class="cls-51" x="6.77" width="1.35" height="137.48"/>
    <rect class="cls-51" x="8.12" width="1.35" height="137.48"/>
    <rect class="cls-186" x="9.48" width="1.35" height="137.48"/>
    <rect class="cls-186" x="10.83" width="1.35" height="137.48"/>
    <rect class="cls-71" x="12.18" width="1.35" height="137.48"/>
    <rect class="cls-11" x="13.54" width="1.35" height="137.48"/>
    <rect class="cls-11" x="14.89" width="1.35" height="137.48"/>
    <rect class="cls-171" x="16.24" width="1.35" height="137.48"/>
    <rect class="cls-210" x="17.6" width="1.35" height="137.48"/>
    <rect class="cls-210" x="18.95" width="1.35" height="137.48"/>
    <rect class="cls-131" x="20.31" width="1.35" height="137.48"/>
    <rect class="cls-182" x="21.66" width="1.35" height="137.48"/>
    <rect class="cls-182" x="23.01" width="1.35" height="137.48"/>
    <rect class="cls-82" x="24.37" width="1.35" height="137.48"/>
    <rect class="cls-82" x="25.72" width="1.35" height="137.48"/>
    <rect class="cls-40" x="27.07" width="1.35" height="137.48"/>
    <rect class="cls-230" x="28.43" width="1.35" height="137.48"/>
    <rect class="cls-230" x="29.78" width="1.35" height="137.48"/>
    <rect class="cls-247" x="31.14" width="1.35" height="137.48"/>
    <rect class="cls-30" x="32.49" width="1.35" height="137.48"/>
    <rect class="cls-30" x="33.84" width="1.35" height="137.48"/>
    <rect class="cls-252" x="35.2" width="1.35" height="137.48"/>
    <rect class="cls-167" x="36.55" width="1.35" height="137.48"/>
    <rect class="cls-167" x="37.9" width="1.35" height="137.48"/>
    <rect class="cls-151" x="39.26" width="1.35" height="137.48"/>
    <rect class="cls-75" x="40.61" width="1.35" height="137.48"/>
    <rect class="cls-75" x="41.97" width="1.35" height="137.48"/>
    <rect class="cls-149" x="43.32" width="1.35" height="137.48"/>
    <rect class="cls-55" x="44.67" width="1.35" height="137.48"/>
    <rect class="cls-55" x="46.03" width="1.35" height="137.48"/>
    <rect class="cls-200" x="47.38" width="1.35" height="137.48"/>
    <rect class="cls-200" x="48.73" width="1.35" height="137.48"/>
    <rect class="cls-193" x="50.09" width="1.35" height="137.48"/>
    <rect class="cls-2" x="51.44" width="1.35" height="137.48"/>
    <rect class="cls-2" x="52.8" width="1.35" height="137.48"/>
    <rect class="cls-205" x="54.15" width="1.35" height="137.48"/>
    <rect class="cls-68" x="55.5" width="1.35" height="137.48"/>
    <rect class="cls-68" x="56.86" width="1.35" height="137.48"/>
    <rect class="cls-18" x="58.21" width="1.35" height="137.48"/>
    <rect class="cls-73" x="59.56" width="1.35" height="137.48"/>
    <rect class="cls-216" x="60.92" width="1.35" height="137.48"/>
    <rect class="cls-76" x="62.27" width="1.35" height="137.48"/>
    <rect class="cls-26" x="63.63" width="1.35" height="137.48"/>
    <rect class="cls-174" x="64.98" width="1.35" height="137.48"/>
    <rect class="cls-50" x="66.33" width="1.35" height="137.48"/>
    <rect class="cls-185" x="67.69" width="1.35" height="137.48"/>
    <rect class="cls-153" x="69.04" width="1.35" height="137.48"/>
    <rect class="cls-180" x="70.39" width="1.35" height="137.48"/>
    <rect class="cls-118" x="71.75" width="1.35" height="137.48"/>
    <rect class="cls-33" x="73.1" width="1.35" height="137.48"/>
    <rect class="cls-168" x="74.46" width="1.35" height="137.48"/>
    <rect class="cls-86" x="75.81" width="1.35" height="137.48"/>
    <rect class="cls-140" x="77.16" width="1.35" height="137.48"/>
    <rect class="cls-21" x="78.52" width="1.35" height="137.48"/>
    <rect class="cls-122" x="79.87" width="1.35" height="137.48"/>
    <rect class="cls-104" x="81.22" width="1.35" height="137.48"/>
    <rect class="cls-134" x="82.58" width="1.35" height="137.48"/>
    <rect class="cls-31" x="83.93" width="1.35" height="137.48"/>
    <rect class="cls-103" x="85.29" width="1.35" height="137.48"/>
    <rect class="cls-188" x="86.64" width="1.35" height="137.48"/>
    <rect class="cls-113" x="87.99" width="1.35" height="137.48"/>
    <rect class="cls-178" x="89.35" width="1.35" height="137.48"/>
    <rect class="cls-144" x="90.7" width="1.35" height="137.48"/>
    <rect class="cls-248" x="92.05" width="1.35" height="137.48"/>
    <rect class="cls-36" x="93.41" width="1.35" height="137.48"/>
    <rect class="cls-246" x="94.76" width="1.35" height="137.48"/>
    <rect class="cls-166" x="96.12" width="1.35" height="137.48"/>
    <rect class="cls-42" x="97.47" width="1.35" height="137.48"/>
    <rect class="cls-9" x="98.82" width="1.35" height="137.48"/>
    <rect class="cls-181" x="100.18" width="1.35" height="137.48"/>
    <rect class="cls-158" x="101.53" width="1.35" height="137.48"/>
    <rect class="cls-90" x="102.88" width="1.35" height="137.48"/>
    <rect class="cls-88" x="104.24" width="1.35" height="137.48"/>
    <rect class="cls-124" x="105.59" width="1.35" height="137.48"/>
    <rect class="cls-124" x="106.95" width="1.35" height="137.48"/>
    <rect class="cls-60" x="108.3" width="1.35" height="137.48"/>
    <rect class="cls-194" x="109.65" width="1.35" height="137.48"/>
    <rect class="cls-6" x="111.01" width="1.35" height="137.48"/>
    <rect class="cls-117" x="112.36" width="1.35" height="137.48"/>
    <rect class="cls-195" x="113.71" width="1.35" height="137.48"/>
    <rect class="cls-156" x="115.07" width="1.35" height="137.48"/>
    <rect class="cls-156" x="116.42" width="1.35" height="137.48"/>
    <rect class="cls-184" x="117.78" width="1.35" height="137.48"/>
    <rect class="cls-12" x="119.13" width="1.35" height="137.48"/>
    <rect class="cls-12" x="120.48" width="62.82" height="137.48"/>
  </g>
</svg>