<?xml version="1.0" encoding="UTF-8"?>
<svg id="Calque_1" data-name="Calque 1" xmlns="http://www.w3.org/2000/svg" version="1.1" viewBox="0 0 2092.3 542.5">
  <defs>
    <style>
      .cls-1 {
        fill: #1d1d1b;
      }

      .cls-1, .cls-2, .cls-3, .cls-4 {
        stroke-width: 0px;
      }

      .cls-5 {
        mix-blend-mode: multiply;
      }

      .cls-2 {
        fill: #009fe3;
      }

      .cls-3 {
        fill: #f9b233;
      }

      .cls-6 {
        isolation: isolate;
      }

      .cls-4 {
        fill: #fff;
      }
    </style>
  </defs>
  <g class="cls-6">
    <g id="Calque_1-2" data-name="Calque 1">
      <g class="cls-6">
        <g class="cls-6">
          <path class="cls-1" d="M1965.2-115.5l-.2-.5h.2l.2.4.2-.4h.2l-.2.5h-.2Z"/>
        </g>
      </g>
      <g>
        <path class="cls-3" d="M420,542.4c-15.7,0-31.4-3.9-45.1-11.3l-20.1-10.9,20.1-10.9c5.9-3.2,11.4-7.3,16.1-12.1l176.4-176.4c13.2-13.2,20.4-30.7,20.4-49.3s-7.2-36.1-20.4-49.3L391,45.7c-4.8-4.8-10.2-8.8-16.1-12l-20.1-10.9,20.1-10.9c17.5-9.5,38.1-13.2,58-10.5,20.5,2.8,39.1,12.1,53.8,26.8l176.4,176.4c36.9,36.9,36.9,96.8,0,133.7l-176.4,176.4c-14.7,14.7-33.3,23.9-53.8,26.8-4.3.6-8.6.9-12.9.9h0ZM406.8,516.4c7.4,1.4,15.1,1.6,22.6.6,15.1-2.1,28.9-8.9,39.7-19.8l176.4-176.4c27.2-27.2,27.2-71.4,0-98.6L469.1,45.7c-10.8-10.8-24.6-17.7-39.7-19.8-7.5-1-15.2-.8-22.6.6.6.5,1.1,1.1,1.7,1.7h0l176.4,176.4c17.8,17.8,27.7,41.6,27.7,66.8s-9.8,49-27.7,66.8l-176.4,176.4c-.6.6-1.1,1.1-1.7,1.7h0Z"/>
        <g>
          <path class="cls-2" d="M1031.2,317.5c-1.5,17.1-5.5,33-11.9,47.5s-15.3,27.2-26.6,37.8c-11.3,10.7-25.1,19-41.5,25-16.4,6-35.4,9-57,9s-45.7-4.1-64.2-12.2c-18.5-8.1-34-19.5-46.4-34.2-12.5-14.7-21.8-32.5-28.2-53.4s-9.5-43.9-9.5-69.2,3.5-49.6,10.4-70.3,16.8-38.5,29.7-53.2c12.9-14.7,28.5-26,46.9-33.8,18.3-7.8,39-11.7,62.2-11.7s38.2,2.6,53.4,7.7c15.2,5.1,27.9,12.5,38.3,22.1,10.4,9.6,18.7,21.2,25,34.7,6.3,13.5,11,28.7,14,45.5l-66.7,8.6c-3.3-18.9-9.7-33.8-19.2-44.6-9.5-10.8-24.4-16.2-44.8-16.2s-45.4,9.7-58.8,29.1c-13.4,19.4-20,46.8-20,82.2s7.1,63.2,21.4,82.5c14.3,19.2,33.4,28.8,57.5,28.8s36-5.3,45.7-16c9.8-10.7,15.8-25.9,18.2-45.7h72.1Z"/>
          <path class="cls-2" d="M1194.3,399c-9.3,10.5-19.8,19.1-31.3,25.7s-26.5,9.9-44.8,9.9-20.5-1.3-30-4-17.7-6.9-24.8-12.6c-7.1-5.7-12.7-13-16.9-21.8-4.2-8.9-6.3-19.5-6.3-31.8s3.6-29.4,10.8-39.7c7.2-10.2,16.7-18.2,28.4-23.9,11.7-5.7,24.8-9.8,39.4-12.2,14.6-2.4,29.4-3.9,44.4-4.5l30.2-1.3v-11.7c0-14.4-4-24.3-11.9-29.7s-17.3-8.1-28.2-8.1c-24.9,0-39.2,9.5-42.8,28.4l-57.7-5.4c4.2-24.6,15-42.4,32.4-53.4,17.4-11,40.8-16.5,70.3-16.5s33.3,2.2,46,6.5c12.6,4.4,22.8,10.6,30.4,18.7,7.7,8.1,13.2,18,16.7,29.5,3.4,11.6,5.2,24.6,5.2,39v148.7h-59.5v-29.7h0ZM1192.9,323.8l-27.9,1.3c-13.2.6-23.9,2-32,4.1s-14.3,4.7-18.7,7.9c-4.4,3.2-7.3,6.8-8.8,11-1.5,4.2-2.2,8.9-2.2,14,0,7.8,2.7,14,8.1,18.5,5.4,4.5,12.9,6.8,22.5,6.8,16.2,0,29.4-3.8,39.7-11.3,5.7-4.2,10.4-9.5,14-16,3.6-6.5,5.4-14.5,5.4-24.1v-12.2h0Z"/>
          <path class="cls-2" d="M1276.3,107h63.1v321.7h-63.1V107h0Z"/>
          <path class="cls-2" d="M1575.5,343.6c-2.4,28.2-12.1,50.7-29.1,67.4-17,16.7-42.4,25-76.4,25s-36.9-3-51.4-9-26.2-14.4-35.4-25.2c-9.2-10.8-16-23.9-20.5-39.2-4.5-15.3-6.8-32.3-6.8-50.9s2.6-35.7,7.9-51.1c5.2-15.5,12.8-28.7,22.8-39.7,9.9-11,22.1-19.5,36.5-25.5,14.4-6,30.9-9,49.6-9s29.8,2,41.7,6.1c11.9,4.1,21.8,9.7,30,16.9s14.4,15.8,18.9,25.9c4.5,10.1,7.5,21.1,9,33.1l-63.5,8.6c-1.5-12-5-21.7-10.4-29.1-5.4-7.4-14.7-11-27.9-11s-17.6,2-23.9,6.1c-6.3,4.1-11.3,9.5-15.1,16.5-3.8,6.9-6.4,14.8-7.9,23.7-1.5,8.9-2.2,18.1-2.2,27.7s.8,19.4,2.2,28.4,4.1,17,7.7,23.9c3.6,6.9,8.6,12.4,14.9,16.5,6.3,4.1,14.3,6.1,23.9,6.1s22.4-3.6,29.3-10.8,11-17.6,12.2-31.1h64,0Z"/>
          <path class="cls-3" d="M1593.9,107h114.9c24.6,0,45,2.8,61.1,8.3,16.1,5.6,28.8,12.9,38.3,22.1,9.5,9.2,16.1,19.8,19.8,32,3.8,12.2,5.6,24.9,5.6,38.1s-1.9,27.6-5.6,40.5c-3.8,12.9-10.4,24.3-19.8,34-9.5,9.8-22.1,17.5-37.8,23.2s-35.7,8.6-59.7,8.6h-50.5v114.9h-66.2V107h0ZM1708.4,258c11.7,0,21.4-1.2,29.1-3.6,7.7-2.4,13.7-5.7,18.2-9.9,4.5-4.2,7.6-9.4,9.2-15.5,1.7-6.2,2.5-12.8,2.5-20s-.9-14.1-2.7-19.8c-1.8-5.7-5-10.5-9.5-14.4-4.5-3.9-10.6-6.9-18.2-9-7.7-2.1-17.3-3.2-29.1-3.2h-47.8v95.5h48.2,0Z"/>
          <path class="cls-3" d="M1874.6,462.1c8.7,2.4,17.6,3.6,26.6,3.6s15.2-2,20.3-6.1c5.1-4.1,9.5-11.2,13.1-21.4l7.2-19.8-97.8-224.8h73l55,154.5,51.4-154.5h68.9l-95.1,242c-5.4,13.5-10.5,25.3-15.3,35.4-4.8,10.1-10.3,18.5-16.4,25.2-6.2,6.8-13.5,11.8-22.1,15.1-8.6,3.3-19.2,5-31.8,5s-15.5-.5-23.2-1.6c-7.7-1.1-15.7-2.9-24.1-5.6l10.4-46.9h0Z"/>
        </g>
        <rect class="cls-4" x="65.3" y="66.6" width="412.3" height="412.3" rx="95.4" ry="95.4" transform="translate(-113.4 271.9) rotate(-45)"/>
        <path class="cls-3" d="M271,542.5c-25.2,0-49-9.8-66.8-27.7L27.7,338.3C9.8,320.5,0,296.7,0,271.5s9.8-49,27.7-66.8L204.1,28.2C222,10.4,245.7.5,271,.5s49,9.8,66.8,27.7l176.4,176.4c17.8,17.8,27.7,41.6,27.7,66.8s-9.8,49-27.7,66.8l-176.4,176.4c-17.9,17.8-41.6,27.7-66.8,27.7h0ZM271,25.3c-18.6,0-36.1,7.2-49.3,20.4L45.2,222.2c-13.2,13.2-20.4,30.7-20.4,49.3s7.2,36.1,20.4,49.3l176.4,176.4c13.2,13.2,30.7,20.4,49.3,20.4s36.1-7.2,49.3-20.4l176.4-176.4,8.8,8.8-8.8-8.8c13.2-13.2,20.4-30.7,20.4-49.3s-7.2-36.1-20.4-49.3L320.3,45.7c-13.2-13.2-30.7-20.4-49.3-20.4h0Z"/>
        <g>
          <path class="cls-2" d="M127.5,275.1h-21.6v-15h21.6v-23.5h15.6v23.5h21.6v15h-21.6v23.5h-15.6s0-23.5,0-23.5Z"/>
          <g class="cls-5">
            <path class="cls-2" d="M134.8,346.6c-20.3,0-40.7-7.7-56.1-23.2-31-31-31-81.3,0-112.3,30.9-31,81.3-31,112.3,0,30.9,31,30.9,81.3,0,112.3-15.5,15.5-35.8,23.2-56.1,23.2ZM134.8,200.3c-17.2,0-34.3,6.5-47.4,19.6-26.1,26.1-26.1,68.6,0,94.7s68.6,26.1,94.7,0,26.1-68.6,0-94.7-30.2-19.6-47.4-19.6Z"/>
          </g>
        </g>
        <g>
          <path class="cls-2" d="M256.2,398.5h37v17.1h-37v-17.1Z"/>
          <g class="cls-5">
            <path class="cls-2" d="M271.7,483.5c-21.2,0-41.1-8.3-56.1-23.2s-23.2-34.9-23.2-56.1,8.3-41.1,23.2-56.1c30.9-31,81.3-31,112.3,0s23.2,34.9,23.2,56.1-8.3,41.1-23.2,56.1-34.9,23.2-56.1,23.2ZM271.7,337.1c-17.2,0-34.3,6.5-47.4,19.6-12.6,12.7-19.6,29.5-19.6,47.4s7,34.7,19.6,47.4,29.5,19.6,47.4,19.6,34.7-7,47.4-19.6,19.6-29.5,19.6-47.4-7-34.7-19.6-47.4c-13.1-13.1-30.2-19.6-47.4-19.6Z"/>
          </g>
        </g>
        <g>
          <path class="cls-2" d="M396.1,268.6l-15.3-15.3,10.6-10.6,15.3,15.3,16.6-16.6,11,11-16.6,16.6,15.3,15.3-10.6,10.6-15.3-15.3-16.6,16.6-11-11,16.6-16.6Z"/>
          <g class="cls-5">
            <path class="cls-2" d="M406.1,349c-20.3,0-40.7-7.7-56.1-23.2-31-31-31-81.3,0-112.3s81.3-31,112.3,0,31,81.3,0,112.3c-15.5,15.5-35.8,23.2-56.1,23.2ZM406.1,202.7c-17.2,0-34.3,6.5-47.4,19.6-26.1,26.1-26.1,68.6,0,94.7s68.6,26.1,94.7,0,26.1-68.6,0-94.7-30.2-19.6-47.4-19.6Z"/>
          </g>
        </g>
        <g>
          <g class="cls-5">
            <path class="cls-2" d="M269.2,212.2c-20.3,0-40.7-7.7-56.1-23.2-30.9-31-30.9-81.3,0-112.3s81.3-31,112.3,0,31,81.3,0,112.3c-15.5,15.5-35.8,23.2-56.1,23.2ZM269.2,65.9c-17.2,0-34.3,6.5-47.4,19.6-26.1,26.1-26.1,68.6,0,94.7s68.6,26.1,94.7,0,26.1-68.6,0-94.7-30.2-19.6-47.4-19.6Z"/>
          </g>
          <g>
            <path class="cls-2" d="M239,124.3h60.5v17.1h-60.5v-17.1h0Z"/>
            <circle class="cls-2" cx="269.2" cy="108.9" r="8.5"/>
            <circle class="cls-2" cx="269.2" cy="156.8" r="8.5"/>
          </g>
        </g>
      </g>
    </g>
  </g>
</svg>