<?xml version="1.0" encoding="UTF-8"?><svg id="Layer_1" xmlns="http://www.w3.org/2000/svg" viewBox="0 0 103 103"><defs><style>.cls-1{fill:#ff9015;stroke-width:0px;}</style></defs><path class="cls-1" d="M0,93.8V8.9C0,4,4,0,8.9,0h84.9c5.1,0,9.2,4.1,9.2,9.2v84.5c0,5.2-4.2,9.3-9.3,9.3H9.2c-5.1,0-9.2-4.1-9.2-9.2ZM73.6,29.5v29.5c0,0,14.6,0,14.6,0V14.7h-44.1v14.8h29.5ZM29.4,73.7v-29.5s-14.6,0-14.6,0v44.2h44.1v-14.8h-29.5ZM29.5,29.5v-14.8h-14.8v14.8h14.8ZM58.9,58.9v-14.8h-14.8v14.8h14.8ZM88.3,88.3v-14.8h-14.8v14.8h14.8Z"/></svg>