<?xml version="1.0" encoding="UTF-8"?>
<svg id="Layer_1" data-name="Layer 1" xmlns="http://www.w3.org/2000/svg" width="235.88" height="235.88" viewBox="0 0 235.88 235.88">
  <path id="rect1165" d="M20.79,0C9.27,0,0,9.27,0,20.79v194.29c0,11.52,9.27,20.79,20.79,20.79h194.29c11.52,0,20.79-9.28,20.79-20.79V20.79c0-11.52-9.28-20.79-20.79-20.79H20.79ZM24.28,37.66h39.33v16.03h-18.52v128.49h18.52v16.03H24.28V37.66ZM172.26,37.66h39.34v160.56h-39.34v-16.04h18.52V53.69h-18.52v-16.03ZM82.78,140.58c8.2,0,13.6,5.88,13.6,13.88h0c.17,7.33-5.66,13.4-13.01,13.57-.25,0-.51,0-.76,0-7.31.29-13.48-5.39-13.77-12.68-.01-.35-.01-.7,0-1.04,0-8,5.74-13.72,13.93-13.72ZM118.02,140.6c8.2,0,13.6,5.88,13.6,13.88-.1,7.58-6.33,13.64-13.94,13.54-7.53-.1-13.58-6.2-13.59-13.71,0-8,5.73-13.72,13.93-13.72ZM153.25,140.6c8.2,0,13.6,5.88,13.6,13.88-.1,7.58-6.33,13.64-13.94,13.54-7.53-.1-13.59-6.2-13.6-13.71,0-8,5.74-13.72,13.93-13.72Z" fill="#f78e21"/>
</svg>