<?xml version="1.0" encoding="UTF-8"?>
<svg id="Layer_1" data-name="Layer 1" xmlns="http://www.w3.org/2000/svg" width="737.26" height="235.88" viewBox="0 0 737.26 235.88">
  <path id="rect1165" d="M20.79,0C9.27,0,0,9.27,0,20.79v194.29c0,11.52,9.27,20.79,20.79,20.79h194.29c11.52,0,20.79-9.28,20.79-20.79V20.79c0-11.52-9.28-20.79-20.79-20.79H20.79ZM24.28,37.66h39.33v16.03h-18.52v128.49h18.52v16.03H24.28V37.66ZM172.26,37.66h39.34v160.56h-39.34v-16.04h18.52V53.69h-18.52v-16.03ZM82.78,140.58c8.2,0,13.6,5.88,13.6,13.88h0c.17,7.33-5.66,13.4-13.01,13.57-.25,0-.51,0-.76,0-7.31.29-13.48-5.39-13.77-12.68-.01-.35-.01-.7,0-1.04,0-8,5.74-13.72,13.93-13.72ZM118.02,140.6c8.2,0,13.6,5.88,13.6,13.88-.1,7.58-6.33,13.64-13.94,13.54-7.53-.1-13.58-6.2-13.59-13.71,0-8,5.73-13.72,13.93-13.72ZM153.25,140.6c8.2,0,13.6,5.88,13.6,13.88-.1,7.58-6.33,13.64-13.94,13.54-7.53-.1-13.59-6.2-13.6-13.71,0-8,5.74-13.72,13.93-13.72Z" fill="#f78e21"/>
  <g id="g7964">
    <g id="g7149">
      <g id="g615-8-0">
        <path id="path607-7-9" d="M332.76,59.26c-1.91,1.78-3.9,2.56-6.43,2.56-5.09,0-8.85-3.87-8.85-9.1s3.68-9.29,8.88-9.29c2.49,0,4.55.89,6.68,2.86l-3.07,2.86c-1.01-1.04-2.1-1.52-3.43-1.52-2.53,0-4.41,2.12-4.41,4.94s1.91,5.06,4.59,5.06c1.19,0,2.06-.37,3.25-1.45l2.78,3.08Z" fill="#434b53"/>
        <path id="path609-9-3" d="M349.11,44.02v10.89c0,2.53-.5,3.94-1.88,5.13-1.34,1.15-3.21,1.78-5.42,1.78s-4.3-.67-5.6-1.9c-1.19-1.12-1.77-2.75-1.77-5.01v-10.89h4.59v10.59c0,1.93,1.12,3.23,2.78,3.23s2.71-1.12,2.71-2.94v-10.89h4.59,0Z" fill="#434b53"/>
        <path id="path611-7-1" d="M355.83,52.75c0,3.09,1.84,5.24,4.48,5.24s4.55-2.16,4.55-5.24-1.91-5.35-4.44-5.35-4.59,2.38-4.59,5.35M355.9,61.23h-4.59v-24.39h4.59v9.27c1.59-1.9,3.14-2.68,5.42-2.68,4.91,0,8.41,3.87,8.41,9.29s-3.32,9.1-8.2,9.1c-2.53,0-4.15-.82-5.64-2.82v2.23h0Z" fill="#434b53"/>
        <path id="path613-8-4" d="M384.54,51.04c-.4-2.27-1.99-3.64-4.26-3.64s-3.68,1.3-4.12,3.64h8.38ZM376.16,53.76c.4,2.38,2.1,3.87,4.37,3.87,1.7,0,3.14-.85,3.87-2.23l4.22,1.19c-1.66,3.34-4.59,5.24-8.13,5.24-5.31,0-9.1-3.87-9.1-9.22s3.65-9.18,8.81-9.18,9.07,3.87,9.07,9.4l-.04.93h-13.07Z" fill="#434b53"/>
      </g>
      <polygon id="polygon617-6-2" points="407.61 54.5 411.01 44.02 415.66 44.02 410.21 61.23 405.44 61.23 402.52 50.67 399.52 61.23 394.64 61.23 389.26 44.02 393.92 44.02 397.28 54.5 400.21 44.02 404.61 44.02 407.61 54.5" fill="#434b53"/>
      <rect id="rect619-3-9" x="417.18" y="44.02" width="4.59" height="17.2" fill="#434b53"/>
      <g id="g625-4-7">
        <path id="path621-2-3" d="M432.74,49v-.3c0-1.04-.9-1.78-2.13-1.78-1.12,0-1.84.63-1.84,1.56,0,.45.18.89.47,1.12.5.41.54.41,2.85,1.15,3.76,1.19,5.24,2.71,5.24,5.5,0,3.34-2.6,5.57-6.5,5.57s-6.39-2.08-6.57-5.65h4.41c.22,1.49.87,2.15,2.2,2.15,1.08,0,1.84-.67,1.84-1.63,0-1.04-.65-1.52-3.1-2.3-3.61-1.12-5.24-2.79-5.24-5.5,0-3.27,2.56-5.46,6.47-5.46s6.14,2.08,6.25,5.57h-4.33Z" fill="#434b53"/>
        <path id="path623-3-3" d="M451.41,51.04c-.4-2.27-1.99-3.64-4.26-3.64s-3.68,1.3-4.12,3.64h8.38ZM443.03,53.76c.4,2.38,2.1,3.87,4.37,3.87,1.7,0,3.14-.85,3.87-2.23l4.22,1.19c-1.66,3.34-4.59,5.24-8.13,5.24-5.31,0-9.1-3.87-9.1-9.22s3.65-9.18,8.81-9.18,9.07,3.87,9.07,9.4l-.04.93h-13.07Z" fill="#434b53"/>
      </g>
      <rect id="rect627-7-8" x="417.12" y="36.7" width="4.75" height="4.88" fill="#434b53"/>
    </g>
  </g>
  <g>
    <path d="M393.24,73.09h41.35v125.94h-41.35v-14.15c-11.43,13.07-24.74,19.05-42.7,19.05-35.9,0-61.75-27.46-61.75-66.09s27.49-69.64,65.29-69.64c16.04,0,26.91,5.16,39.16,18.49v-13.6ZM332.87,137.01c0,19.31,13.05,34.26,29.92,34.26s31.01-15.77,31.01-34.82c0-20.11-12.8-34-30.74-34s-30.19,14.42-30.19,34.55Z" fill="#f78e21"/>
    <path d="M486.06,73.09v17.12c3.26-9.24,5.71-13.05,10.88-16.59,4.89-3.52,11.69-5.43,18.23-5.43h4.08v42.44c-2.99-.29-5.98-.55-7.62-.55-9.24,0-17.14,3.81-21.48,10.06-3.26,4.36-4.08,8.99-4.08,19.6v59.29h-41.35v-125.94h41.35Z" fill="#f78e21"/>
    <path d="M641.18,185.16c-14.97,13.05-30.19,18.76-49.24,18.76s-37.28-7.35-50.32-19.85c-12.51-11.72-19.05-28.31-19.05-47.33,0-40,28.84-68.55,68.82-68.55,19.31,0,34.82,6.51,52.51,21.75l-27.49,24.76c-7.07-7.09-14.13-10.08-23.12-10.08-16.32,0-29.1,13.33-29.1,30.74s13.33,32.09,31.3,32.09c7.33,0,12.49-2.17,20.93-8.97l24.76,26.67Z" fill="#f78e21"/>
  </g>
  <g id="g1498-2-6">
    <path id="Path_645-1-9-2-2-14-0" data-name="Path 645-1-9-2-2-14-0" d="M695.08,183.6c0,3.75-3.56,6.75-7.69,6.75s-7.5-3-7.5-6.75c0-3.94,3.19-6.75,7.69-6.75s7.5,3,7.5,6.94" fill="#f78e21"/>
    <path id="Path_645-1-9-2-2-6-0-8" data-name="Path 645-1-9-2-2-6-0-8" d="M695.27,97.56c0,3.75-3.37,6.75-7.5,6.75s-7.31-3-7.31-6.75c0-3.94,3.19-6.75,7.5-6.75s7.31,3,7.31,6.94" fill="#f78e21"/>
    <path id="path1240-1-4-2-7-8-2-9-3-9-9-5-3" d="M680.27,97.37h15v85.67h-15s0-85.67,0-85.67Z" fill="#f78e21"/>
  </g>
  <g id="g1498-2-6-3">
    <path id="Path_645-1-9-2-2-14-0-1" data-name="Path 645-1-9-2-2-14-0-1" d="M644.47,147.98c-3.75,0-6.75-3.37-6.75-7.69s3-7.5,6.75-7.5c3.94,0,6.75,3.19,6.75,7.69s-2.81,7.5-6.94,7.5" fill="#f78e21"/>
    <path id="Path_645-1-9-2-2-6-0-8-9" data-name="Path 645-1-9-2-2-6-0-8-9" d="M730.51,147.8c-3.75,0-6.75-3.37-6.75-7.5s3-7.31,6.75-7.31c3.94,0,6.75,3,6.75,7.5s-2.81,7.31-6.94,7.31" fill="#f78e21"/>
    <path id="path1240-1-4-2-7-8-2-9-3-9-9-5-3-6" d="M730.7,132.99v15h-85.67v-15h85.67Z" fill="#f78e21"/>
  </g>
</svg>