<?xml version="1.0" encoding="UTF-8"?>
<svg id="svg1109" xmlns="http://www.w3.org/2000/svg" viewBox="0 0 778.58 285.21">
  <defs>
    <style>
      .cls-1 {
        fill: #f08287;
      }

      .cls-1, .cls-2 {
        stroke-width: 0px;
      }

      .cls-2 {
        fill: #424a52;
      }
    </style>
  </defs>
  <g id="layer1">
    <g id="g8862">
      <path id="rect1165" class="cls-1" d="M25.2,0C11.28,0,0,11.28,0,25.2v234.97c0,13.77,11.28,25.05,25.2,25.05h234.97c13.92,0,25.2-11.28,25.2-25.2V25.2c-.15-13.92-11.43-25.2-25.34-25.2H25.2ZM29.3,45.56h47.61v19.34h-22.41v155.28h22.41v19.34H29.3V45.56ZM208.3,45.56h47.61v194.1h-47.61v-19.34h22.41V64.89h-22.41s0-19.34,0-19.34ZM100.05,169.93c9.96,0,16.41,7.18,16.41,16.85h0c.15,8.79-6.88,16.26-15.67,16.41h-.88c-8.79.29-16.26-6.45-16.7-15.38v-1.32c0-9.67,6.88-16.55,16.85-16.55ZM142.68,169.93c9.96,0,16.41,7.18,16.41,16.85s-7.62,16.55-16.85,16.41c-9.08,0-16.41-7.47-16.41-16.55,0-9.67,6.88-16.55,16.85-16.55v-.15ZM185.31,169.93c9.96,0,16.41,7.18,16.41,16.85s-7.62,16.55-16.85,16.41c-9.08,0-16.41-7.47-16.41-16.55,0-9.67,6.88-16.55,16.85-16.55v-.15Z"/>
      <g id="g7964">
        <g id="g7149">
          <g id="g615-8-0">
            <path id="path607-7-9" class="cls-2" d="M402.25,71.63c-2.34,2.2-4.69,3.08-7.76,3.08-6.15,0-10.69-4.69-10.69-10.99s4.39-11.28,10.69-11.28c3.08,0,5.57,1.03,8.06,3.52l-3.66,3.52c-1.17-1.32-2.49-1.9-4.1-1.9-3.08,0-5.27,2.49-5.27,6.01s2.34,6.15,5.57,6.15c1.46,0,2.49-.44,3.96-1.76l3.37,3.66h-.15Z"/>
            <path id="path609-9-3" class="cls-2" d="M422.03,53.17v13.18c0,3.08-.59,4.83-2.34,6.15-1.61,1.46-3.96,2.2-6.59,2.2s-5.13-.88-6.74-2.34c-1.46-1.32-2.2-3.37-2.2-6.01v-13.18h5.57v12.74c0,2.34,1.32,3.96,3.37,3.96s3.22-1.32,3.22-3.52v-13.18h5.71Z"/>
            <path id="path611-7-1" class="cls-2" d="M430.23,63.72c0,3.66,2.2,6.3,5.42,6.3s5.57-2.64,5.57-6.3-2.34-6.45-5.42-6.45-5.57,2.93-5.57,6.45M430.23,73.98h-5.57v-29.44h5.57v11.13c1.9-2.34,3.81-3.22,6.59-3.22,6.01,0,10.11,4.69,10.11,11.28s-3.96,10.99-9.96,10.99c-3.08,0-4.98-1.03-6.88-3.37v2.64h.15Z"/>
            <path id="path613-8-4" class="cls-2" d="M464.95,61.67c-.44-2.78-2.34-4.39-5.13-4.39s-4.39,1.61-4.98,4.39h10.11ZM454.7,65.04c.44,2.93,2.49,4.69,5.27,4.69,2.05,0,3.81-1.03,4.69-2.64l5.13,1.46c-2.05,4.1-5.57,6.3-9.81,6.3-6.45,0-10.99-4.69-10.99-11.13s4.39-11.13,10.69-11.13,10.99,4.69,10.99,11.43v1.17h-15.82l-.15-.15Z"/>
          </g>
          <polygon id="polygon617-6-2" class="cls-2" points="492.78 65.92 496.88 53.17 502.45 53.17 496.01 73.98 490.15 73.98 486.63 61.23 482.97 73.98 477.11 73.98 470.66 53.17 476.23 53.17 480.33 65.92 483.85 53.17 489.12 53.17 492.78 65.92"/>
          <rect id="rect619-3-9" class="cls-2" x="504.36" y="53.17" width="5.57" height="20.8"/>
          <g id="g625-4-7">
            <path id="path621-2-3" class="cls-2" d="M523.11,59.18v-.29c0-1.32-1.03-2.2-2.64-2.2-1.32,0-2.2.73-2.2,1.9,0,.59.15,1.03.59,1.32q.59.44,3.52,1.46c4.54,1.46,6.3,3.22,6.3,6.59,0,4.1-3.08,6.74-7.91,6.74s-7.76-2.49-7.91-6.88h5.27c.29,1.76,1.03,2.64,2.64,2.64,1.32,0,2.2-.88,2.2-1.9,0-1.32-.73-1.9-3.81-2.78-4.39-1.32-6.3-3.37-6.3-6.59,0-3.96,3.08-6.59,7.76-6.59s7.47,2.49,7.62,6.74h-5.27l.15-.15Z"/>
            <path id="path623-3-3" class="cls-2" d="M545.81,61.67c-.44-2.78-2.34-4.39-5.13-4.39s-4.39,1.61-4.98,4.39h10.11ZM535.56,65.04c.44,2.93,2.49,4.69,5.27,4.69,2.05,0,3.81-1.03,4.69-2.64l5.13,1.46c-2.05,4.1-5.57,6.3-9.81,6.3-6.45,0-10.99-4.69-10.99-11.13s4.39-11.13,10.69-11.13,10.99,4.69,10.99,11.43v1.17h-15.82l-.15-.15Z"/>
          </g>
          <rect id="rect627-7-8" class="cls-2" x="504.36" y="44.39" width="5.71" height="5.86"/>
        </g>
      </g>
    </g>
  </g>
  <g>
    <path class="cls-1" d="M475.35,88.33h49.95v152.2h-49.95v-17.14c-13.77,15.82-29.88,23-51.56,23-43.36,0-74.71-33.25-74.71-79.84s33.25-84.23,78.96-84.23c19.34,0,32.52,6.3,47.32,22.41,0,0,0-16.41,0-16.41ZM402.4,165.68c0,23.29,15.82,41.46,36.18,41.46s37.5-19.04,37.5-42.04c0-24.32-15.53-41.16-37.21-41.16s-36.48,17.43-36.48,41.75Z"/>
    <path class="cls-1" d="M587.56,88.33v20.65c3.96-11.13,6.88-15.82,13.18-20.07,5.86-4.25,14.21-6.59,21.97-6.59h4.98v51.27c-3.66-.29-7.18-.73-9.23-.73-11.13,0-20.65,4.54-25.93,12.16-3.96,5.27-4.98,10.84-4.98,23.73v71.63h-49.95V88.33h49.95Z"/>
    <path class="cls-1" d="M775.21,223.83c-18.16,15.82-36.48,22.71-59.47,22.71s-45.12-8.94-60.79-24.02c-15.09-14.21-23-34.28-23-57.28,0-48.34,34.86-82.91,83.2-82.91,23.29,0,42.04,7.91,63.43,26.37l-33.25,29.88c-8.5-8.5-17.14-12.16-27.98-12.16-19.78,0-35.16,16.11-35.16,37.21s16.11,38.82,37.79,38.82c8.94,0,15.09-2.64,25.34-10.84,0,0,29.88,32.23,29.88,32.23Z"/>
  </g>
</svg>